Mono_opsz9.ufo
<glyph name="quotedbl" format="2">
	<unicode hex="0022"/>
	<advance width="525"/>
	<outline>
		<contour>
			<point x="220" y="574" type="line"/>
			<point x="220" y="609"/>
			<point x="191" y="622"/>
			<point x="174" y="622" type="curve" smooth="yes"/>
			<point x="160" y="622"/>
			<point x="124" y="613"/>
			<point x="127" y="565" type="curve" smooth="yes"/>
			<point x="140" y="365" type="line" smooth="yes"/>
			<point x="142" y="340"/>
			<point x="151" y="328"/>
			<point x="174" y="328" type="curve" smooth="yes"/>
			<point x="194" y="328"/>
			<point x="206" y="340"/>
			<point x="207" y="364" type="curve" smooth="yes"/>
		</contour>
		<contour>
			<point x="397" y="574" type="line"/>
			<point x="397" y="609"/>
			<point x="368" y="622"/>
			<point x="351" y="622" type="curve" smooth="yes"/>
			<point x="337" y="622"/>
			<point x="301" y="613"/>
			<point x="304" y="565" type="curve" smooth="yes"/>
			<point x="317" y="365" type="line" smooth="yes"/>
			<point x="319" y="340"/>
			<point x="328" y="328"/>
			<point x="351" y="328" type="curve" smooth="yes"/>
			<point x="371" y="328"/>
			<point x="383" y="340"/>
			<point x="384" y="364" type="curve" smooth="yes"/>
		</contour>
	</outline>
</glyph>
<glyph name="numbersign" format="2">
  <advance width="1050"/>
  <unicode hex="0023"/>
  <outline>
    <contour>
      <point x="788" y="752" type="line"/>
      <point x="878" y="752" type="line" smooth="yes"/>
      <point x="904" y="752"/>
      <point x="978" y="752"/>
      <point x="978" y="828" type="curve" smooth="yes"/>
      <point x="978" y="902"/>
      <point x="902" y="902"/>
      <point x="880" y="902" type="curve" smooth="yes"/>
      <point x="808" y="902" type="line"/>
      <point x="836" y="1122" type="line" smooth="yes"/>
      <point x="846" y="1200"/>
      <point x="796" y="1222"/>
      <point x="762" y="1222" type="curve" smooth="yes"/>
      <point x="696" y="1222"/>
      <point x="688" y="1158"/>
      <point x="686" y="1136" type="curve" smooth="yes"/>
      <point x="656" y="902" type="line"/>
      <point x="464" y="902" type="line"/>
      <point x="492" y="1122" type="line" smooth="yes"/>
      <point x="502" y="1200"/>
      <point x="452" y="1222"/>
      <point x="418" y="1222" type="curve" smooth="yes"/>
      <point x="352" y="1222"/>
      <point x="344" y="1158"/>
      <point x="342" y="1136" type="curve" smooth="yes"/>
      <point x="312" y="902" type="line"/>
      <point x="168" y="902" type="line" smooth="yes"/>
      <point x="146" y="902"/>
      <point x="70" y="902"/>
      <point x="70" y="828" type="curve" smooth="yes"/>
      <point x="70" y="752"/>
      <point x="144" y="752"/>
      <point x="170" y="752" type="curve" smooth="yes"/>
      <point x="292" y="752" type="line"/>
      <point x="258" y="470" type="line"/>
      <point x="170" y="470" type="line" smooth="yes"/>
      <point x="144" y="470"/>
      <point x="70" y="470"/>
      <point x="70" y="394" type="curve" smooth="yes"/>
      <point x="70" y="320"/>
      <point x="146" y="320"/>
      <point x="168" y="320" type="curve" smooth="yes"/>
      <point x="238" y="320" type="line"/>
      <point x="210" y="84"/>
      <point x="210" y="80"/>
      <point x="210" y="76" type="curve" smooth="yes"/>
      <point x="210" y="34"/>
      <point x="242" y="0"/>
      <point x="286" y="0" type="curve" smooth="yes"/>
      <point x="350" y="0"/>
      <point x="358" y="52"/>
      <point x="366" y="124" type="curve" smooth="yes"/>
      <point x="376" y="194"/>
      <point x="382" y="248"/>
      <point x="390" y="320" type="curve"/>
      <point x="582" y="320" type="line"/>
      <point x="554" y="84"/>
      <point x="554" y="80"/>
      <point x="554" y="76" type="curve" smooth="yes"/>
      <point x="554" y="34"/>
      <point x="586" y="0"/>
      <point x="630" y="0" type="curve" smooth="yes"/>
      <point x="694" y="0"/>
      <point x="702" y="52"/>
      <point x="710" y="124" type="curve" smooth="yes"/>
      <point x="720" y="194"/>
      <point x="726" y="248"/>
      <point x="734" y="320" type="curve"/>
      <point x="880" y="320" type="line" smooth="yes"/>
      <point x="902" y="320"/>
      <point x="978" y="320"/>
      <point x="978" y="394" type="curve" smooth="yes"/>
      <point x="978" y="470"/>
      <point x="904" y="470"/>
      <point x="878" y="470" type="curve" smooth="yes"/>
      <point x="754" y="470" type="line"/>
    </contour>
    <contour>
      <point x="444" y="752" type="line"/>
      <point x="636" y="752" type="line"/>
      <point x="602" y="470" type="line"/>
      <point x="410" y="470" type="line"/>
    </contour>
  </outline>
</glyph>
<glyph name="dollar" format="2">
  <advance width="1050"/>
  <unicode hex="0024"/>
  <outline>
    <contour>
      <point x="590" y="1098" type="line"/>
      <point x="666" y="1086"/>
      <point x="746" y="1052"/>
      <point x="774" y="970" type="curve"/>
      <point x="762" y="960"/>
      <point x="746" y="944"/>
      <point x="746" y="902" type="curve" smooth="yes"/>
      <point x="746" y="840"/>
      <point x="796" y="808"/>
      <point x="838" y="808" type="curve" smooth="yes"/>
      <point x="864" y="808"/>
      <point x="932" y="822"/>
      <point x="932" y="910" type="curve" smooth="yes"/>
      <point x="932" y="1036"/>
      <point x="852" y="1206"/>
      <point x="590" y="1228" type="curve"/>
      <point x="590" y="1304" type="line" smooth="yes"/>
      <point x="590" y="1334"/>
      <point x="590" y="1388"/>
      <point x="526" y="1388" type="curve" smooth="yes"/>
      <point x="460" y="1388"/>
      <point x="460" y="1334"/>
      <point x="460" y="1302" type="curve" smooth="yes"/>
      <point x="460" y="1228" type="line"/>
      <point x="244" y="1198"/>
      <point x="116" y="1054"/>
      <point x="116" y="900" type="curve" smooth="yes"/>
      <point x="116" y="802"/>
      <point x="178" y="624"/>
      <point x="460" y="574" type="curve"/>
      <point x="460" y="124" type="line"/>
      <point x="388" y="136"/>
      <point x="302" y="172"/>
      <point x="272" y="276" type="curve"/>
      <point x="284" y="286"/>
      <point x="302" y="310"/>
      <point x="302" y="346" type="curve" smooth="yes"/>
      <point x="302" y="398"/>
      <point x="260" y="438"/>
      <point x="210" y="438" type="curve" smooth="yes"/>
      <point x="178" y="438"/>
      <point x="116" y="422"/>
      <point x="116" y="336" type="curve" smooth="yes"/>
      <point x="116" y="192"/>
      <point x="208" y="18"/>
      <point x="460" y="-6" type="curve"/>
      <point x="460" y="-80" type="line" smooth="yes"/>
      <point x="460" y="-112"/>
      <point x="460" y="-166"/>
      <point x="526" y="-166" type="curve" smooth="yes"/>
      <point x="590" y="-166"/>
      <point x="590" y="-112"/>
      <point x="590" y="-82" type="curve" smooth="yes"/>
      <point x="590" y="-6" type="line"/>
      <point x="792" y="24"/>
      <point x="932" y="176"/>
      <point x="932" y="346" type="curve" smooth="yes"/>
      <point x="932" y="468"/>
      <point x="854" y="646"/>
      <point x="590" y="698" type="curve"/>
    </contour>
    <contour>
      <point x="460" y="724" type="line"/>
      <point x="348" y="746"/>
      <point x="252" y="814"/>
      <point x="252" y="910" type="curve" smooth="yes"/>
      <point x="252" y="982"/>
      <point x="316" y="1070"/>
      <point x="460" y="1096" type="curve"/>
    </contour>
    <contour>
      <point x="590" y="546" type="line"/>
      <point x="716" y="518"/>
      <point x="796" y="432"/>
      <point x="796" y="336" type="curve" smooth="yes"/>
      <point x="796" y="244"/>
      <point x="718" y="152"/>
      <point x="590" y="126" type="curve"/>
    </contour>
  </outline>
</glyph>
<glyph name="percent" format="2">
  <advance width="1050"/>
  <unicode hex="0025"/>
  <outline>
    <contour>
      <point x="866" y="1268" type="line" smooth="yes"/>
      <point x="874" y="1286"/>
      <point x="878" y="1298"/>
      <point x="878" y="1312" type="curve" smooth="yes"/>
      <point x="878" y="1358"/>
      <point x="840" y="1388"/>
      <point x="804" y="1388" type="curve" smooth="yes"/>
      <point x="752" y="1388"/>
      <point x="736" y="1348"/>
      <point x="728" y="1326" type="curve" smooth="yes"/>
      <point x="180" y="-48" type="line"/>
      <point x="176" y="-60"/>
      <point x="170" y="-72"/>
      <point x="170" y="-90" type="curve" smooth="yes"/>
      <point x="170" y="-132"/>
      <point x="204" y="-166"/>
      <point x="246" y="-166" type="curve" smooth="yes"/>
      <point x="296" y="-166"/>
      <point x="310" y="-126"/>
      <point x="320" y="-104" type="curve" smooth="yes"/>
    </contour>
    <contour>
      <point x="978" y="100" type="curve" smooth="yes"/>
      <point x="978" y="246"/>
      <point x="906" y="366"/>
      <point x="804" y="366" type="curve" smooth="yes"/>
      <point x="700" y="366"/>
      <point x="630" y="246"/>
      <point x="630" y="100" type="curve" smooth="yes"/>
      <point x="630" y="-46"/>
      <point x="702" y="-166"/>
      <point x="804" y="-166" type="curve" smooth="yes"/>
      <point x="908" y="-166"/>
      <point x="978" y="-46"/>
    </contour>
    <contour>
      <point x="804" y="-34" type="curve" smooth="yes"/>
      <point x="788" y="-34"/>
      <point x="750" y="12"/>
      <point x="750" y="100" type="curve" smooth="yes"/>
      <point x="750" y="188"/>
      <point x="788" y="234"/>
      <point x="804" y="234" type="curve" smooth="yes"/>
      <point x="820" y="234"/>
      <point x="858" y="188"/>
      <point x="858" y="100" type="curve" smooth="yes"/>
      <point x="858" y="12"/>
      <point x="820" y="-34"/>
    </contour>
    <contour>
      <point x="418" y="1120" type="curve" smooth="yes"/>
      <point x="418" y="1270"/>
      <point x="346" y="1388"/>
      <point x="244" y="1388" type="curve" smooth="yes"/>
      <point x="140" y="1388"/>
      <point x="70" y="1264"/>
      <point x="70" y="1122" type="curve" smooth="yes"/>
      <point x="70" y="972"/>
      <point x="142" y="854"/>
      <point x="244" y="854" type="curve" smooth="yes"/>
      <point x="348" y="854"/>
      <point x="418" y="978"/>
    </contour>
    <contour>
      <point x="244" y="986" type="curve" smooth="yes"/>
      <point x="226" y="986"/>
      <point x="190" y="1034"/>
      <point x="190" y="1120" type="curve" smooth="yes"/>
      <point x="190" y="1210"/>
      <point x="228" y="1256"/>
      <point x="244" y="1256" type="curve" smooth="yes"/>
      <point x="262" y="1256"/>
      <point x="298" y="1208"/>
      <point x="298" y="1122" type="curve" smooth="yes"/>
      <point x="298" y="1032"/>
      <point x="260" y="986"/>
    </contour>
  </outline>
</glyph>
<glyph name="ampersand" format="2">
  <advance width="1050"/>
  <unicode hex="0026"/>
  <outline>
    <contour>
      <point x="836" y="732" type="line"/>
      <point x="896" y="732" type="line" smooth="yes"/>
      <point x="924" y="732"/>
      <point x="980" y="732"/>
      <point x="980" y="796" type="curve" smooth="yes"/>
      <point x="980" y="862"/>
      <point x="926" y="862"/>
      <point x="896" y="862" type="curve" smooth="yes"/>
      <point x="728" y="862" type="line" smooth="yes"/>
      <point x="698" y="862"/>
      <point x="644" y="862"/>
      <point x="644" y="798" type="curve" smooth="yes"/>
      <point x="644" y="750"/>
      <point x="672" y="736"/>
      <point x="706" y="732" type="curve"/>
      <point x="658" y="600"/>
      <point x="598" y="430"/>
      <point x="542" y="330" type="curve"/>
      <point x="514" y="376"/>
      <point x="440" y="496"/>
      <point x="400" y="590" type="curve"/>
      <point x="546" y="742"/>
      <point x="606" y="844"/>
      <point x="606" y="966" type="curve" smooth="yes"/>
      <point x="606" y="1098"/>
      <point x="554" y="1244"/>
      <point x="418" y="1244" type="curve" smooth="yes"/>
      <point x="302" y="1244"/>
      <point x="202" y="1138"/>
      <point x="202" y="950" type="curve" smooth="yes"/>
      <point x="202" y="840"/>
      <point x="228" y="714"/>
      <point x="258" y="628" type="curve"/>
      <point x="230" y="596"/>
      <point x="156" y="524"/>
      <point x="130" y="492" type="curve" smooth="yes"/>
      <point x="76" y="426"/>
      <point x="56" y="348"/>
      <point x="56" y="278" type="curve" smooth="yes"/>
      <point x="56" y="120"/>
      <point x="152" y="-22"/>
      <point x="302" y="-22" type="curve" smooth="yes"/>
      <point x="414" y="-22"/>
      <point x="494" y="50"/>
      <point x="548" y="114" type="curve"/>
      <point x="616" y="38"/>
      <point x="694" y="-22"/>
      <point x="784" y="-22" type="curve" smooth="yes"/>
      <point x="920" y="-22"/>
      <point x="974" y="120"/>
      <point x="974" y="210" type="curve" smooth="yes"/>
      <point x="974" y="278"/>
      <point x="918" y="278"/>
      <point x="914" y="278" type="curve" smooth="yes"/>
      <point x="858" y="278"/>
      <point x="854" y="224"/>
      <point x="854" y="212" type="curve"/>
      <point x="850" y="148"/>
      <point x="822" y="108"/>
      <point x="784" y="108" type="curve" smooth="yes"/>
      <point x="714" y="108"/>
      <point x="646" y="186"/>
      <point x="620" y="220" type="curve"/>
      <point x="686" y="336"/>
      <point x="726" y="444"/>
      <point x="732" y="458" type="curve" smooth="yes"/>
    </contour>
    <contour>
      <point x="354" y="730" type="curve"/>
      <point x="322" y="840"/>
      <point x="322" y="932"/>
      <point x="322" y="950" type="curve" smooth="yes"/>
      <point x="322" y="1056"/>
      <point x="370" y="1114"/>
      <point x="416" y="1114" type="curve" smooth="yes"/>
      <point x="486" y="1114"/>
      <point x="486" y="966"/>
      <point x="486" y="964" type="curve" smooth="yes"/>
      <point x="486" y="906"/>
      <point x="454" y="846"/>
    </contour>
    <contour>
      <point x="310" y="496" type="curve"/>
      <point x="336" y="442"/>
      <point x="432" y="274"/>
      <point x="472" y="216" type="curve"/>
      <point x="432" y="164"/>
      <point x="374" y="108"/>
      <point x="302" y="108" type="curve" smooth="yes"/>
      <point x="226" y="108"/>
      <point x="204" y="218"/>
      <point x="204" y="284" type="curve" smooth="yes"/>
      <point x="204" y="337"/>
      <point x="211" y="374"/>
      <point x="242" y="418" type="curve" smooth="yes"/>
      <point x="257" y="441"/>
      <point x="279" y="466"/>
    </contour>
  </outline>
</glyph>
<glyph name="quotesingle" format="2">
  <advance width="525"/>
  <unicode hex="0027"/>
  <outline>
    <contour>
      <point x="308" y="562" type="line" smooth="yes"/>
      <point x="312" y="618"/>
      <point x="274" y="622"/>
      <point x="262" y="622" type="curve" smooth="yes"/>
      <point x="237" y="622"/>
      <point x="215" y="602"/>
      <point x="215" y="575" type="curve"/>
      <point x="217" y="556" type="line"/>
      <point x="229" y="368" type="line" smooth="yes"/>
      <point x="230" y="350"/>
      <point x="232" y="328"/>
      <point x="262" y="328" type="curve" smooth="yes"/>
      <point x="292" y="328"/>
      <point x="294" y="350"/>
      <point x="295" y="368" type="curve" smooth="yes"/>
    </contour>
  </outline>
</glyph>
<glyph name="parenleft" format="2">
	<unicode hex="0028"/>
	<advance width="525"/>
	<outline>
		<contour>
			<point x="437" y="-53" type="curve" smooth="yes"/>
			<point x="437" y="-37"/>
			<point x="427" y="-31"/>
			<point x="418" y="-24" type="curve"/>
			<point x="372.21976" y="6.17334"/>
			<point x="337.3853742284" y="42.4811697324"/>
			<point x="311.4109958921" y="81.3775496489" type="curve" smooth="yes"/>
			<point x="262.4924086084" y="154.6326601784"/>
			<point x="245" y="237.06928"/>
			<point x="245" y="305" type="curve" smooth="yes"/>
			<point x="245" y="381"/>
			<point x="266" y="446"/>
			<point x="288" y="491" type="curve" smooth="yes"/>
			<point x="328" y="567"/>
			<point x="377" y="608"/>
			<point x="424" y="639" type="curve" smooth="yes"/>
			<point x="431" y="644"/>
			<point x="437" y="653"/>
			<point x="437" y="664" type="curve" smooth="yes"/>
			<point x="437" y="674"/>
			<point x="431" y="694"/>
			<point x="404" y="694" type="curve" smooth="yes"/>
			<point x="381" y="694"/>
			<point x="297" y="636"/>
			<point x="241" y="549" type="curve" smooth="yes"/>
			<point x="188" y="466"/>
			<point x="171" y="377"/>
			<point x="171" y="306" type="curve" smooth="yes"/>
			<point x="171" y="239"/>
			<point x="185" y="144"/>
			<point x="251" y="49" type="curve" smooth="yes"/>
			<point x="300" y="-23"/>
			<point x="379" y="-83"/>
			<point x="404" y="-83" type="curve" smooth="yes"/>
			<point x="431" y="-83"/>
			<point x="437" y="-63"/>
		</contour>
	</outline>
</glyph>
<glyph name="parenright" format="2">
  <advance width="1050"/>
  <unicode hex="0029"/>
  <outline>
    <contour>
      <point x="706" y="610" type="curve" smooth="yes"/>
      <point x="706" y="744"/>
      <point x="678" y="934"/>
      <point x="546" y="1124" type="curve" smooth="yes"/>
      <point x="448" y="1268"/>
      <point x="292" y="1388"/>
      <point x="240" y="1388" type="curve" smooth="yes"/>
      <point x="184" y="1388"/>
      <point x="174" y="1344"/>
      <point x="174" y="1328" type="curve" smooth="yes"/>
      <point x="174" y="1296"/>
      <point x="194" y="1282"/>
      <point x="212" y="1270" type="curve" smooth="yes"/>
      <point x="308" y="1208"/>
      <point x="378" y="1132"/>
      <point x="432" y="1050" type="curve" smooth="yes"/>
      <point x="524" y="906"/>
      <point x="558" y="744"/>
      <point x="558" y="612" type="curve" smooth="yes"/>
      <point x="558" y="460"/>
      <point x="516" y="330"/>
      <point x="472" y="240" type="curve" smooth="yes"/>
      <point x="392" y="88"/>
      <point x="294" y="6"/>
      <point x="200" y="-56" type="curve"/>
      <point x="184" y="-68"/>
      <point x="174" y="-88"/>
      <point x="174" y="-106" type="curve" smooth="yes"/>
      <point x="174" y="-124"/>
      <point x="186" y="-166"/>
      <point x="240" y="-166" type="curve" smooth="yes"/>
      <point x="286" y="-166"/>
      <point x="454" y="-50"/>
      <point x="566" y="124" type="curve" smooth="yes"/>
      <point x="672" y="290"/>
      <point x="706" y="468"/>
    </contour>
  </outline>
</glyph>
<glyph name="asterisk" format="2">
  <advance width="1050"/>
  <unicode hex="002A"/>
  <outline>
    <contour>
      <point x="588" y="722" type="line"/>
      <point x="592" y="772"/>
      <point x="594" y="902"/>
      <point x="594" y="956" type="curve" smooth="yes"/>
      <point x="594" y="972"/>
      <point x="594" y="1042"/>
      <point x="524" y="1042" type="curve" smooth="yes"/>
      <point x="454" y="1042"/>
      <point x="454" y="972"/>
      <point x="454" y="956" type="curve" smooth="yes"/>
      <point x="454" y="902"/>
      <point x="456" y="772"/>
      <point x="460" y="722" type="curve"/>
      <point x="254" y="844" type="line" smooth="yes"/>
      <point x="228" y="858"/>
      <point x="224" y="862"/>
      <point x="206" y="862" type="curve" smooth="yes"/>
      <point x="166" y="862"/>
      <point x="136" y="830"/>
      <point x="136" y="792" type="curve" smooth="yes"/>
      <point x="136" y="768"/>
      <point x="146" y="744"/>
      <point x="182" y="724" type="curve" smooth="yes"/>
      <point x="394" y="612" type="line"/>
      <point x="182" y="498" type="line" smooth="yes"/>
      <point x="136" y="474"/>
      <point x="136" y="440"/>
      <point x="136" y="430" type="curve" smooth="yes"/>
      <point x="136" y="392"/>
      <point x="166" y="360"/>
      <point x="206" y="360" type="curve" smooth="yes"/>
      <point x="224" y="360"/>
      <point x="234" y="366"/>
      <point x="244" y="372" type="curve" smooth="yes"/>
      <point x="460" y="500" type="line"/>
      <point x="456" y="450"/>
      <point x="454" y="320"/>
      <point x="454" y="266" type="curve" smooth="yes"/>
      <point x="454" y="250"/>
      <point x="454" y="180"/>
      <point x="524" y="180" type="curve" smooth="yes"/>
      <point x="594" y="180"/>
      <point x="594" y="250"/>
      <point x="594" y="266" type="curve" smooth="yes"/>
      <point x="594" y="320"/>
      <point x="592" y="450"/>
      <point x="588" y="500" type="curve"/>
      <point x="626" y="478"/>
      <point x="718" y="424"/>
      <point x="772" y="390" type="curve" smooth="yes"/>
      <point x="820" y="360"/>
      <point x="824" y="360"/>
      <point x="842" y="360" type="curve" smooth="yes"/>
      <point x="882" y="360"/>
      <point x="912" y="392"/>
      <point x="912" y="430" type="curve" smooth="yes"/>
      <point x="912" y="470"/>
      <point x="884" y="486"/>
      <point x="872" y="492" type="curve"/>
      <point x="828" y="518"/>
      <point x="674" y="600"/>
      <point x="654" y="610" type="curve"/>
      <point x="866" y="724" type="line" smooth="yes"/>
      <point x="912" y="748"/>
      <point x="912" y="780"/>
      <point x="912" y="792" type="curve" smooth="yes"/>
      <point x="912" y="830"/>
      <point x="882" y="862"/>
      <point x="842" y="862" type="curve" smooth="yes"/>
      <point x="824" y="862"/>
      <point x="814" y="856"/>
      <point x="804" y="850" type="curve" smooth="yes"/>
    </contour>
  </outline>
</glyph>
<glyph name="plus" format="2">
  <advance width="525"/>
  <unicode hex="002B"/>
  <outline>
    <contour>
      <point x="300" y="268" type="line"/>
      <point x="438" y="268" type="line" smooth="yes"/>
      <point x="449" y="268"/>
      <point x="487" y="268"/>
      <point x="487" y="305" type="curve" smooth="yes"/>
      <point x="487" y="343"/>
      <point x="450" y="343"/>
      <point x="438" y="343" type="curve" smooth="yes"/>
      <point x="300" y="343" type="line"/>
      <point x="300" y="482" type="line" smooth="yes"/>
      <point x="300" y="493"/>
      <point x="300" y="531"/>
      <point x="263" y="531" type="curve" smooth="yes"/>
      <point x="225" y="531"/>
      <point x="225" y="494"/>
      <point x="225" y="482" type="curve" smooth="yes"/>
      <point x="225" y="343" type="line"/>
      <point x="86" y="343" type="line" smooth="yes"/>
      <point x="75" y="343"/>
      <point x="37" y="343"/>
      <point x="37" y="306" type="curve" smooth="yes"/>
      <point x="37" y="268"/>
      <point x="74" y="268"/>
      <point x="86" y="268" type="curve" smooth="yes"/>
      <point x="225" y="268" type="line"/>
      <point x="225" y="129" type="line" smooth="yes"/>
      <point x="225" y="118"/>
      <point x="225" y="80"/>
      <point x="262" y="80" type="curve" smooth="yes"/>
      <point x="300" y="80"/>
      <point x="300" y="117"/>
      <point x="300" y="129" type="curve" smooth="yes"/>
    </contour>
  </outline>
</glyph>
<glyph name="comma" format="2">
  <advance width="1050"/>
  <unicode hex="002C"/>
  <outline>
    <contour>
      <point x="558" y="4" type="curve"/>
      <point x="548" y="-40"/>
      <point x="512" y="-116"/>
      <point x="410" y="-150" type="curve" smooth="yes"/>
      <point x="392" y="-156"/>
      <point x="356" y="-168"/>
      <point x="356" y="-212" type="curve" smooth="yes"/>
      <point x="356" y="-242"/>
      <point x="386" y="-278"/>
      <point x="424" y="-278" type="curve" smooth="yes"/>
      <point x="488" y="-278"/>
      <point x="694" y="-172"/>
      <point x="694" y="52" type="curve" smooth="yes"/>
      <point x="694" y="168"/>
      <point x="620" y="254"/>
      <point x="526" y="254" type="curve" smooth="yes"/>
      <point x="448" y="254"/>
      <point x="398" y="194"/>
      <point x="398" y="128" type="curve" smooth="yes"/>
      <point x="398" y="54"/>
      <point x="452" y="0"/>
      <point x="526" y="0" type="curve" smooth="yes"/>
      <point x="540" y="0"/>
      <point x="554" y="2"/>
    </contour>
  </outline>
</glyph>
<glyph name="hyphen" format="2">
  <advance width="1050"/>
  <unicode hex="002D"/>
  <outline>
    <contour>
      <point x="838" y="536" type="line" smooth="yes"/>
      <point x="860" y="536"/>
      <point x="936" y="536"/>
      <point x="936" y="610" type="curve" smooth="yes"/>
      <point x="936" y="686"/>
      <point x="862" y="686"/>
      <point x="838" y="686" type="curve" smooth="yes"/>
      <point x="210" y="686" type="line" smooth="yes"/>
      <point x="188" y="686"/>
      <point x="112" y="686"/>
      <point x="112" y="612" type="curve" smooth="yes"/>
      <point x="112" y="536"/>
      <point x="186" y="536"/>
      <point x="210" y="536" type="curve" smooth="yes"/>
    </contour>
  </outline>
</glyph>
<glyph name="period" format="2">
  <advance width="1050"/>
  <unicode hex="002E"/>
  <outline>
    <contour>
      <point x="652" y="126" type="curve" smooth="yes"/>
      <point x="652" y="200"/>
      <point x="590" y="254"/>
      <point x="526" y="254" type="curve" smooth="yes"/>
      <point x="452" y="254"/>
      <point x="398" y="192"/>
      <point x="398" y="128" type="curve" smooth="yes"/>
      <point x="398" y="54"/>
      <point x="460" y="0"/>
      <point x="524" y="0" type="curve" smooth="yes"/>
      <point x="598" y="0"/>
      <point x="652" y="62"/>
    </contour>
  </outline>
</glyph>
<glyph name="slash" format="2">
  <advance width="1050"/>
  <unicode hex="002F"/>
  <outline>
    <contour>
      <point x="916" y="1264" type="line" smooth="yes"/>
      <point x="932" y="1296"/>
      <point x="932" y="1298"/>
      <point x="932" y="1312" type="curve" smooth="yes"/>
      <point x="932" y="1358"/>
      <point x="894" y="1388"/>
      <point x="858" y="1388" type="curve" smooth="yes"/>
      <point x="810" y="1388"/>
      <point x="792" y="1350"/>
      <point x="782" y="1330" type="curve" smooth="yes"/>
      <point x="132" y="-42" type="line" smooth="yes"/>
      <point x="116" y="-74"/>
      <point x="116" y="-76"/>
      <point x="116" y="-90" type="curve" smooth="yes"/>
      <point x="116" y="-136"/>
      <point x="154" y="-166"/>
      <point x="190" y="-166" type="curve" smooth="yes"/>
      <point x="238" y="-166"/>
      <point x="256" y="-130"/>
      <point x="266" y="-108" type="curve" smooth="yes"/>
    </contour>
  </outline>
</glyph>
<glyph name="zero" format="2">
  <advance width="1050"/>
  <unicode hex="0030"/>
  <outline>
    <contour>
      <point x="952" y="610" type="curve" smooth="yes"/>
      <point x="952" y="982"/>
      <point x="748" y="1244"/>
      <point x="524" y="1244" type="curve" smooth="yes"/>
      <point x="298" y="1244"/>
      <point x="96" y="976"/>
      <point x="96" y="612" type="curve" smooth="yes"/>
      <point x="96" y="240"/>
      <point x="300" y="-22"/>
      <point x="524" y="-22" type="curve" smooth="yes"/>
      <point x="750" y="-22"/>
      <point x="952" y="246"/>
    </contour>
    <contour>
      <point x="524" y="108" type="curve" smooth="yes"/>
      <point x="368" y="108"/>
      <point x="244" y="344"/>
      <point x="244" y="632" type="curve" smooth="yes"/>
      <point x="244" y="922"/>
      <point x="380" y="1114"/>
      <point x="524" y="1114" type="curve" smooth="yes"/>
      <point x="668" y="1114"/>
      <point x="804" y="920"/>
      <point x="804" y="632" type="curve" smooth="yes"/>
      <point x="804" y="342"/>
      <point x="680" y="108"/>
    </contour>
  </outline>
</glyph>
<glyph name="one" format="2">
  <advance width="1050"/>
  <unicode hex="0031"/>
  <outline>
    <contour>
      <point x="628" y="1160" type="line" smooth="yes"/>
      <point x="628" y="1190"/>
      <point x="628" y="1244"/>
      <point x="564" y="1244" type="curve" smooth="yes"/>
      <point x="530" y="1244"/>
      <point x="514" y="1226"/>
      <point x="502" y="1200" type="curve" smooth="yes"/>
      <point x="440" y="1060"/>
      <point x="360" y="1006"/>
      <point x="280" y="1000" type="curve" smooth="yes"/>
      <point x="250" y="998"/>
      <point x="206" y="994"/>
      <point x="206" y="934" type="curve" smooth="yes"/>
      <point x="206" y="894"/>
      <point x="228" y="870"/>
      <point x="276" y="870" type="curve" smooth="yes"/>
      <point x="356" y="870"/>
      <point x="434" y="912"/>
      <point x="480" y="952" type="curve"/>
      <point x="480" y="130" type="line"/>
      <point x="302" y="130" type="line" smooth="yes"/>
      <point x="270" y="130"/>
      <point x="218" y="130"/>
      <point x="218" y="64" type="curve" smooth="yes"/>
      <point x="218" y="0"/>
      <point x="272" y="0"/>
      <point x="302" y="0" type="curve" smooth="yes"/>
      <point x="806" y="0" type="line" smooth="yes"/>
      <point x="836" y="0"/>
      <point x="890" y="0"/>
      <point x="890" y="64" type="curve" smooth="yes"/>
      <point x="890" y="130"/>
      <point x="838" y="130"/>
      <point x="806" y="130" type="curve" smooth="yes"/>
      <point x="628" y="130" type="line"/>
    </contour>
  </outline>
</glyph>
<glyph name="two" format="2">
  <advance width="1050"/>
  <unicode hex="0032"/>
  <outline>
    <contour>
      <point x="134" y="124" type="line" smooth="yes"/>
      <point x="118" y="110"/>
      <point x="104" y="96"/>
      <point x="104" y="66" type="curve" smooth="yes"/>
      <point x="104" y="0"/>
      <point x="158" y="0"/>
      <point x="190" y="0" type="curve" smooth="yes"/>
      <point x="860" y="0" type="line" smooth="yes"/>
      <point x="926" y="0"/>
      <point x="944" y="16"/>
      <point x="944" y="84" type="curve" smooth="yes"/>
      <point x="944" y="142" type="line" smooth="yes"/>
      <point x="944" y="180"/>
      <point x="944" y="226"/>
      <point x="870" y="226" type="curve" smooth="yes"/>
      <point x="796" y="226"/>
      <point x="796" y="184"/>
      <point x="796" y="130" type="curve"/>
      <point x="346" y="130" type="line"/>
      <point x="452" y="222"/>
      <point x="676" y="400"/>
      <point x="726" y="446" type="curve" smooth="yes"/>
      <point x="800" y="518"/>
      <point x="944" y="652"/>
      <point x="944" y="850" type="curve" smooth="yes"/>
      <point x="944" y="1088"/>
      <point x="746" y="1244"/>
      <point x="498" y="1244" type="curve" smooth="yes"/>
      <point x="264" y="1244"/>
      <point x="104" y="1084"/>
      <point x="104" y="914" type="curve" smooth="yes"/>
      <point x="104" y="834"/>
      <point x="168" y="814"/>
      <point x="198" y="814" type="curve" smooth="yes"/>
      <point x="238" y="814"/>
      <point x="290" y="848"/>
      <point x="290" y="908" type="curve" smooth="yes"/>
      <point x="290" y="950"/>
      <point x="274" y="964"/>
      <point x="264" y="974" type="curve"/>
      <point x="298" y="1062"/>
      <point x="386" y="1114"/>
      <point x="488" y="1114" type="curve" smooth="yes"/>
      <point x="648" y="1114"/>
      <point x="796" y="1022"/>
      <point x="796" y="850" type="curve" smooth="yes"/>
      <point x="796" y="710"/>
      <point x="688" y="590"/>
      <point x="608" y="524" type="curve" smooth="yes"/>
    </contour>
  </outline>
</glyph>
<glyph name="three" format="2">
	<unicode hex="0033"/>
	<advance width="525"/>
	<outline>
		<contour>
			<point x="259" y="297" type="line" smooth="yes"/>
			<point x="362" y="297"/>
			<point x="406" y="227"/>
			<point x="406" y="176" type="curve" smooth="yes"/>
			<point x="406" y="113"/>
			<point x="349" y="54"/>
			<point x="263" y="54" type="curve" smooth="yes"/>
			<point x="237" y="54"/>
			<point x="161" y="58"/>
			<point x="126" y="106" type="curve"/>
			<point x="130" y="111"/>
			<point x="137" y="121"/>
			<point x="137" y="137" type="curve" smooth="yes"/>
			<point x="137" y="162"/>
			<point x="117" y="183"/>
			<point x="91" y="183" type="curve" smooth="yes"/>
			<point x="67" y="183"/>
			<point x="44" y="168"/>
			<point x="44" y="134" type="curve" smooth="yes"/>
			<point x="44" y="46"/>
			<point x="138" y="-11"/>
			<point x="263" y="-11" type="curve" smooth="yes"/>
			<point x="393" y="-11"/>
			<point x="480" y="80"/>
			<point x="480" y="175" type="curve" smooth="yes"/>
			<point x="480" y="257"/>
			<point x="418" y="313"/>
			<point x="371" y="334" type="curve"/>
			<point x="444" y="386"/>
			<point x="451" y="452"/>
			<point x="451" y="479" type="curve" smooth="yes"/>
			<point x="451" y="556"/>
			<point x="375" y="622"/>
			<point x="262" y="622" type="curve" smooth="yes"/>
			<point x="139" y="622"/>
			<point x="73" y="573"/>
			<point x="73" y="505" type="curve" smooth="yes"/>
			<point x="73" y="475"/>
			<point x="95" y="457"/>
			<point x="120" y="457" type="curve" smooth="yes"/>
			<point x="145" y="457"/>
			<point x="166" y="477"/>
			<point x="166" y="503" type="curve" smooth="yes"/>
			<point x="166" y="512"/>
			<point x="163" y="523"/>
			<point x="158" y="530" type="curve"/>
			<point x="191" y="557"/>
			<point x="256" y="557"/>
			<point x="262" y="557" type="curve" smooth="yes"/>
			<point x="332" y="557"/>
			<point x="377" y="520"/>
			<point x="377" y="479" type="curve" smooth="yes"/>
			<point x="377" y="451"/>
			<point x="364" y="410"/>
			<point x="325" y="385" type="curve" smooth="yes"/>
			<point x="299" y="368"/>
			<point x="281" y="364"/>
			<point x="234" y="364" type="curve" smooth="yes"/>
			<point x="224" y="364"/>
			<point x="216" y="364"/>
			<point x="209" y="363" type="curve" smooth="yes"/>
			<point x="186" y="360"/>
			<point x="175" y="353"/>
			<point x="175" y="330" type="curve" smooth="yes"/>
			<point x="175" y="297"/>
			<point x="202" y="297"/>
			<point x="217" y="297" type="curve" smooth="yes"/>
		</contour>
	</outline>
</glyph>
<glyph name="four" format="2">
  <advance width="1050"/>
  <unicode hex="0034"/>
  <outline>
    <contour>
      <point x="76" y="494" type="line" smooth="yes"/>
      <point x="58" y="468"/>
      <point x="58" y="464"/>
      <point x="58" y="422" type="curve" smooth="yes"/>
      <point x="58" y="364"/>
      <point x="66" y="336"/>
      <point x="142" y="336" type="curve" smooth="yes"/>
      <point x="638" y="336" type="line"/>
      <point x="638" y="130" type="line"/>
      <point x="518" y="130" type="line" smooth="yes"/>
      <point x="490" y="130"/>
      <point x="434" y="130"/>
      <point x="434" y="66" type="curve" smooth="yes"/>
      <point x="434" y="0"/>
      <point x="488" y="0"/>
      <point x="518" y="0" type="curve" smooth="yes"/>
      <point x="878" y="0" type="line" smooth="yes"/>
      <point x="906" y="0"/>
      <point x="962" y="0"/>
      <point x="962" y="64" type="curve" smooth="yes"/>
      <point x="962" y="130"/>
      <point x="908" y="130"/>
      <point x="878" y="130" type="curve" smooth="yes"/>
      <point x="758" y="130" type="line"/>
      <point x="758" y="336" type="line"/>
      <point x="906" y="336" type="line" smooth="yes"/>
      <point x="934" y="336"/>
      <point x="990" y="336"/>
      <point x="990" y="400" type="curve" smooth="yes"/>
      <point x="990" y="466"/>
      <point x="936" y="466"/>
      <point x="906" y="466" type="curve" smooth="yes"/>
      <point x="758" y="466" type="line"/>
      <point x="758" y="1164" type="line" smooth="yes"/>
      <point x="758" y="1232"/>
      <point x="742" y="1250"/>
      <point x="672" y="1250" type="curve" smooth="yes"/>
      <point x="614" y="1250" type="line" smooth="yes"/>
      <point x="564" y="1250"/>
      <point x="552" y="1248"/>
      <point x="526" y="1206" type="curve" smooth="yes"/>
    </contour>
    <contour>
      <point x="208" y="466" type="line"/>
      <point x="638" y="1148" type="line"/>
      <point x="638" y="466" type="line"/>
    </contour>
  </outline>
</glyph>
<glyph name="five" format="2">
  <advance width="1050"/>
  <unicode hex="0035"/>
  <outline>
    <contour>
      <point x="790" y="1092" type="line" smooth="yes"/>
      <point x="818" y="1092"/>
      <point x="874" y="1092"/>
      <point x="874" y="1156" type="curve" smooth="yes"/>
      <point x="874" y="1222"/>
      <point x="820" y="1222"/>
      <point x="790" y="1222" type="curve" smooth="yes"/>
      <point x="256" y="1222" type="line" smooth="yes"/>
      <point x="188" y="1222"/>
      <point x="170" y="1206"/>
      <point x="170" y="1130" type="curve" smooth="yes"/>
      <point x="170" y="610" type="line" smooth="yes"/>
      <point x="170" y="570"/>
      <point x="170" y="518"/>
      <point x="240" y="518" type="curve" smooth="yes"/>
      <point x="276" y="518"/>
      <point x="286" y="528"/>
      <point x="302" y="548" type="curve" smooth="yes"/>
      <point x="362" y="620"/>
      <point x="452" y="648"/>
      <point x="550" y="648" type="curve" smooth="yes"/>
      <point x="708" y="648"/>
      <point x="796" y="508"/>
      <point x="796" y="380" type="curve" smooth="yes"/>
      <point x="796" y="226"/>
      <point x="658" y="108"/>
      <point x="494" y="108" type="curve" smooth="yes"/>
      <point x="414" y="108"/>
      <point x="310" y="140"/>
      <point x="266" y="226" type="curve"/>
      <point x="286" y="246"/>
      <point x="290" y="276"/>
      <point x="290" y="290" type="curve" smooth="yes"/>
      <point x="290" y="342"/>
      <point x="250" y="382"/>
      <point x="198" y="382" type="curve" smooth="yes"/>
      <point x="160" y="382"/>
      <point x="104" y="358"/>
      <point x="104" y="282" type="curve" smooth="yes"/>
      <point x="104" y="120"/>
      <point x="268" y="-22"/>
      <point x="494" y="-22" type="curve" smooth="yes"/>
      <point x="744" y="-22"/>
      <point x="944" y="158"/>
      <point x="944" y="380" type="curve" smooth="yes"/>
      <point x="944" y="584"/>
      <point x="786" y="778"/>
      <point x="552" y="778" type="curve" smooth="yes"/>
      <point x="486" y="778"/>
      <point x="404" y="768"/>
      <point x="318" y="724" type="curve"/>
      <point x="318" y="1092" type="line"/>
    </contour>
  </outline>
</glyph>
<glyph name="eight" format="2">
  <advance width="1050"/>
  <unicode hex="0038"/>
  <outline>
    <contour>
      <point x="682" y="660" type="curve"/>
      <point x="798" y="694"/>
      <point x="932" y="784"/>
      <point x="932" y="922" type="curve" smooth="yes"/>
      <point x="932" y="1086"/>
      <point x="764" y="1244"/>
      <point x="524" y="1244" type="curve" smooth="yes"/>
      <point x="284" y="1244"/>
      <point x="116" y="1086"/>
      <point x="116" y="922" type="curve" smooth="yes"/>
      <point x="116" y="784"/>
      <point x="250" y="692"/>
      <point x="366" y="660" type="curve"/>
      <point x="236" y="622"/>
      <point x="88" y="512"/>
      <point x="88" y="350" type="curve" smooth="yes"/>
      <point x="88" y="154"/>
      <point x="272" y="-22"/>
      <point x="524" y="-22" type="curve" smooth="yes"/>
      <point x="776" y="-22"/>
      <point x="960" y="156"/>
      <point x="960" y="350" type="curve" smooth="yes"/>
      <point x="960" y="516"/>
      <point x="808" y="624"/>
    </contour>
    <contour>
      <point x="524" y="724" type="curve" smooth="yes"/>
      <point x="384" y="724"/>
      <point x="264" y="810"/>
      <point x="264" y="920" type="curve" smooth="yes"/>
      <point x="264" y="1020"/>
      <point x="372" y="1114"/>
      <point x="524" y="1114" type="curve" smooth="yes"/>
      <point x="676" y="1114"/>
      <point x="784" y="1020"/>
      <point x="784" y="920" type="curve" smooth="yes"/>
      <point x="784" y="810"/>
      <point x="664" y="724"/>
    </contour>
    <contour>
      <point x="524" y="108" type="curve" smooth="yes"/>
      <point x="362" y="108"/>
      <point x="236" y="220"/>
      <point x="236" y="352" type="curve" smooth="yes"/>
      <point x="236" y="474"/>
      <point x="350" y="594"/>
      <point x="524" y="594" type="curve" smooth="yes"/>
      <point x="700" y="594"/>
      <point x="812" y="474"/>
      <point x="812" y="352" type="curve" smooth="yes"/>
      <point x="812" y="220"/>
      <point x="686" y="108"/>
    </contour>
  </outline>
</glyph>
<glyph name="colon" format="2">
  <advance width="1050"/>
  <unicode hex="003A"/>
  <outline>
    <contour>
      <point x="652" y="734" type="curve" smooth="yes"/>
      <point x="652" y="808"/>
      <point x="590" y="862"/>
      <point x="526" y="862" type="curve" smooth="yes"/>
      <point x="452" y="862"/>
      <point x="398" y="800"/>
      <point x="398" y="736" type="curve" smooth="yes"/>
      <point x="398" y="662"/>
      <point x="460" y="608"/>
      <point x="524" y="608" type="curve" smooth="yes"/>
      <point x="598" y="608"/>
      <point x="652" y="670"/>
    </contour>
    <contour>
      <point x="652" y="126" type="curve" smooth="yes"/>
      <point x="652" y="200"/>
      <point x="590" y="254"/>
      <point x="526" y="254" type="curve" smooth="yes"/>
      <point x="452" y="254"/>
      <point x="398" y="192"/>
      <point x="398" y="128" type="curve" smooth="yes"/>
      <point x="398" y="54"/>
      <point x="460" y="0"/>
      <point x="524" y="0" type="curve" smooth="yes"/>
      <point x="598" y="0"/>
      <point x="652" y="62"/>
    </contour>
  </outline>
</glyph>
<glyph name="semicolon" format="2">
  <advance width="1050"/>
  <unicode hex="003B"/>
  <outline>
    <contour>
      <point x="652" y="734" type="curve" smooth="yes"/>
      <point x="652" y="808"/>
      <point x="590" y="862"/>
      <point x="526" y="862" type="curve" smooth="yes"/>
      <point x="452" y="862"/>
      <point x="398" y="800"/>
      <point x="398" y="736" type="curve" smooth="yes"/>
      <point x="398" y="662"/>
      <point x="460" y="608"/>
      <point x="524" y="608" type="curve" smooth="yes"/>
      <point x="598" y="608"/>
      <point x="652" y="670"/>
    </contour>
    <contour>
      <point x="526" y="0" type="curve"/>
      <point x="508" y="-68"/>
      <point x="460" y="-124"/>
      <point x="400" y="-154" type="curve"/>
      <point x="386" y="-160"/>
      <point x="356" y="-174"/>
      <point x="356" y="-212" type="curve" smooth="yes"/>
      <point x="356" y="-242"/>
      <point x="386" y="-278"/>
      <point x="424" y="-278" type="curve" smooth="yes"/>
      <point x="468" y="-278"/>
      <point x="662" y="-170"/>
      <point x="662" y="56" type="curve" smooth="yes"/>
      <point x="662" y="178"/>
      <point x="608" y="254"/>
      <point x="524" y="254" type="curve" smooth="yes"/>
      <point x="452" y="254"/>
      <point x="398" y="198"/>
      <point x="398" y="128" type="curve" smooth="yes"/>
      <point x="398" y="80"/>
      <point x="426" y="4"/>
    </contour>
  </outline>
</glyph>
<glyph name="less" format="2">
  <advance width="1050"/>
  <unicode hex="003C"/>
  <outline>
    <contour>
      <point x="326" y="610" type="line"/>
      <point x="888" y="970" type="line" smooth="yes"/>
      <point x="908" y="984"/>
      <point x="936" y="1000"/>
      <point x="936" y="1042" type="curve" smooth="yes"/>
      <point x="936" y="1092"/>
      <point x="892" y="1118"/>
      <point x="862" y="1118" type="curve" smooth="yes"/>
      <point x="858" y="1118"/>
      <point x="836" y="1118"/>
      <point x="804" y="1096" type="curve" smooth="yes"/>
      <point x="158" y="680" type="line" smooth="yes"/>
      <point x="134" y="664"/>
      <point x="112" y="650"/>
      <point x="112" y="610" type="curve" smooth="yes"/>
      <point x="112" y="570"/>
      <point x="140" y="552"/>
      <point x="156" y="542" type="curve" smooth="yes"/>
      <point x="828" y="112" type="line"/>
      <point x="842" y="106"/>
      <point x="858" y="104"/>
      <point x="860" y="104" type="curve" smooth="yes"/>
      <point x="896" y="104"/>
      <point x="936" y="134"/>
      <point x="936" y="180" type="curve" smooth="yes"/>
      <point x="936" y="220"/>
      <point x="910" y="238"/>
      <point x="890" y="252" type="curve" smooth="yes"/>
    </contour>
  </outline>
</glyph>
<glyph name="equal" format="2">
  <advance width="1050"/>
  <unicode hex="003D"/>
  <outline>
    <contour>
      <point x="880" y="688" type="line" smooth="yes"/>
      <point x="902" y="688"/>
      <point x="974" y="688"/>
      <point x="974" y="762" type="curve" smooth="yes"/>
      <point x="974" y="838"/>
      <point x="896" y="838"/>
      <point x="868" y="838" type="curve" smooth="yes"/>
      <point x="180" y="838" type="line" smooth="yes"/>
      <point x="152" y="838"/>
      <point x="74" y="838"/>
      <point x="74" y="762" type="curve" smooth="yes"/>
      <point x="74" y="688"/>
      <point x="146" y="688"/>
      <point x="168" y="688" type="curve" smooth="yes"/>
    </contour>
    <contour>
      <point x="868" y="384" type="line" smooth="yes"/>
      <point x="896" y="384"/>
      <point x="974" y="384"/>
      <point x="974" y="460" type="curve" smooth="yes"/>
      <point x="974" y="534"/>
      <point x="902" y="534"/>
      <point x="880" y="534" type="curve" smooth="yes"/>
      <point x="168" y="534" type="line" smooth="yes"/>
      <point x="146" y="534"/>
      <point x="74" y="534"/>
      <point x="74" y="460" type="curve" smooth="yes"/>
      <point x="74" y="384"/>
      <point x="152" y="384"/>
      <point x="180" y="384" type="curve" smooth="yes"/>
    </contour>
  </outline>
</glyph>
<glyph name="greater" format="2">
  <advance width="1050"/>
  <unicode hex="003E"/>
  <outline>
    <contour>
      <point x="722" y="612" type="line"/>
      <point x="136" y="236" type="line"/>
      <point x="128" y="230"/>
      <point x="112" y="218"/>
      <point x="112" y="180" type="curve" smooth="yes"/>
      <point x="112" y="130"/>
      <point x="156" y="104"/>
      <point x="186" y="104" type="curve" smooth="yes"/>
      <point x="196" y="104"/>
      <point x="206" y="108"/>
      <point x="218" y="112" type="curve"/>
      <point x="890" y="542" type="line" smooth="yes"/>
      <point x="914" y="558"/>
      <point x="936" y="572"/>
      <point x="936" y="612" type="curve" smooth="yes"/>
      <point x="936" y="652"/>
      <point x="908" y="670"/>
      <point x="892" y="680" type="curve" smooth="yes"/>
      <point x="220" y="1110" type="line"/>
      <point x="206" y="1116"/>
      <point x="190" y="1118"/>
      <point x="188" y="1118" type="curve" smooth="yes"/>
      <point x="152" y="1118"/>
      <point x="112" y="1088"/>
      <point x="112" y="1042" type="curve" smooth="yes"/>
      <point x="112" y="1002"/>
      <point x="138" y="984"/>
      <point x="158" y="970" type="curve" smooth="yes"/>
    </contour>
  </outline>
</glyph>
<glyph name="question" format="2">
  <advance width="1050"/>
  <unicode hex="003F"/>
  <outline>
    <contour>
      <point x="576" y="488" type="line" smooth="yes"/>
      <point x="576" y="578"/>
      <point x="600" y="684"/>
      <point x="798" y="792" type="curve" smooth="yes"/>
      <point x="888" y="842"/>
      <point x="924" y="916"/>
      <point x="924" y="982" type="curve" smooth="yes"/>
      <point x="924" y="1008"/>
      <point x="924" y="1232"/>
      <point x="504" y="1232" type="curve" smooth="yes"/>
      <point x="224" y="1232"/>
      <point x="124" y="1102"/>
      <point x="124" y="986" type="curve" smooth="yes"/>
      <point x="124" y="926"/>
      <point x="168" y="890"/>
      <point x="218" y="890" type="curve" smooth="yes"/>
      <point x="268" y="890"/>
      <point x="310" y="930"/>
      <point x="310" y="982" type="curve" smooth="yes"/>
      <point x="310" y="1016"/>
      <point x="302" y="1026"/>
      <point x="294" y="1038" type="curve"/>
      <point x="350" y="1100"/>
      <point x="462" y="1102"/>
      <point x="504" y="1102" type="curve" smooth="yes"/>
      <point x="686" y="1102"/>
      <point x="776" y="1050"/>
      <point x="776" y="982" type="curve" smooth="yes"/>
      <point x="776" y="936"/>
      <point x="738" y="916"/>
      <point x="692" y="890" type="curve" smooth="yes"/>
      <point x="412" y="732"/>
      <point x="412" y="558"/>
      <point x="412" y="476" type="curve" smooth="yes"/>
      <point x="412" y="406"/>
      <point x="412" y="370"/>
      <point x="494" y="370" type="curve" smooth="yes"/>
      <point x="576" y="370"/>
      <point x="576" y="412"/>
      <point x="576" y="456" type="curve" smooth="yes"/>
    </contour>
    <contour>
      <point x="596" y="102" type="curve" smooth="yes"/>
      <point x="596" y="158"/>
      <point x="550" y="204"/>
      <point x="494" y="204" type="curve" smooth="yes"/>
      <point x="438" y="204"/>
      <point x="392" y="158"/>
      <point x="392" y="102" type="curve" smooth="yes"/>
      <point x="392" y="46"/>
      <point x="438" y="0"/>
      <point x="494" y="0" type="curve" smooth="yes"/>
      <point x="550" y="0"/>
      <point x="596" y="46"/>
    </contour>
  </outline>
</glyph>
<glyph name="at" format="2">
	<unicode hex="0040"/>
	<advance width="525"/>
	<outline>
		<contour>
			<point x="394" y="488" type="curve"/>
			<point x="381" y="496"/>
			<point x="360" y="505"/>
			<point x="335" y="505" type="curve" smooth="yes"/>
			<point x="253" y="505"/>
			<point x="189" y="417"/>
			<point x="189" y="306" type="curve" smooth="yes"/>
			<point x="189" y="188"/>
			<point x="258" y="106"/>
			<point x="334" y="106" type="curve" smooth="yes"/>
			<point x="384" y="106"/>
			<point x="480" y="149"/>
			<point x="480" y="321" type="curve" smooth="yes"/>
			<point x="480" y="385"/>
			<point x="480" y="616"/>
			<point x="304" y="616" type="curve" smooth="yes"/>
			<point x="167" y="616"/>
			<point x="44" y="484"/>
			<point x="44" y="306" type="curve" smooth="yes"/>
			<point x="44" y="129"/>
			<point x="165" y="-5"/>
			<point x="306" y="-5" type="curve" smooth="yes"/>
			<point x="396" y="-5"/>
			<point x="480" y="53"/>
			<point x="480" y="83" type="curve" smooth="yes"/>
			<point x="480" y="113"/>
			<point x="450" y="113"/>
			<point x="440" y="113" type="curve" smooth="yes"/>
			<point x="422" y="113"/>
			<point x="419" y="113"/>
			<point x="405" y="100" type="curve" smooth="yes"/>
			<point x="381" y="77"/>
			<point x="345" y="60"/>
			<point x="305" y="60" type="curve" smooth="yes"/>
			<point x="200" y="60"/>
			<point x="104" y="165"/>
			<point x="104" y="305" type="curve" smooth="yes"/>
			<point x="104" y="452"/>
			<point x="204" y="551"/>
			<point x="304" y="551" type="curve" smooth="yes"/>
			<point x="347" y="551"/>
			<point x="380" y="525"/>
		</contour>
		<contour>
			<point x="335" y="171" type="curve" smooth="yes"/>
			<point x="289" y="171"/>
			<point x="249" y="230"/>
			<point x="249" y="305" type="curve" smooth="yes"/>
			<point x="249" y="386"/>
			<point x="293" y="440"/>
			<point x="334" y="440" type="curve" smooth="yes"/>
			<point x="380" y="440"/>
			<point x="420" y="381"/>
			<point x="420" y="306" type="curve" smooth="yes"/>
			<point x="420" y="225"/>
			<point x="376" y="171"/>
		</contour>
	</outline>
</glyph>
<glyph name="A" format="2">
  <advance width="525"/>
  <unicode hex="0041"/>
  <outline>
    <contour>
      <point x="318" y="586" type="line" smooth="yes"/>
      <point x="311" y="616"/>
      <point x="301" y="625"/>
      <point x="267" y="625" type="curve" smooth="yes"/>
      <point x="257" y="625" type="line" smooth="yes"/>
      <point x="223" y="625"/>
      <point x="213" y="617"/>
      <point x="206" y="586" type="curve" smooth="yes"/>
      <point x="88" y="65" type="line"/>
      <point x="70" y="65" type="line" smooth="yes"/>
      <point x="55" y="65"/>
      <point x="28" y="65"/>
      <point x="28" y="33" type="curve" smooth="yes"/>
      <point x="28" y="0"/>
      <point x="54" y="0"/>
      <point x="70" y="0" type="curve" smooth="yes"/>
      <point x="179" y="0" type="line" smooth="yes"/>
      <point x="194" y="0"/>
      <point x="221" y="0"/>
      <point x="221" y="32" type="curve" smooth="yes"/>
      <point x="221" y="65"/>
      <point x="199" y="65"/>
      <point x="164" y="65" type="curve"/>
      <point x="185" y="159" type="line"/>
      <point x="339" y="159" type="line"/>
      <point x="360" y="65" type="line"/>
      <point x="325" y="65"/>
      <point x="303" y="65"/>
      <point x="303" y="32" type="curve" smooth="yes"/>
      <point x="303" y="0"/>
      <point x="330" y="0"/>
      <point x="345" y="0" type="curve" smooth="yes"/>
      <point x="454" y="0" type="line" smooth="yes"/>
      <point x="469" y="0"/>
      <point x="496" y="0"/>
      <point x="496" y="32" type="curve" smooth="yes"/>
      <point x="496" y="65"/>
      <point x="470" y="65"/>
      <point x="454" y="65" type="curve" smooth="yes"/>
      <point x="436" y="65" type="line"/>
    </contour>
    <contour>
      <point x="324" y="224" type="line"/>
      <point x="199" y="224" type="line"/>
      <point x="225" y="339"/>
      <point x="258" y="493"/>
      <point x="262" y="532" type="curve"/>
      <point x="263" y="532" type="line"/>
      <point x="265" y="509"/>
      <point x="275" y="461"/>
      <point x="276" y="454" type="curve"/>
    </contour>
  </outline>
</glyph>
<glyph name="B" format="2">
  <advance width="1050"/>
  <unicode hex="0042"/>
  <outline>
    <contour>
      <point x="126" y="1222" type="line" smooth="yes"/>
      <point x="96" y="1222"/>
      <point x="40" y="1222"/>
      <point x="40" y="1158" type="curve" smooth="yes"/>
      <point x="40" y="1092"/>
      <point x="94" y="1092"/>
      <point x="126" y="1092" type="curve" smooth="yes"/>
      <point x="178" y="1092" type="line"/>
      <point x="178" y="130" type="line"/>
      <point x="126" y="130" type="line" smooth="yes"/>
      <point x="96" y="130"/>
      <point x="40" y="130"/>
      <point x="40" y="66" type="curve" smooth="yes"/>
      <point x="40" y="0"/>
      <point x="94" y="0"/>
      <point x="126" y="0" type="curve" smooth="yes"/>
      <point x="618" y="0" type="line" smooth="yes"/>
      <point x="846" y="0"/>
      <point x="964" y="182"/>
      <point x="964" y="336" type="curve" smooth="yes"/>
      <point x="964" y="454"/>
      <point x="890" y="592"/>
      <point x="710" y="642" type="curve"/>
      <point x="862" y="694"/>
      <point x="922" y="812"/>
      <point x="922" y="910" type="curve" smooth="yes"/>
      <point x="922" y="1058"/>
      <point x="800" y="1222"/>
      <point x="578" y="1222" type="curve" smooth="yes"/>
    </contour>
    <contour>
      <point x="326" y="700" type="line"/>
      <point x="326" y="1092" type="line"/>
      <point x="570" y="1092" type="line" smooth="yes"/>
      <point x="734" y="1092"/>
      <point x="774" y="970"/>
      <point x="774" y="908" type="curve" smooth="yes"/>
      <point x="774" y="836"/>
      <point x="720" y="700"/>
      <point x="526" y="700" type="curve" smooth="yes"/>
    </contour>
    <contour>
      <point x="326" y="130" type="line"/>
      <point x="326" y="570" type="line"/>
      <point x="596" y="570" type="line" smooth="yes"/>
      <point x="760" y="570"/>
      <point x="816" y="428"/>
      <point x="816" y="340" type="curve" smooth="yes"/>
      <point x="816" y="244"/>
      <point x="742" y="130"/>
      <point x="574" y="130" type="curve" smooth="yes"/>
    </contour>
  </outline>
</glyph>
<glyph name="C" format="2">
  <advance width="525"/>
  <unicode hex="0043"/>
  <outline>
    <contour>
      <point x="484" y="580" type="line" smooth="yes"/>
      <point x="484" y="595"/>
      <point x="484" y="622"/>
      <point x="452" y="622" type="curve" smooth="yes"/>
      <point x="430" y="622"/>
      <point x="424" y="610"/>
      <point x="408" y="576" type="curve"/>
      <point x="385" y="595"/>
      <point x="340" y="622"/>
      <point x="281" y="622" type="curve" smooth="yes"/>
      <point x="151" y="622"/>
      <point x="40" y="486"/>
      <point x="40" y="306" type="curve" smooth="yes"/>
      <point x="40" y="126"/>
      <point x="150" y="-11"/>
      <point x="282" y="-11" type="curve" smooth="yes"/>
      <point x="395" y="-11"/>
      <point x="484" y="74"/>
      <point x="484" y="169" type="curve" smooth="yes"/>
      <point x="484" y="203"/>
      <point x="457" y="203"/>
      <point x="447" y="203" type="curve" smooth="yes"/>
      <point x="442" y="203"/>
      <point x="412" y="203"/>
      <point x="410" y="177" type="curve" smooth="yes"/>
      <point x="402" y="56"/>
      <point x="297" y="54"/>
      <point x="286" y="54" type="curve" smooth="yes"/>
      <point x="196" y="54"/>
      <point x="114" y="161"/>
      <point x="114" y="305" type="curve" smooth="yes"/>
      <point x="114" y="454"/>
      <point x="199" y="557"/>
      <point x="285" y="557" type="curve" smooth="yes"/>
      <point x="307" y="557"/>
      <point x="391" y="548"/>
      <point x="410" y="424" type="curve" smooth="yes"/>
      <point x="414" y="399"/>
      <point x="439" y="399"/>
      <point x="447" y="399" type="curve" smooth="yes"/>
      <point x="484" y="399"/>
      <point x="484" y="422"/>
      <point x="484" y="441" type="curve" smooth="yes"/>
    </contour>
  </outline>
</glyph>
<glyph name="D" format="2">
  <advance width="1050"/>
  <unicode hex="0044"/>
  <outline>
    <contour>
      <point x="118" y="1222" type="line" smooth="yes"/>
      <point x="88" y="1222"/>
      <point x="32" y="1222"/>
      <point x="32" y="1158" type="curve" smooth="yes"/>
      <point x="32" y="1092"/>
      <point x="86" y="1092"/>
      <point x="118" y="1092" type="curve" smooth="yes"/>
      <point x="160" y="1092" type="line"/>
      <point x="160" y="130" type="line"/>
      <point x="118" y="130" type="line" smooth="yes"/>
      <point x="88" y="130"/>
      <point x="32" y="130"/>
      <point x="32" y="66" type="curve" smooth="yes"/>
      <point x="32" y="0"/>
      <point x="86" y="0"/>
      <point x="118" y="0" type="curve" smooth="yes"/>
      <point x="532" y="0" type="line" smooth="yes"/>
      <point x="794" y="0"/>
      <point x="970" y="282"/>
      <point x="970" y="602" type="curve" smooth="yes"/>
      <point x="970" y="922"/>
      <point x="798" y="1222"/>
      <point x="532" y="1222" type="curve" smooth="yes"/>
    </contour>
    <contour>
      <point x="308" y="130" type="line"/>
      <point x="308" y="1092" type="line"/>
      <point x="490" y="1092" type="line" smooth="yes"/>
      <point x="718" y="1092"/>
      <point x="822" y="824"/>
      <point x="822" y="602" type="curve" smooth="yes"/>
      <point x="822" y="370"/>
      <point x="706" y="130"/>
      <point x="492" y="130" type="curve" smooth="yes"/>
    </contour>
  </outline>
</glyph>
<glyph name="E" format="2">
  <advance width="1050"/>
  <unicode hex="0045"/>
  <outline>
    <contour>
      <point x="336" y="568" type="line"/>
      <point x="588" y="568" type="line"/>
      <point x="588" y="492"/>
      <point x="588" y="454"/>
      <point x="662" y="454" type="curve" smooth="yes"/>
      <point x="736" y="454"/>
      <point x="736" y="500"/>
      <point x="736" y="538" type="curve" smooth="yes"/>
      <point x="736" y="728" type="line" smooth="yes"/>
      <point x="736" y="766"/>
      <point x="736" y="812"/>
      <point x="662" y="812" type="curve" smooth="yes"/>
      <point x="588" y="812"/>
      <point x="588" y="774"/>
      <point x="588" y="698" type="curve"/>
      <point x="336" y="698" type="line"/>
      <point x="336" y="1092" type="line"/>
      <point x="812" y="1092" type="line"/>
      <point x="812" y="984" type="line" smooth="yes"/>
      <point x="812" y="946"/>
      <point x="812" y="900"/>
      <point x="886" y="900" type="curve" smooth="yes"/>
      <point x="960" y="900"/>
      <point x="960" y="946"/>
      <point x="960" y="984" type="curve" smooth="yes"/>
      <point x="960" y="1138" type="line" smooth="yes"/>
      <point x="960" y="1204"/>
      <point x="944" y="1222"/>
      <point x="876" y="1222" type="curve" smooth="yes"/>
      <point x="130" y="1222" type="line" smooth="yes"/>
      <point x="100" y="1222"/>
      <point x="44" y="1222"/>
      <point x="44" y="1158" type="curve" smooth="yes"/>
      <point x="44" y="1092"/>
      <point x="98" y="1092"/>
      <point x="130" y="1092" type="curve" smooth="yes"/>
      <point x="188" y="1092" type="line"/>
      <point x="188" y="130" type="line"/>
      <point x="130" y="130" type="line" smooth="yes"/>
      <point x="100" y="130"/>
      <point x="44" y="130"/>
      <point x="44" y="66" type="curve" smooth="yes"/>
      <point x="44" y="0"/>
      <point x="98" y="0"/>
      <point x="130" y="0" type="curve" smooth="yes"/>
      <point x="920" y="0" type="line" smooth="yes"/>
      <point x="986" y="0"/>
      <point x="1004" y="16"/>
      <point x="1004" y="84" type="curve" smooth="yes"/>
      <point x="1004" y="270" type="line" smooth="yes"/>
      <point x="1004" y="308"/>
      <point x="1004" y="354"/>
      <point x="930" y="354" type="curve" smooth="yes"/>
      <point x="856" y="354"/>
      <point x="856" y="308"/>
      <point x="856" y="270" type="curve" smooth="yes"/>
      <point x="856" y="130" type="line"/>
      <point x="336" y="130" type="line"/>
    </contour>
  </outline>
</glyph>
<glyph name="F" format="2">
	<unicode hex="0046"/>
	<advance width="525"/>
	<outline>
		<contour>
			<point x="174" y="273" type="line"/>
			<point x="304" y="273" type="line"/>
			<point x="304" y="235"/>
			<point x="304" y="216"/>
			<point x="341" y="216" type="curve" smooth="yes"/>
			<point x="378" y="216"/>
			<point x="378" y="239"/>
			<point x="378" y="258" type="curve" smooth="yes"/>
			<point x="378" y="353" type="line" smooth="yes"/>
			<point x="378" y="372"/>
			<point x="378" y="395"/>
			<point x="341" y="395" type="curve" smooth="yes"/>
			<point x="304" y="395"/>
			<point x="304" y="376"/>
			<point x="304" y="338" type="curve"/>
			<point x="174" y="338" type="line"/>
			<point x="174" y="546" type="line"/>
			<point x="416" y="546" type="line"/>
			<point x="416" y="492" type="line" smooth="yes"/>
			<point x="416" y="473"/>
			<point x="416" y="450"/>
			<point x="453" y="450" type="curve" smooth="yes"/>
			<point x="490" y="450"/>
			<point x="490" y="473"/>
			<point x="490" y="492" type="curve" smooth="yes"/>
			<point x="490" y="569" type="line" smooth="yes"/>
			<point x="490" y="602"/>
			<point x="482" y="611"/>
			<point x="448" y="611" type="curve" smooth="yes"/>
			<point x="68" y="611" type="line" smooth="yes"/>
			<point x="52" y="611"/>
			<point x="25" y="611"/>
			<point x="25" y="578" type="curve" smooth="yes"/>
			<point x="25" y="546"/>
			<point x="53" y="546"/>
			<point x="68" y="546" type="curve" smooth="yes"/>
			<point x="100" y="546" type="line"/>
			<point x="100" y="65" type="line"/>
			<point x="68" y="65" type="line" smooth="yes"/>
			<point x="52" y="65"/>
			<point x="25" y="65"/>
			<point x="25" y="32" type="curve" smooth="yes"/>
			<point x="25" y="0"/>
			<point x="53" y="0"/>
			<point x="68" y="0" type="curve" smooth="yes"/>
			<point x="225" y="0" type="line" smooth="yes"/>
			<point x="239" y="0"/>
			<point x="268" y="0"/>
			<point x="268" y="32" type="curve" smooth="yes"/>
			<point x="268" y="65"/>
			<point x="240" y="65"/>
			<point x="225" y="65" type="curve" smooth="yes"/>
			<point x="174" y="65" type="line"/>
		</contour>
	</outline>
</glyph>
<glyph name="G" format="2">
	<unicode hex="0047"/>
	<advance width="525"/>
	<outline>
		<contour>
			<point x="449" y="206" type="line"/>
			<point x="470" y="206"/>
			<point x="496" y="206"/>
			<point x="496" y="239" type="curve" smooth="yes"/>
			<point x="496" y="271"/>
			<point x="468" y="271"/>
			<point x="453" y="271" type="curve" smooth="yes"/>
			<point x="333" y="271" type="line" smooth="yes"/>
			<point x="318" y="271"/>
			<point x="291" y="271"/>
			<point x="291" y="239" type="curve" smooth="yes"/>
			<point x="291" y="206"/>
			<point x="317" y="206"/>
			<point x="333" y="206" type="curve" smooth="yes"/>
			<point x="373" y="206" type="line"/>
			<point x="365" y="127"/>
			<point x="330" y="54"/>
			<point x="263" y="54" type="curve" smooth="yes"/>
			<point x="187" y="54"/>
			<point x="111" y="158"/>
			<point x="111" y="305" type="curve" smooth="yes"/>
			<point x="111" y="454"/>
			<point x="188" y="557"/>
			<point x="264" y="557" type="curve" smooth="yes"/>
			<point x="318" y="557"/>
			<point x="364" y="509"/>
			<point x="375" y="432" type="curve" smooth="yes"/>
			<point x="377" y="417"/>
			<point x="379" y="399"/>
			<point x="412" y="399" type="curve" smooth="yes"/>
			<point x="449" y="399"/>
			<point x="449" y="422"/>
			<point x="449" y="441" type="curve" smooth="yes"/>
			<point x="449" y="580" type="line" smooth="yes"/>
			<point x="449" y="595"/>
			<point x="449" y="622"/>
			<point x="417" y="622" type="curve" smooth="yes"/>
			<point x="399" y="622"/>
			<point x="391" y="613"/>
			<point x="382" y="594" type="curve" smooth="yes"/>
			<point x="375" y="579" type="line"/>
			<point x="352" y="598"/>
			<point x="315" y="622"/>
			<point x="260" y="622" type="curve" smooth="yes"/>
			<point x="140" y="622"/>
			<point x="37" y="487"/>
			<point x="37" y="306" type="curve" smooth="yes"/>
			<point x="37" y="121"/>
			<point x="141" y="-11"/>
			<point x="260" y="-11" type="curve" smooth="yes"/>
			<point x="318" y="-11"/>
			<point x="358" y="20"/>
			<point x="375" y="37" type="curve"/>
			<point x="375" y="11"/>
			<point x="385" y="0"/>
			<point x="412" y="0" type="curve" smooth="yes"/>
			<point x="449" y="0"/>
			<point x="449" y="23"/>
			<point x="449" y="42" type="curve" smooth="yes"/>
		</contour>
	</outline>
</glyph>
<glyph name="H" format="2">
  <advance width="1050"/>
  <unicode hex="0048"/>
  <outline>
    <contour>
      <point x="880" y="1092" type="line"/>
      <point x="928" y="1092" type="line" smooth="yes"/>
      <point x="958" y="1092"/>
      <point x="1012" y="1092"/>
      <point x="1012" y="1156" type="curve" smooth="yes"/>
      <point x="1012" y="1222"/>
      <point x="960" y="1222"/>
      <point x="928" y="1222" type="curve" smooth="yes"/>
      <point x="684" y="1222" type="line" smooth="yes"/>
      <point x="652" y="1222"/>
      <point x="600" y="1222"/>
      <point x="600" y="1156" type="curve" smooth="yes"/>
      <point x="600" y="1092"/>
      <point x="654" y="1092"/>
      <point x="684" y="1092" type="curve" smooth="yes"/>
      <point x="732" y="1092" type="line"/>
      <point x="732" y="700" type="line"/>
      <point x="316" y="700" type="line"/>
      <point x="316" y="1092" type="line"/>
      <point x="364" y="1092" type="line" smooth="yes"/>
      <point x="394" y="1092"/>
      <point x="448" y="1092"/>
      <point x="448" y="1156" type="curve" smooth="yes"/>
      <point x="448" y="1222"/>
      <point x="396" y="1222"/>
      <point x="364" y="1222" type="curve" smooth="yes"/>
      <point x="120" y="1222" type="line" smooth="yes"/>
      <point x="90" y="1222"/>
      <point x="36" y="1222"/>
      <point x="36" y="1158" type="curve" smooth="yes"/>
      <point x="36" y="1092"/>
      <point x="88" y="1092"/>
      <point x="120" y="1092" type="curve" smooth="yes"/>
      <point x="168" y="1092" type="line"/>
      <point x="168" y="130" type="line"/>
      <point x="120" y="130" type="line" smooth="yes"/>
      <point x="90" y="130"/>
      <point x="36" y="130"/>
      <point x="36" y="66" type="curve" smooth="yes"/>
      <point x="36" y="0"/>
      <point x="88" y="0"/>
      <point x="120" y="0" type="curve" smooth="yes"/>
      <point x="364" y="0" type="line" smooth="yes"/>
      <point x="394" y="0"/>
      <point x="448" y="0"/>
      <point x="448" y="64" type="curve" smooth="yes"/>
      <point x="448" y="130"/>
      <point x="396" y="130"/>
      <point x="364" y="130" type="curve" smooth="yes"/>
      <point x="316" y="130" type="line"/>
      <point x="316" y="570" type="line"/>
      <point x="732" y="570" type="line"/>
      <point x="732" y="130" type="line"/>
      <point x="684" y="130" type="line" smooth="yes"/>
      <point x="652" y="130"/>
      <point x="600" y="130"/>
      <point x="600" y="64" type="curve" smooth="yes"/>
      <point x="600" y="0"/>
      <point x="654" y="0"/>
      <point x="684" y="0" type="curve" smooth="yes"/>
      <point x="928" y="0" type="line" smooth="yes"/>
      <point x="958" y="0"/>
      <point x="1012" y="0"/>
      <point x="1012" y="64" type="curve" smooth="yes"/>
      <point x="1012" y="130"/>
      <point x="960" y="130"/>
      <point x="928" y="130" type="curve" smooth="yes"/>
      <point x="880" y="130" type="line"/>
    </contour>
  </outline>
</glyph>
<glyph name="I" format="2">
  <advance width="1050"/>
  <unicode hex="0049"/>
  <outline>
    <contour>
      <point x="598" y="1092" type="line"/>
      <point x="814" y="1092" type="line" smooth="yes"/>
      <point x="842" y="1092"/>
      <point x="900" y="1092"/>
      <point x="900" y="1156" type="curve" smooth="yes"/>
      <point x="900" y="1222"/>
      <point x="844" y="1222"/>
      <point x="814" y="1222" type="curve" smooth="yes"/>
      <point x="234" y="1222" type="line" smooth="yes"/>
      <point x="206" y="1222"/>
      <point x="148" y="1222"/>
      <point x="148" y="1158" type="curve" smooth="yes"/>
      <point x="148" y="1092"/>
      <point x="204" y="1092"/>
      <point x="234" y="1092" type="curve" smooth="yes"/>
      <point x="450" y="1092" type="line"/>
      <point x="450" y="130" type="line"/>
      <point x="234" y="130" type="line" smooth="yes"/>
      <point x="206" y="130"/>
      <point x="148" y="130"/>
      <point x="148" y="66" type="curve" smooth="yes"/>
      <point x="148" y="0"/>
      <point x="204" y="0"/>
      <point x="234" y="0" type="curve" smooth="yes"/>
      <point x="814" y="0" type="line" smooth="yes"/>
      <point x="842" y="0"/>
      <point x="900" y="0"/>
      <point x="900" y="64" type="curve" smooth="yes"/>
      <point x="900" y="130"/>
      <point x="844" y="130"/>
      <point x="814" y="130" type="curve" smooth="yes"/>
      <point x="598" y="130" type="line"/>
    </contour>
  </outline>
</glyph>
<glyph name="J" format="2">
	<unicode hex="004A"/>
	<advance width="525"/>
	<outline>
		<contour>
			<point x="407" y="546" type="line"/>
			<point x="436" y="546" type="line" smooth="yes"/>
			<point x="451" y="546"/>
			<point x="479" y="546"/>
			<point x="479" y="578" type="curve" smooth="yes"/>
			<point x="479" y="611"/>
			<point x="452" y="611"/>
			<point x="436" y="611" type="curve" smooth="yes"/>
			<point x="251" y="611" type="line" smooth="yes"/>
			<point x="235" y="611"/>
			<point x="209" y="611"/>
			<point x="209" y="578" type="curve" smooth="yes"/>
			<point x="209" y="546"/>
			<point x="236" y="546"/>
			<point x="251" y="546" type="curve" smooth="yes"/>
			<point x="333" y="546" type="line"/>
			<point x="333" y="139" type="line" smooth="yes"/>
			<point x="333" y="60"/>
			<point x="255" y="54"/>
			<point x="235" y="54" type="curve" smooth="yes"/>
			<point x="225" y="54"/>
			<point x="181" y="55"/>
			<point x="153" y="76" type="curve"/>
			<point x="157" y="82"/>
			<point x="160" y="87"/>
			<point x="160" y="102" type="curve" smooth="yes"/>
			<point x="160" y="126"/>
			<point x="142" y="148"/>
			<point x="114" y="148" type="curve" smooth="yes"/>
			<point x="86" y="148"/>
			<point x="67" y="128"/>
			<point x="67" y="100" type="curve" smooth="yes"/>
			<point x="67" y="34"/>
			<point x="134" y="-11"/>
			<point x="235" y="-11" type="curve" smooth="yes"/>
			<point x="321" y="-11"/>
			<point x="407" y="40"/>
			<point x="407" y="135" type="curve" smooth="yes"/>
		</contour>
	</outline>
</glyph>
<glyph name="K" format="2">
  <advance width="1050"/>
  <unicode hex="004B"/>
  <outline>
    <contour>
      <point x="554" y="714" type="line"/>
      <point x="854" y="1092" type="line"/>
      <point x="928" y="1092"/>
      <point x="970" y="1092"/>
      <point x="970" y="1158" type="curve" smooth="yes"/>
      <point x="970" y="1222"/>
      <point x="916" y="1222"/>
      <point x="886" y="1222" type="curve" smooth="yes"/>
      <point x="706" y="1222" type="line" smooth="yes"/>
      <point x="676" y="1222"/>
      <point x="620" y="1222"/>
      <point x="620" y="1156" type="curve" smooth="yes"/>
      <point x="620" y="1092"/>
      <point x="680" y="1092"/>
      <point x="700" y="1092" type="curve"/>
      <point x="294" y="580" type="line"/>
      <point x="294" y="1092" type="line"/>
      <point x="336" y="1092" type="line" smooth="yes"/>
      <point x="366" y="1092"/>
      <point x="422" y="1092"/>
      <point x="422" y="1156" type="curve" smooth="yes"/>
      <point x="422" y="1222"/>
      <point x="368" y="1222"/>
      <point x="336" y="1222" type="curve" smooth="yes"/>
      <point x="132" y="1222" type="line" smooth="yes"/>
      <point x="102" y="1222"/>
      <point x="46" y="1222"/>
      <point x="46" y="1158" type="curve" smooth="yes"/>
      <point x="46" y="1092"/>
      <point x="100" y="1092"/>
      <point x="132" y="1092" type="curve" smooth="yes"/>
      <point x="174" y="1092" type="line"/>
      <point x="174" y="130" type="line"/>
      <point x="132" y="130" type="line" smooth="yes"/>
      <point x="102" y="130"/>
      <point x="46" y="130"/>
      <point x="46" y="66" type="curve" smooth="yes"/>
      <point x="46" y="0"/>
      <point x="100" y="0"/>
      <point x="132" y="0" type="curve" smooth="yes"/>
      <point x="336" y="0" type="line" smooth="yes"/>
      <point x="366" y="0"/>
      <point x="422" y="0"/>
      <point x="422" y="64" type="curve" smooth="yes"/>
      <point x="422" y="130"/>
      <point x="368" y="130"/>
      <point x="336" y="130" type="curve" smooth="yes"/>
      <point x="294" y="130" type="line"/>
      <point x="294" y="386" type="line"/>
      <point x="474" y="612" type="line"/>
      <point x="746" y="130" type="line"/>
      <point x="724" y="130"/>
      <point x="666" y="130"/>
      <point x="666" y="66" type="curve" smooth="yes"/>
      <point x="666" y="0"/>
      <point x="720" y="0"/>
      <point x="752" y="0" type="curve" smooth="yes"/>
      <point x="906" y="0" type="line" smooth="yes"/>
      <point x="936" y="0"/>
      <point x="990" y="0"/>
      <point x="990" y="64" type="curve" smooth="yes"/>
      <point x="990" y="130"/>
      <point x="944" y="130"/>
      <point x="884" y="130" type="curve"/>
    </contour>
  </outline>
</glyph>
<glyph name="L" format="2">
  <advance width="1050"/>
  <unicode hex="004C"/>
  <outline>
    <contour>
      <point x="360" y="1092" type="line"/>
      <point x="470" y="1092" type="line" smooth="yes"/>
      <point x="500" y="1092"/>
      <point x="556" y="1092"/>
      <point x="556" y="1156" type="curve" smooth="yes"/>
      <point x="556" y="1222"/>
      <point x="502" y="1222"/>
      <point x="470" y="1222" type="curve" smooth="yes"/>
      <point x="140" y="1222" type="line" smooth="yes"/>
      <point x="110" y="1222"/>
      <point x="56" y="1222"/>
      <point x="56" y="1158" type="curve" smooth="yes"/>
      <point x="56" y="1092"/>
      <point x="108" y="1092"/>
      <point x="140" y="1092" type="curve" smooth="yes"/>
      <point x="212" y="1092" type="line"/>
      <point x="212" y="130" type="line"/>
      <point x="140" y="130" type="line" smooth="yes"/>
      <point x="110" y="130"/>
      <point x="56" y="130"/>
      <point x="56" y="66" type="curve" smooth="yes"/>
      <point x="56" y="0"/>
      <point x="108" y="0"/>
      <point x="140" y="0" type="curve" smooth="yes"/>
      <point x="892" y="0" type="line" smooth="yes"/>
      <point x="958" y="0"/>
      <point x="976" y="16"/>
      <point x="976" y="84" type="curve" smooth="yes"/>
      <point x="976" y="268" type="line" smooth="yes"/>
      <point x="976" y="306"/>
      <point x="976" y="354"/>
      <point x="902" y="354" type="curve" smooth="yes"/>
      <point x="828" y="354"/>
      <point x="828" y="306"/>
      <point x="828" y="268" type="curve" smooth="yes"/>
      <point x="828" y="130" type="line"/>
      <point x="360" y="130" type="line"/>
    </contour>
  </outline>
</glyph>
<glyph name="M" format="2">
  <advance width="1050"/>
  <unicode hex="004D"/>
  <outline>
    <contour>
      <point x="256" y="130" type="curve"/>
      <point x="256" y="1064" type="line"/>
      <point x="258" y="1064" type="line"/>
      <point x="268" y="1016"/>
      <point x="286" y="958"/>
      <point x="304" y="900" type="curve" smooth="yes"/>
      <point x="349" y="761"/>
      <point x="395" y="623"/>
      <point x="440" y="484" type="curve" smooth="yes"/>
      <point x="448" y="460"/>
      <point x="464" y="408"/>
      <point x="524" y="408" type="curve" smooth="yes"/>
      <point x="584" y="408"/>
      <point x="600" y="460"/>
      <point x="608" y="484" type="curve" smooth="yes"/>
      <point x="734" y="870" type="line"/>
      <point x="734" y="872"/>
      <point x="780" y="1016"/>
      <point x="790" y="1064" type="curve"/>
      <point x="792" y="1064" type="line"/>
      <point x="792" y="130" type="line"/>
      <point x="732" y="130"/>
      <point x="684" y="130"/>
      <point x="684" y="64" type="curve" smooth="yes"/>
      <point x="684" y="0"/>
      <point x="740" y="0"/>
      <point x="770" y="0" type="curve" smooth="yes"/>
      <point x="934" y="0" type="line" smooth="yes"/>
      <point x="964" y="0"/>
      <point x="1020" y="0"/>
      <point x="1020" y="64" type="curve" smooth="yes"/>
      <point x="1020" y="130"/>
      <point x="972" y="130"/>
      <point x="912" y="130" type="curve"/>
      <point x="912" y="1092" type="line"/>
      <point x="972" y="1092"/>
      <point x="1020" y="1092"/>
      <point x="1020" y="1158" type="curve" smooth="yes"/>
      <point x="1020" y="1222"/>
      <point x="964" y="1222"/>
      <point x="934" y="1222" type="curve" smooth="yes"/>
      <point x="818" y="1222" type="line" smooth="yes"/>
      <point x="748" y="1222"/>
      <point x="728" y="1206"/>
      <point x="708" y="1146" type="curve" smooth="yes"/>
      <point x="590" y="786" type="line" smooth="yes"/>
      <point x="564" y="706"/>
      <point x="538" y="624"/>
      <point x="526" y="562" type="curve"/>
      <point x="524" y="562" type="line"/>
      <point x="512" y="620"/>
      <point x="492" y="682"/>
      <point x="470" y="748" type="curve" smooth="yes"/>
      <point x="340" y="1146" type="line" smooth="yes"/>
      <point x="320" y="1204"/>
      <point x="302" y="1222"/>
      <point x="230" y="1222" type="curve" smooth="yes"/>
      <point x="114" y="1222" type="line" smooth="yes"/>
      <point x="84" y="1222"/>
      <point x="28" y="1222"/>
      <point x="28" y="1158" type="curve" smooth="yes"/>
      <point x="28" y="1092"/>
      <point x="76" y="1092"/>
      <point x="136" y="1092" type="curve"/>
      <point x="136" y="130" type="line"/>
      <point x="76" y="130"/>
      <point x="28" y="130"/>
      <point x="28" y="64" type="curve" smooth="yes"/>
      <point x="28" y="0"/>
      <point x="84" y="0"/>
      <point x="114" y="0" type="curve" smooth="yes"/>
      <point x="278" y="0" type="line" smooth="yes"/>
      <point x="308" y="0"/>
      <point x="364" y="0"/>
      <point x="364" y="64" type="curve" smooth="yes"/>
      <point x="364" y="130"/>
      <point x="316" y="130"/>
    </contour>
  </outline>
</glyph>
<glyph name="N" format="2">
  <advance width="1050"/>
  <unicode hex="004E"/>
  <outline>
    <contour>
      <point x="614" y="1158" type="curve" smooth="yes"/>
      <point x="614" y="1092"/>
      <point x="666" y="1092"/>
      <point x="698" y="1092" type="curve" smooth="yes"/>
      <point x="746" y="1092" type="line"/>
      <point x="746" y="154" type="line"/>
      <point x="744" y="154" type="line"/>
      <point x="716" y="244"/>
      <point x="682" y="340"/>
      <point x="648" y="434" type="curve" smooth="yes"/>
      <point x="390" y="1146" type="line" smooth="yes"/>
      <point x="362" y="1222"/>
      <point x="320" y="1222"/>
      <point x="276" y="1222" type="curve" smooth="yes"/>
      <point x="134" y="1222" type="line" smooth="yes"/>
      <point x="104" y="1222"/>
      <point x="50" y="1222"/>
      <point x="50" y="1158" type="curve" smooth="yes"/>
      <point x="50" y="1092"/>
      <point x="102" y="1092"/>
      <point x="134" y="1092" type="curve" smooth="yes"/>
      <point x="182" y="1092" type="line"/>
      <point x="182" y="130" type="line"/>
      <point x="134" y="130" type="line" smooth="yes"/>
      <point x="104" y="130"/>
      <point x="50" y="130"/>
      <point x="50" y="66" type="curve" smooth="yes"/>
      <point x="50" y="0"/>
      <point x="102" y="0"/>
      <point x="134" y="0" type="curve" smooth="yes"/>
      <point x="350" y="0" type="line" smooth="yes"/>
      <point x="380" y="0"/>
      <point x="434" y="0"/>
      <point x="434" y="64" type="curve" smooth="yes"/>
      <point x="434" y="130"/>
      <point x="382" y="130"/>
      <point x="350" y="130" type="curve" smooth="yes"/>
      <point x="302" y="130" type="line"/>
      <point x="302" y="1068" type="line"/>
      <point x="304" y="1068" type="line"/>
      <point x="332" y="978"/>
      <point x="366" y="882"/>
      <point x="400" y="788" type="curve" smooth="yes"/>
      <point x="658" y="76" type="line" smooth="yes"/>
      <point x="686" y="0"/>
      <point x="728" y="0"/>
      <point x="776" y="0" type="curve" smooth="yes"/>
      <point x="830" y="0"/>
      <point x="866" y="2"/>
      <point x="866" y="84" type="curve" smooth="yes"/>
      <point x="866" y="1092" type="line"/>
      <point x="914" y="1092" type="line" smooth="yes"/>
      <point x="944" y="1092"/>
      <point x="998" y="1092"/>
      <point x="998" y="1156" type="curve" smooth="yes"/>
      <point x="998" y="1222"/>
      <point x="946" y="1222"/>
      <point x="914" y="1222" type="curve" smooth="yes"/>
      <point x="698" y="1222" type="line" smooth="yes"/>
      <point x="668" y="1222"/>
      <point x="614" y="1222"/>
    </contour>
  </outline>
</glyph>
<glyph name="O" format="2">
  <advance width="1050"/>
  <unicode hex="004F"/>
  <outline>
    <contour>
      <point x="936" y="610" type="curve" smooth="yes"/>
      <point x="936" y="1188"/>
      <point x="894" y="1244"/>
      <point x="524" y="1244" type="curve" smooth="yes"/>
      <point x="154" y="1244"/>
      <point x="112" y="1190"/>
      <point x="112" y="610" type="curve" smooth="yes"/>
      <point x="112" y="32"/>
      <point x="154" y="-22"/>
      <point x="524" y="-22" type="curve" smooth="yes"/>
      <point x="892" y="-22"/>
      <point x="936" y="32"/>
    </contour>
    <contour>
      <point x="524" y="108" type="curve" smooth="yes"/>
      <point x="352" y="108"/>
      <point x="306" y="152"/>
      <point x="284" y="244" type="curve" smooth="yes"/>
      <point x="260" y="348"/>
      <point x="260" y="508"/>
      <point x="260" y="628" type="curve" smooth="yes"/>
      <point x="260" y="754"/>
      <point x="260" y="898"/>
      <point x="284" y="988" type="curve" smooth="yes"/>
      <point x="310" y="1090"/>
      <point x="368" y="1114"/>
      <point x="524" y="1114" type="curve" smooth="yes"/>
      <point x="678" y="1114"/>
      <point x="740" y="1090"/>
      <point x="766" y="982" type="curve" smooth="yes"/>
      <point x="788" y="890"/>
      <point x="788" y="748"/>
      <point x="788" y="628" type="curve" smooth="yes"/>
      <point x="788" y="492"/>
      <point x="788" y="354"/>
      <point x="764" y="248" type="curve" smooth="yes"/>
      <point x="744" y="152"/>
      <point x="696" y="108"/>
    </contour>
  </outline>
</glyph>
<glyph name="P" format="2">
  <advance width="1050"/>
  <unicode hex="0050"/>
  <outline>
    <contour>
      <point x="336" y="482" type="line"/>
      <point x="580" y="482" type="line" smooth="yes"/>
      <point x="818" y="482"/>
      <point x="960" y="668"/>
      <point x="960" y="852" type="curve" smooth="yes"/>
      <point x="960" y="1036"/>
      <point x="818" y="1222"/>
      <point x="580" y="1222" type="curve" smooth="yes"/>
      <point x="130" y="1222" type="line" smooth="yes"/>
      <point x="100" y="1222"/>
      <point x="44" y="1222"/>
      <point x="44" y="1158" type="curve" smooth="yes"/>
      <point x="44" y="1092"/>
      <point x="98" y="1092"/>
      <point x="130" y="1092" type="curve" smooth="yes"/>
      <point x="188" y="1092" type="line"/>
      <point x="188" y="130" type="line"/>
      <point x="130" y="130" type="line" smooth="yes"/>
      <point x="100" y="130"/>
      <point x="44" y="130"/>
      <point x="44" y="66" type="curve" smooth="yes"/>
      <point x="44" y="0"/>
      <point x="98" y="0"/>
      <point x="130" y="0" type="curve" smooth="yes"/>
      <point x="394" y="0" type="line" smooth="yes"/>
      <point x="424" y="0"/>
      <point x="480" y="0"/>
      <point x="480" y="64" type="curve" smooth="yes"/>
      <point x="480" y="130"/>
      <point x="426" y="130"/>
      <point x="394" y="130" type="curve" smooth="yes"/>
      <point x="336" y="130" type="line"/>
    </contour>
    <contour>
      <point x="336" y="1092" type="line"/>
      <point x="540" y="1092" type="line" smooth="yes"/>
      <point x="730" y="1092"/>
      <point x="812" y="956"/>
      <point x="812" y="852" type="curve" smooth="yes"/>
      <point x="812" y="748"/>
      <point x="730" y="612"/>
      <point x="540" y="612" type="curve" smooth="yes"/>
      <point x="336" y="612" type="line"/>
    </contour>
  </outline>
</glyph>
<glyph name="Q" format="2">
  <advance width="1050"/>
  <unicode hex="0051"/>
  <outline>
    <contour>
      <point x="842" y="-278" type="line" smooth="yes"/>
      <point x="872" y="-278"/>
      <point x="908" y="-278"/>
      <point x="908" y="-236" type="curve" smooth="yes"/>
      <point x="908" y="-224"/>
      <point x="904" y="-218"/>
      <point x="850" y="-114" type="curve" smooth="yes"/>
      <point x="828" y="-73"/>
      <point x="806" y="-33"/>
      <point x="784" y="8" type="curve"/>
      <point x="874" y="48"/>
      <point x="908" y="124"/>
      <point x="924" y="276" type="curve" smooth="yes"/>
      <point x="936" y="384"/>
      <point x="936" y="518"/>
      <point x="936" y="610" type="curve" smooth="yes"/>
      <point x="936" y="1188"/>
      <point x="894" y="1244"/>
      <point x="524" y="1244" type="curve" smooth="yes"/>
      <point x="154" y="1244"/>
      <point x="112" y="1190"/>
      <point x="112" y="610" type="curve" smooth="yes"/>
      <point x="112" y="32"/>
      <point x="154" y="-22"/>
      <point x="524" y="-22" type="curve" smooth="yes"/>
      <point x="558" y="-22"/>
      <point x="600" y="-22"/>
      <point x="626" y="-20" type="curve"/>
      <point x="640" y="-46"/>
      <point x="740" y="-244"/>
      <point x="748" y="-256" type="curve" smooth="yes"/>
      <point x="764" y="-278"/>
      <point x="790" y="-278"/>
      <point x="818" y="-278" type="curve" smooth="yes"/>
    </contour>
    <contour>
      <point x="560" y="108" type="line"/>
      <point x="510" y="108" type="line" smooth="yes"/>
      <point x="318" y="108"/>
      <point x="292" y="176"/>
      <point x="274" y="290" type="curve" smooth="yes"/>
      <point x="260" y="384"/>
      <point x="260" y="518"/>
      <point x="260" y="610" type="curve" smooth="yes"/>
      <point x="260" y="724"/>
      <point x="260" y="866"/>
      <point x="278" y="962" type="curve" smooth="yes"/>
      <point x="302" y="1076"/>
      <point x="350" y="1114"/>
      <point x="524" y="1114" type="curve" smooth="yes"/>
      <point x="702" y="1114"/>
      <point x="748" y="1072"/>
      <point x="770" y="958" type="curve" smooth="yes"/>
      <point x="788" y="862"/>
      <point x="788" y="714"/>
      <point x="788" y="612" type="curve" smooth="yes"/>
      <point x="788" y="490"/>
      <point x="786" y="398"/>
      <point x="778" y="328" type="curve" smooth="yes"/>
      <point x="768" y="230"/>
      <point x="748" y="176"/>
      <point x="710" y="146" type="curve"/>
      <point x="620" y="320" type="line" smooth="yes"/>
      <point x="608" y="342"/>
      <point x="604" y="342"/>
      <point x="562" y="342" type="curve" smooth="yes"/>
      <point x="534" y="342" type="line" smooth="yes"/>
      <point x="506" y="342"/>
      <point x="468" y="342"/>
      <point x="468" y="300" type="curve" smooth="yes"/>
      <point x="468" y="296"/>
      <point x="468" y="290"/>
      <point x="478" y="270" type="curve" smooth="yes"/>
    </contour>
  </outline>
</glyph>
<glyph name="R" format="2">
  <advance width="1050"/>
  <unicode hex="0052"/>
  <outline>
    <contour>
      <point x="702" y="606" type="curve"/>
      <point x="806" y="672"/>
      <point x="866" y="774"/>
      <point x="866" y="884" type="curve" smooth="yes"/>
      <point x="866" y="1056"/>
      <point x="712" y="1222"/>
      <point x="478" y="1222" type="curve" smooth="yes"/>
      <point x="120" y="1222" type="line" smooth="yes"/>
      <point x="90" y="1222"/>
      <point x="36" y="1222"/>
      <point x="36" y="1158" type="curve" smooth="yes"/>
      <point x="36" y="1092"/>
      <point x="88" y="1092"/>
      <point x="120" y="1092" type="curve" smooth="yes"/>
      <point x="168" y="1092" type="line"/>
      <point x="168" y="130" type="line"/>
      <point x="120" y="130" type="line" smooth="yes"/>
      <point x="90" y="130"/>
      <point x="36" y="130"/>
      <point x="36" y="66" type="curve" smooth="yes"/>
      <point x="36" y="0"/>
      <point x="88" y="0"/>
      <point x="120" y="0" type="curve" smooth="yes"/>
      <point x="364" y="0" type="line" smooth="yes"/>
      <point x="394" y="0"/>
      <point x="448" y="0"/>
      <point x="448" y="64" type="curve" smooth="yes"/>
      <point x="448" y="130"/>
      <point x="396" y="130"/>
      <point x="364" y="130" type="curve" smooth="yes"/>
      <point x="316" y="130" type="line"/>
      <point x="316" y="546" type="line"/>
      <point x="466" y="546" type="line" smooth="yes"/>
      <point x="514" y="546"/>
      <point x="562" y="544"/>
      <point x="620" y="492" type="curve" smooth="yes"/>
      <point x="664" y="454"/>
      <point x="664" y="408"/>
      <point x="664" y="326" type="curve" smooth="yes"/>
      <point x="664" y="204"/>
      <point x="664" y="138"/>
      <point x="700" y="74" type="curve" smooth="yes"/>
      <point x="738" y="10"/>
      <point x="796" y="-22"/>
      <point x="866" y="-22" type="curve" smooth="yes"/>
      <point x="990" y="-22"/>
      <point x="1044" y="104"/>
      <point x="1044" y="190" type="curve" smooth="yes"/>
      <point x="1044" y="258"/>
      <point x="988" y="258"/>
      <point x="970" y="258" type="curve" smooth="yes"/>
      <point x="950" y="258"/>
      <point x="898" y="258"/>
      <point x="896" y="192" type="curve" smooth="yes"/>
      <point x="896" y="180"/>
      <point x="892" y="108"/>
      <point x="862" y="108" type="curve" smooth="yes"/>
      <point x="812" y="108"/>
      <point x="812" y="202"/>
      <point x="812" y="300" type="curve" smooth="yes"/>
      <point x="812" y="428"/>
      <point x="812" y="440"/>
      <point x="794" y="488" type="curve" smooth="yes"/>
      <point x="768" y="554"/>
      <point x="710" y="600"/>
    </contour>
    <contour>
      <point x="454" y="676" type="curve" smooth="yes"/>
      <point x="316" y="676" type="line"/>
      <point x="316" y="1092" type="line"/>
      <point x="454" y="1092" type="line" smooth="yes"/>
      <point x="638" y="1092"/>
      <point x="718" y="974"/>
      <point x="718" y="884" type="curve" smooth="yes"/>
      <point x="718" y="796"/>
      <point x="640" y="676"/>
    </contour>
  </outline>
</glyph>
<glyph name="S" format="2">
	<unicode hex="0053"/>
	<advance width="525"/>
	<outline>
		<contour>
			<point x="52" y="457" type="curve" smooth="yes"/>
			<point x="52" y="403"/>
			<point x="81" y="366"/>
			<point x="91" y="354" type="curve"/>
			<point x="132" y="310"/>
			<point x="162" y="303"/>
			<point x="237" y="286" type="curve"/>
			<point x="247" y="283"/>
			<point x="316" y="267"/>
			<point x="319" y="267" type="curve"/>
			<point x="383" y="247"/>
			<point x="402" y="196"/>
			<point x="402" y="162" type="curve" smooth="yes"/>
			<point x="402" y="110"/>
			<point x="359" y="54"/>
			<point x="285" y="54" type="curve" smooth="yes"/>
			<point x="244" y="54"/>
			<point x="204" y="63"/>
			<point x="177" y="79" type="curve" smooth="yes"/>
			<point x="131" y="107"/>
			<point x="127" y="148"/>
			<point x="126" y="167" type="curve" smooth="yes"/>
			<point x="125" y="183"/>
			<point x="124" y="203"/>
			<point x="89" y="203" type="curve" smooth="yes"/>
			<point x="52" y="203"/>
			<point x="52" y="180"/>
			<point x="52" y="160" type="curve" smooth="yes"/>
			<point x="52" y="31" type="line" smooth="yes"/>
			<point x="52" y="16"/>
			<point x="52" y="-11"/>
			<point x="84" y="-11" type="curve" smooth="yes"/>
			<point x="106" y="-11"/>
			<point x="115" y="2"/>
			<point x="122" y="32" type="curve"/>
			<point x="168" y="0"/>
			<point x="233" y="-11"/>
			<point x="284" y="-11" type="curve" smooth="yes"/>
			<point x="400" y="-11"/>
			<point x="472" y="77"/>
			<point x="472" y="167" type="curve" smooth="yes"/>
			<point x="472" y="199"/>
			<point x="463" y="239"/>
			<point x="432" y="278" type="curve" smooth="yes"/>
			<point x="393" y="325"/>
			<point x="346" y="336"/>
			<point x="310" y="344" type="curve" smooth="yes"/>
			<point x="289" y="349"/>
			<point x="216" y="366"/>
			<point x="203" y="370" type="curve"/>
			<point x="158" y="381"/>
			<point x="122" y="417"/>
			<point x="122" y="461" type="curve" smooth="yes"/>
			<point x="122" y="510"/>
			<point x="169" y="557"/>
			<point x="237" y="557" type="curve" smooth="yes"/>
			<point x="352" y="557"/>
			<point x="367" y="464"/>
			<point x="371" y="439" type="curve" smooth="yes"/>
			<point x="375" y="409"/>
			<point x="392" y="408"/>
			<point x="408" y="408" type="curve" smooth="yes"/>
			<point x="445" y="408"/>
			<point x="445" y="431"/>
			<point x="445" y="450" type="curve" smooth="yes"/>
			<point x="445" y="580" type="line" smooth="yes"/>
			<point x="445" y="595"/>
			<point x="445" y="622"/>
			<point x="413" y="622" type="curve" smooth="yes"/>
			<point x="391" y="622"/>
			<point x="382" y="609"/>
			<point x="375" y="579" type="curve"/>
			<point x="321" y="619"/>
			<point x="262" y="622"/>
			<point x="237" y="622" type="curve" smooth="yes"/>
			<point x="128" y="622"/>
			<point x="52" y="543"/>
		</contour>
	</outline>
</glyph>
<glyph name="T" format="2">
  <advance width="1050"/>
  <unicode hex="0054"/>
  <outline>
    <contour>
      <point x="598" y="1092" type="line"/>
      <point x="848" y="1092" type="line"/>
      <point x="848" y="984" type="line" smooth="yes"/>
      <point x="848" y="946"/>
      <point x="848" y="900"/>
      <point x="922" y="900" type="curve" smooth="yes"/>
      <point x="996" y="900"/>
      <point x="996" y="946"/>
      <point x="996" y="984" type="curve" smooth="yes"/>
      <point x="996" y="1138" type="line" smooth="yes"/>
      <point x="996" y="1204"/>
      <point x="980" y="1222"/>
      <point x="912" y="1222" type="curve" smooth="yes"/>
      <point x="138" y="1222" type="line" smooth="yes"/>
      <point x="70" y="1222"/>
      <point x="52" y="1206"/>
      <point x="52" y="1136" type="curve" smooth="yes"/>
      <point x="52" y="984" type="line" smooth="yes"/>
      <point x="52" y="946"/>
      <point x="52" y="900"/>
      <point x="126" y="900" type="curve" smooth="yes"/>
      <point x="200" y="900"/>
      <point x="200" y="946"/>
      <point x="200" y="984" type="curve" smooth="yes"/>
      <point x="200" y="1092" type="line"/>
      <point x="450" y="1092" type="line"/>
      <point x="450" y="130" type="line"/>
      <point x="348" y="130" type="line" smooth="yes"/>
      <point x="320" y="130"/>
      <point x="262" y="130"/>
      <point x="262" y="66" type="curve" smooth="yes"/>
      <point x="262" y="0"/>
      <point x="318" y="0"/>
      <point x="348" y="0" type="curve" smooth="yes"/>
      <point x="700" y="0" type="line" smooth="yes"/>
      <point x="728" y="0"/>
      <point x="786" y="0"/>
      <point x="786" y="64" type="curve" smooth="yes"/>
      <point x="786" y="130"/>
      <point x="730" y="130"/>
      <point x="700" y="130" type="curve" smooth="yes"/>
      <point x="598" y="130" type="line"/>
    </contour>
  </outline>
</glyph>
<glyph name="U" format="2">
  <advance width="1050"/>
  <unicode hex="0055"/>
  <outline>
    <contour>
      <point x="904" y="1092" type="line"/>
      <point x="962" y="1092" type="line" smooth="yes"/>
      <point x="992" y="1092"/>
      <point x="1048" y="1092"/>
      <point x="1048" y="1156" type="curve" smooth="yes"/>
      <point x="1048" y="1222"/>
      <point x="994" y="1222"/>
      <point x="962" y="1222" type="curve" smooth="yes"/>
      <point x="698" y="1222" type="line" smooth="yes"/>
      <point x="666" y="1222"/>
      <point x="612" y="1222"/>
      <point x="612" y="1156" type="curve" smooth="yes"/>
      <point x="612" y="1092"/>
      <point x="668" y="1092"/>
      <point x="698" y="1092" type="curve" smooth="yes"/>
      <point x="756" y="1092" type="line"/>
      <point x="756" y="418" type="line" smooth="yes"/>
      <point x="756" y="212"/>
      <point x="630" y="108"/>
      <point x="524" y="108" type="curve" smooth="yes"/>
      <point x="418" y="108"/>
      <point x="292" y="212"/>
      <point x="292" y="418" type="curve" smooth="yes"/>
      <point x="292" y="1092" type="line"/>
      <point x="350" y="1092" type="line" smooth="yes"/>
      <point x="380" y="1092"/>
      <point x="436" y="1092"/>
      <point x="436" y="1156" type="curve" smooth="yes"/>
      <point x="436" y="1222"/>
      <point x="382" y="1222"/>
      <point x="350" y="1222" type="curve" smooth="yes"/>
      <point x="86" y="1222" type="line" smooth="yes"/>
      <point x="54" y="1222"/>
      <point x="0" y="1222"/>
      <point x="0" y="1156" type="curve" smooth="yes"/>
      <point x="0" y="1092"/>
      <point x="56" y="1092"/>
      <point x="86" y="1092" type="curve" smooth="yes"/>
      <point x="144" y="1092" type="line"/>
      <point x="144" y="410" type="line" smooth="yes"/>
      <point x="144" y="160"/>
      <point x="322" y="-22"/>
      <point x="524" y="-22" type="curve" smooth="yes"/>
      <point x="726" y="-22"/>
      <point x="904" y="160"/>
      <point x="904" y="410" type="curve" smooth="yes"/>
    </contour>
  </outline>
</glyph>
<glyph name="V" format="2">
  <advance width="1050"/>
  <unicode hex="0056"/>
  <outline>
    <contour>
      <point x="896" y="1092" type="line"/>
      <point x="964" y="1092"/>
      <point x="1012" y="1092"/>
      <point x="1012" y="1158" type="curve" smooth="yes"/>
      <point x="1012" y="1222"/>
      <point x="954" y="1222"/>
      <point x="926" y="1222" type="curve" smooth="yes"/>
      <point x="716" y="1222" type="line" smooth="yes"/>
      <point x="686" y="1222"/>
      <point x="630" y="1222"/>
      <point x="630" y="1158" type="curve" smooth="yes"/>
      <point x="630" y="1092"/>
      <point x="676" y="1092"/>
      <point x="744" y="1092" type="curve"/>
      <point x="604" y="524" type="line" smooth="yes"/>
      <point x="578" y="420"/>
      <point x="534" y="238"/>
      <point x="524" y="156" type="curve"/>
      <point x="522" y="156" type="line"/>
      <point x="518" y="200"/>
      <point x="504" y="266"/>
      <point x="492" y="318" type="curve" smooth="yes"/>
      <point x="304" y="1092" type="line"/>
      <point x="372" y="1092"/>
      <point x="418" y="1092"/>
      <point x="418" y="1158" type="curve" smooth="yes"/>
      <point x="418" y="1222"/>
      <point x="362" y="1222"/>
      <point x="332" y="1222" type="curve" smooth="yes"/>
      <point x="122" y="1222" type="line" smooth="yes"/>
      <point x="94" y="1222"/>
      <point x="36" y="1222"/>
      <point x="36" y="1158" type="curve" smooth="yes"/>
      <point x="36" y="1092"/>
      <point x="84" y="1092"/>
      <point x="152" y="1092" type="curve"/>
      <point x="408" y="60" type="line" smooth="yes"/>
      <point x="428" y="-18"/>
      <point x="468" y="-18"/>
      <point x="524" y="-18" type="curve" smooth="yes"/>
      <point x="576" y="-18"/>
      <point x="620" y="-18"/>
      <point x="638" y="54" type="curve" smooth="yes"/>
    </contour>
  </outline>
</glyph>
<glyph name="W" format="2">
  <advance width="525"/>
  <unicode hex="0057"/>
  <outline>
    <contour>
      <point x="474" y="546" type="line"/>
      <point x="484" y="546"/>
      <point x="512" y="546"/>
      <point x="512" y="578" type="curve" smooth="yes"/>
      <point x="512" y="611"/>
      <point x="486" y="611"/>
      <point x="470" y="611" type="curve" smooth="yes"/>
      <point x="390" y="611" type="line" smooth="yes"/>
      <point x="375" y="611"/>
      <point x="347" y="611"/>
      <point x="347" y="579" type="curve" smooth="yes"/>
      <point x="347" y="546"/>
      <point x="374" y="546"/>
      <point x="390" y="546" type="curve" smooth="yes"/>
      <point x="414" y="546" type="line"/>
      <point x="372" y="228" type="line" smooth="yes"/>
      <point x="365" y="173"/>
      <point x="359" y="130"/>
      <point x="356" y="81" type="curve"/>
      <point x="355" y="81" type="line"/>
      <point x="353" y="143"/>
      <point x="309" y="337"/>
      <point x="302" y="349" type="curve" smooth="yes"/>
      <point x="292" y="367"/>
      <point x="272" y="367"/>
      <point x="262" y="367" type="curve" smooth="yes"/>
      <point x="252" y="367"/>
      <point x="232" y="367"/>
      <point x="222" y="349" type="curve" smooth="yes"/>
      <point x="216" y="338"/>
      <point x="171" y="145"/>
      <point x="169" y="81" type="curve"/>
      <point x="166" y="120"/>
      <point x="160" y="165"/>
      <point x="154" y="211" type="curve" smooth="yes"/>
      <point x="111" y="546" type="line"/>
      <point x="134" y="546" type="line" smooth="yes"/>
      <point x="149" y="546"/>
      <point x="177" y="546"/>
      <point x="177" y="578" type="curve" smooth="yes"/>
      <point x="177" y="611"/>
      <point x="150" y="611"/>
      <point x="134" y="611" type="curve" smooth="yes"/>
      <point x="54" y="611" type="line" smooth="yes"/>
      <point x="38" y="611"/>
      <point x="12" y="611"/>
      <point x="12" y="578" type="curve" smooth="yes"/>
      <point x="12" y="546"/>
      <point x="40" y="546"/>
      <point x="49" y="546" type="curve" smooth="yes"/>
      <point x="50" y="546" type="line"/>
      <point x="120" y="32" type="line" smooth="yes"/>
      <point x="123" y="12"/>
      <point x="126" y="-9"/>
      <point x="163" y="-9" type="curve" smooth="yes"/>
      <point x="172" y="-9"/>
      <point x="194" y="-9"/>
      <point x="204" y="15" type="curve" smooth="yes"/>
      <point x="207" y="22"/>
      <point x="258" y="246"/>
      <point x="261" y="287" type="curve"/>
      <point x="263" y="287" type="line"/>
      <point x="266" y="246"/>
      <point x="316" y="22"/>
      <point x="320" y="14" type="curve"/>
      <point x="330" y="-9"/>
      <point x="353" y="-9"/>
      <point x="361" y="-9" type="curve" smooth="yes"/>
      <point x="399" y="-9"/>
      <point x="402" y="13"/>
      <point x="404" y="31" type="curve" smooth="yes"/>
    </contour>
  </outline>
</glyph>
<glyph name="X" format="2">
  <advance width="1050"/>
  <unicode hex="0058"/>
  <outline>
    <contour>
      <point x="588" y="652" type="line"/>
      <point x="804" y="1092" type="line"/>
      <point x="848" y="1092" type="line" smooth="yes"/>
      <point x="876" y="1092"/>
      <point x="932" y="1092"/>
      <point x="932" y="1156" type="curve" smooth="yes"/>
      <point x="932" y="1222"/>
      <point x="878" y="1222"/>
      <point x="848" y="1222" type="curve" smooth="yes"/>
      <point x="634" y="1222" type="line" smooth="yes"/>
      <point x="604" y="1222"/>
      <point x="550" y="1222"/>
      <point x="550" y="1158" type="curve" smooth="yes"/>
      <point x="550" y="1092"/>
      <point x="600" y="1092"/>
      <point x="642" y="1092" type="curve"/>
      <point x="514" y="824" type="line"/>
      <point x="374" y="1092" type="line"/>
      <point x="408" y="1092"/>
      <point x="462" y="1092"/>
      <point x="462" y="1158" type="curve" smooth="yes"/>
      <point x="462" y="1222"/>
      <point x="406" y="1222"/>
      <point x="376" y="1222" type="curve" smooth="yes"/>
      <point x="164" y="1222" type="line" smooth="yes"/>
      <point x="134" y="1222"/>
      <point x="78" y="1222"/>
      <point x="78" y="1158" type="curve" smooth="yes"/>
      <point x="78" y="1092"/>
      <point x="132" y="1092"/>
      <point x="164" y="1092" type="curve" smooth="yes"/>
      <point x="208" y="1092" type="line"/>
      <point x="440" y="652" type="line"/>
      <point x="184" y="130" type="line"/>
      <point x="140" y="130" type="line" smooth="yes"/>
      <point x="110" y="130"/>
      <point x="56" y="130"/>
      <point x="56" y="66" type="curve" smooth="yes"/>
      <point x="56" y="0"/>
      <point x="108" y="0"/>
      <point x="140" y="0" type="curve" smooth="yes"/>
      <point x="354" y="0" type="line" smooth="yes"/>
      <point x="382" y="0"/>
      <point x="438" y="0"/>
      <point x="438" y="64" type="curve" smooth="yes"/>
      <point x="438" y="130"/>
      <point x="388" y="130"/>
      <point x="344" y="130" type="curve"/>
      <point x="514" y="498" type="line"/>
      <point x="696" y="130" type="line"/>
      <point x="660" y="130"/>
      <point x="606" y="130"/>
      <point x="606" y="64" type="curve" smooth="yes"/>
      <point x="606" y="0"/>
      <point x="664" y="0"/>
      <point x="692" y="0" type="curve" smooth="yes"/>
      <point x="904" y="0" type="line" smooth="yes"/>
      <point x="934" y="0"/>
      <point x="990" y="0"/>
      <point x="990" y="64" type="curve" smooth="yes"/>
      <point x="990" y="130"/>
      <point x="936" y="130"/>
      <point x="904" y="130" type="curve" smooth="yes"/>
      <point x="860" y="130" type="line"/>
    </contour>
  </outline>
</glyph>
<glyph name="Y" format="2">
	<unicode hex="0059"/>
	<advance width="525"/>
	<outline>
		<contour>
			<point x="442" y="546" type="line"/>
			<point x="462" y="546" type="line" smooth="yes"/>
			<point x="476" y="546"/>
			<point x="505" y="546"/>
			<point x="505" y="578" type="curve" smooth="yes"/>
			<point x="505" y="611"/>
			<point x="477" y="611"/>
			<point x="462" y="611" type="curve" smooth="yes"/>
			<point x="356" y="611" type="line" smooth="yes"/>
			<point x="341" y="611"/>
			<point x="313" y="611"/>
			<point x="313" y="579" type="curve" smooth="yes"/>
			<point x="313" y="546"/>
			<point x="339" y="546"/>
			<point x="360" y="546" type="curve"/>
			<point x="344.349" y="512.367"/>
			<point x="328.698" y="478.734"/>
			<point x="313" y="445" type="curve" smooth="yes"/>
			<point x="289" y="394"/>
			<point x="268" y="343"/>
			<point x="263" y="320" type="curve"/>
			<point x="261" y="320" type="line"/>
			<point x="256" y="343"/>
			<point x="235" y="394"/>
			<point x="211" y="445" type="curve" smooth="yes"/>
			<point x="164" y="546" type="line"/>
			<point x="185" y="546"/>
			<point x="211" y="546"/>
			<point x="211" y="579" type="curve" smooth="yes"/>
			<point x="211" y="611"/>
			<point x="183" y="611"/>
			<point x="168" y="611" type="curve" smooth="yes"/>
			<point x="62" y="611" type="line" smooth="yes"/>
			<point x="48" y="611"/>
			<point x="19" y="611"/>
			<point x="19" y="579" type="curve" smooth="yes"/>
			<point x="19" y="546"/>
			<point x="47" y="546"/>
			<point x="62" y="546" type="curve" smooth="yes"/>
			<point x="82" y="546" type="line"/>
			<point x="225" y="244" type="line"/>
			<point x="225" y="65" type="line"/>
			<point x="201" y="65" type="line" smooth="yes"/>
			<point x="185" y="65"/>
			<point x="159" y="65"/>
			<point x="159" y="32" type="curve" smooth="yes"/>
			<point x="159" y="0"/>
			<point x="186" y="0"/>
			<point x="201" y="0" type="curve" smooth="yes"/>
			<point x="323" y="0" type="line" smooth="yes"/>
			<point x="338" y="0"/>
			<point x="365" y="0"/>
			<point x="365" y="32" type="curve" smooth="yes"/>
			<point x="365" y="65"/>
			<point x="339" y="65"/>
			<point x="323" y="65" type="curve" smooth="yes"/>
			<point x="299" y="65" type="line"/>
			<point x="299" y="244" type="line"/>
		</contour>
	</outline>
</glyph>
<glyph name="Z" format="2">
  <advance width="1050"/>
  <unicode hex="005A"/>
  <outline>
    <contour>
      <point x="932" y="1086" type="line" smooth="yes"/>
      <point x="952" y="1116"/>
      <point x="952" y="1128"/>
      <point x="952" y="1148" type="curve" smooth="yes"/>
      <point x="952" y="1222"/>
      <point x="906" y="1222"/>
      <point x="866" y="1222" type="curve" smooth="yes"/>
      <point x="206" y="1222" type="line" smooth="yes"/>
      <point x="138" y="1222"/>
      <point x="120" y="1206"/>
      <point x="120" y="1136" type="curve" smooth="yes"/>
      <point x="120" y="984" type="line" smooth="yes"/>
      <point x="120" y="946"/>
      <point x="120" y="900"/>
      <point x="194" y="900" type="curve" smooth="yes"/>
      <point x="268" y="900"/>
      <point x="268" y="946"/>
      <point x="268" y="984" type="curve" smooth="yes"/>
      <point x="268" y="1092" type="line"/>
      <point x="762" y="1092" type="line"/>
      <point x="116" y="136" type="line" smooth="yes"/>
      <point x="96" y="106"/>
      <point x="96" y="94"/>
      <point x="96" y="74" type="curve" smooth="yes"/>
      <point x="96" y="0"/>
      <point x="142" y="0"/>
      <point x="182" y="0" type="curve" smooth="yes"/>
      <point x="878" y="0" type="line" smooth="yes"/>
      <point x="944" y="0"/>
      <point x="962" y="16"/>
      <point x="962" y="84" type="curve" smooth="yes"/>
      <point x="962" y="276" type="line" smooth="yes"/>
      <point x="962" y="314"/>
      <point x="962" y="360"/>
      <point x="888" y="360" type="curve" smooth="yes"/>
      <point x="814" y="360"/>
      <point x="814" y="314"/>
      <point x="814" y="276" type="curve" smooth="yes"/>
      <point x="814" y="130" type="line"/>
      <point x="286" y="130" type="line"/>
    </contour>
  </outline>
</glyph>
<glyph name="bracketleft" format="2">
	<unicode hex="005B"/>
	<advance width="525"/>
	<outline>
		<contour>
			<point x="442" y="629" type="line" smooth="yes"/>
			<point x="457" y="629"/>
			<point x="484" y="629"/>
			<point x="484" y="662" type="curve" smooth="yes"/>
			<point x="484" y="694"/>
			<point x="456" y="694"/>
			<point x="442" y="694" type="curve" smooth="yes"/>
			<point x="260" y="694" type="line" smooth="yes"/>
			<point x="227" y="694"/>
			<point x="218" y="686"/>
			<point x="218" y="652" type="curve" smooth="yes"/>
			<point x="218" y="-41" type="line" smooth="yes"/>
			<point x="218" y="-74"/>
			<point x="226" y="-83"/>
			<point x="260" y="-83" type="curve" smooth="yes"/>
			<point x="442" y="-83" type="line" smooth="yes"/>
			<point x="457" y="-83"/>
			<point x="484" y="-83"/>
			<point x="484" y="-50" type="curve" smooth="yes"/>
			<point x="484" y="-18"/>
			<point x="456" y="-18"/>
			<point x="442" y="-18" type="curve" smooth="yes"/>
			<point x="292" y="-18" type="line"/>
			<point x="292" y="629" type="line"/>
		</contour>
	</outline>
</glyph>
<glyph name="backslash" format="2">
	<unicode hex="005C"/>
	<advance width="525"/>
	<outline>
		<contour>
			<point x="133" y="665" type="line" smooth="yes"/>
			<point x="128" y="676"/>
			<point x="119" y="694"/>
			<point x="95" y="694" type="curve" smooth="yes"/>
			<point x="77" y="694"/>
			<point x="58" y="679"/>
			<point x="58" y="656" type="curve" smooth="yes"/>
			<point x="58" y="648"/>
			<point x="62" y="640"/>
			<point x="63" y="637" type="curve"/>
			<point x="390" y="-53" type="line" smooth="yes"/>
			<point x="400" y="-74"/>
			<point x="412" y="-83"/>
			<point x="429" y="-83" type="curve" smooth="yes"/>
			<point x="447" y="-83"/>
			<point x="466" y="-68"/>
			<point x="466" y="-45" type="curve" smooth="yes"/>
			<point x="466" y="-37"/>
			<point x="462" y="-29"/>
			<point x="461" y="-26" type="curve"/>
		</contour>
	</outline>
</glyph>
<glyph name="bracketright" format="2">
  <advance width="1050"/>
  <unicode hex="005D"/>
  <outline>
    <contour>
      <point x="612" y="1304" type="line" smooth="yes"/>
      <point x="612" y="1370"/>
      <point x="596" y="1388"/>
      <point x="528" y="1388" type="curve" smooth="yes"/>
      <point x="164" y="1388" type="line" smooth="yes"/>
      <point x="136" y="1388"/>
      <point x="80" y="1388"/>
      <point x="80" y="1324" type="curve" smooth="yes"/>
      <point x="80" y="1258"/>
      <point x="134" y="1258"/>
      <point x="164" y="1258" type="curve" smooth="yes"/>
      <point x="464" y="1258" type="line"/>
      <point x="464" y="-36" type="line"/>
      <point x="164" y="-36" type="line" smooth="yes"/>
      <point x="136" y="-36"/>
      <point x="80" y="-36"/>
      <point x="80" y="-100" type="curve" smooth="yes"/>
      <point x="80" y="-166"/>
      <point x="134" y="-166"/>
      <point x="164" y="-166" type="curve" smooth="yes"/>
      <point x="528" y="-166" type="line" smooth="yes"/>
      <point x="594" y="-166"/>
      <point x="612" y="-150"/>
      <point x="612" y="-82" type="curve" smooth="yes"/>
    </contour>
  </outline>
</glyph>
<glyph name="asciicircum" format="2">
  <advance width="1050"/>
  <unicode hex="005E"/>
  <outline>
    <contour>
      <point x="566" y="1208" type="line" smooth="yes"/>
      <point x="542" y="1222"/>
      <point x="534" y="1222"/>
      <point x="524" y="1222" type="curve" smooth="yes"/>
      <point x="510" y="1222"/>
      <point x="502" y="1218"/>
      <point x="480" y="1206" type="curve" smooth="yes"/>
      <point x="240" y="1078" type="line" smooth="yes"/>
      <point x="214" y="1064"/>
      <point x="196" y="1054"/>
      <point x="196" y="1020" type="curve" smooth="yes"/>
      <point x="196" y="996"/>
      <point x="214" y="968"/>
      <point x="220" y="960" type="curve" smooth="yes"/>
      <point x="238" y="936"/>
      <point x="258" y="936"/>
      <point x="284" y="936" type="curve"/>
      <point x="524" y="1074" type="line"/>
      <point x="736" y="952" type="line" smooth="yes"/>
      <point x="762" y="936"/>
      <point x="766" y="936"/>
      <point x="780" y="936" type="curve" smooth="yes"/>
      <point x="834" y="936"/>
      <point x="852" y="1002"/>
      <point x="852" y="1020" type="curve" smooth="yes"/>
      <point x="852" y="1054"/>
      <point x="834" y="1064"/>
      <point x="808" y="1078" type="curve" smooth="yes"/>
    </contour>
  </outline>
</glyph>
<glyph name="underscore" format="2">
  <advance width="1050"/>
  <unicode hex="005F"/>
  <outline>
    <contour>
      <point x="838" y="-194" type="line" smooth="yes"/>
      <point x="860" y="-194"/>
      <point x="936" y="-194"/>
      <point x="936" y="-120" type="curve" smooth="yes"/>
      <point x="936" y="-44"/>
      <point x="862" y="-44"/>
      <point x="838" y="-44" type="curve" smooth="yes"/>
      <point x="210" y="-44" type="line" smooth="yes"/>
      <point x="188" y="-44"/>
      <point x="112" y="-44"/>
      <point x="112" y="-118" type="curve" smooth="yes"/>
      <point x="112" y="-194"/>
      <point x="186" y="-194"/>
      <point x="210" y="-194" type="curve" smooth="yes"/>
    </contour>
  </outline>
</glyph>
<glyph name="grave" format="2">
  <advance width="1050"/>
  <unicode hex="0060"/>
  <outline>
    <contour>
      <point x="550" y="970" type="line"/>
      <point x="562" y="964"/>
      <point x="578" y="960"/>
      <point x="590" y="960" type="curve" smooth="yes"/>
      <point x="632" y="960"/>
      <point x="662" y="1004"/>
      <point x="662" y="1044" type="curve" smooth="yes"/>
      <point x="662" y="1082"/>
      <point x="634" y="1098"/>
      <point x="608" y="1108" type="curve" smooth="yes"/>
      <point x="352" y="1210" type="line" smooth="yes"/>
      <point x="334" y="1218"/>
      <point x="322" y="1222"/>
      <point x="308" y="1222" type="curve" smooth="yes"/>
      <point x="260" y="1222"/>
      <point x="234" y="1182"/>
      <point x="234" y="1148" type="curve" smooth="yes"/>
      <point x="234" y="1100"/>
      <point x="268" y="1086"/>
      <point x="296" y="1074" type="curve" smooth="yes"/>
    </contour>
  </outline>
</glyph>
<glyph name="a" format="2">
  <advance width="1050"/>
  <unicode hex="0061"/>
  <outline>
    <contour>
      <point x="852" y="566" type="line" smooth="yes"/>
      <point x="852" y="722"/>
      <point x="732" y="878"/>
      <point x="452" y="878" type="curve" smooth="yes"/>
      <point x="360" y="878"/>
      <point x="158" y="878"/>
      <point x="158" y="728" type="curve" smooth="yes"/>
      <point x="158" y="670"/>
      <point x="202" y="634"/>
      <point x="250" y="634" type="curve" smooth="yes"/>
      <point x="282" y="634"/>
      <point x="344" y="646"/>
      <point x="344" y="742" type="curve"/>
      <point x="344" y="742"/>
      <point x="344" y="742"/>
      <point x="344" y="742" type="curve"/>
      <point x="400" y="748"/>
      <point x="436" y="748"/>
      <point x="454" y="748" type="curve" smooth="yes"/>
      <point x="545" y="748"/>
      <point x="614" y="726"/>
      <point x="656" y="684" type="curve" smooth="yes"/>
      <point x="687" y="653"/>
      <point x="704" y="612"/>
      <point x="704" y="560" type="curve"/>
      <point x="370" y="556"/>
      <point x="106" y="462"/>
      <point x="106" y="266" type="curve" smooth="yes"/>
      <point x="106" y="114"/>
      <point x="244" y="-10"/>
      <point x="438" y="-10" type="curve" smooth="yes"/>
      <point x="462" y="-10"/>
      <point x="614" y="-10"/>
      <point x="722" y="68" type="curve"/>
      <point x="770" y="0"/>
      <point x="878" y="0"/>
      <point x="944" y="0" type="curve" smooth="yes"/>
      <point x="1000" y="0"/>
      <point x="1048" y="0"/>
      <point x="1048" y="66" type="curve" smooth="yes"/>
      <point x="1048" y="130"/>
      <point x="994" y="130"/>
      <point x="962" y="130" type="curve" smooth="yes"/>
      <point x="932" y="130"/>
      <point x="890" y="130"/>
      <point x="852" y="144" type="curve"/>
    </contour>
    <contour>
      <point x="704" y="434" type="curve"/>
      <point x="704" y="282" type="line" smooth="yes"/>
      <point x="704" y="236"/>
      <point x="704" y="194"/>
      <point x="624" y="154" type="curve" smooth="yes"/>
      <point x="552" y="120"/>
      <point x="462" y="120"/>
      <point x="454" y="120" type="curve" smooth="yes"/>
      <point x="336" y="120"/>
      <point x="254" y="186"/>
      <point x="254" y="266" type="curve" smooth="yes"/>
      <point x="254" y="364"/>
      <point x="456" y="432"/>
    </contour>
  </outline>
</glyph>
<glyph name="b" format="2">
  <advance width="1050"/>
  <unicode hex="0062"/>
  <outline>
    <contour>
      <point x="188" y="1092" type="line"/>
      <point x="188" y="86" type="line" smooth="yes"/>
      <point x="188" y="46"/>
      <point x="188" y="0"/>
      <point x="262" y="0" type="curve" smooth="yes"/>
      <point x="336" y="0"/>
      <point x="336" y="46"/>
      <point x="336" y="86" type="curve"/>
      <point x="398" y="26"/>
      <point x="476" y="-10"/>
      <point x="564" y="-10" type="curve" smooth="yes"/>
      <point x="786" y="-10"/>
      <point x="980" y="180"/>
      <point x="980" y="432" type="curve" smooth="yes"/>
      <point x="980" y="670"/>
      <point x="808" y="872"/>
      <point x="584" y="872" type="curve" smooth="yes"/>
      <point x="490" y="872"/>
      <point x="406" y="838"/>
      <point x="336" y="780" type="curve"/>
      <point x="336" y="1138" type="line" smooth="yes"/>
      <point x="336" y="1204"/>
      <point x="320" y="1222"/>
      <point x="252" y="1222" type="curve" smooth="yes"/>
      <point x="100" y="1222" type="line" smooth="yes"/>
      <point x="72" y="1222"/>
      <point x="16" y="1222"/>
      <point x="16" y="1158" type="curve" smooth="yes"/>
      <point x="16" y="1092"/>
      <point x="70" y="1092"/>
      <point x="100" y="1092" type="curve" smooth="yes"/>
    </contour>
    <contour>
      <point x="556" y="120" type="curve" smooth="yes"/>
      <point x="414" y="120"/>
      <point x="336" y="282"/>
      <point x="336" y="386" type="curve" smooth="yes"/>
      <point x="336" y="526" type="line" smooth="yes"/>
      <point x="336" y="644"/>
      <point x="454" y="742"/>
      <point x="576" y="742" type="curve" smooth="yes"/>
      <point x="714" y="742"/>
      <point x="832" y="606"/>
      <point x="832" y="432" type="curve" smooth="yes"/>
      <point x="832" y="254"/>
      <point x="702" y="120"/>
    </contour>
  </outline>
</glyph>
<glyph name="c" format="2">
  <advance width="1050"/>
  <unicode hex="0063"/>
  <outline>
    <contour>
      <point x="584" y="-10" type="curve" smooth="yes"/>
      <point x="870" y="-10"/>
      <point x="932" y="188"/>
      <point x="932" y="218" type="curve" smooth="yes"/>
      <point x="932" y="260"/>
      <point x="902" y="278"/>
      <point x="858" y="278" type="curve" smooth="yes"/>
      <point x="832" y="278"/>
      <point x="804" y="278"/>
      <point x="786" y="234" type="curve" smooth="yes"/>
      <point x="772" y="204"/>
      <point x="738" y="120"/>
      <point x="598" y="120" type="curve" smooth="yes"/>
      <point x="428" y="120"/>
      <point x="290" y="258"/>
      <point x="290" y="432" type="curve" smooth="yes"/>
      <point x="290" y="534"/>
      <point x="352" y="748"/>
      <point x="608" y="748" type="curve" smooth="yes"/>
      <point x="642" y="748"/>
      <point x="670" y="746"/>
      <point x="678" y="746" type="curve"/>
      <point x="718" y="742"/>
      <point x="720" y="740"/>
      <point x="722" y="722" type="curve" smooth="yes"/>
      <point x="728" y="654"/>
      <point x="782" y="634"/>
      <point x="814" y="634" type="curve" smooth="yes"/>
      <point x="868" y="634"/>
      <point x="908" y="674"/>
      <point x="908" y="728" type="curve" smooth="yes"/>
      <point x="908" y="878"/>
      <point x="704" y="878"/>
      <point x="610" y="878" type="curve" smooth="yes"/>
      <point x="264" y="878"/>
      <point x="142" y="608"/>
      <point x="142" y="432" type="curve" smooth="yes"/>
      <point x="142" y="188"/>
      <point x="338" y="-10"/>
    </contour>
  </outline>
</glyph>
<glyph name="d" format="2">
  <advance width="1050"/>
  <unicode hex="0064"/>
  <outline>
    <contour>
      <point x="464" y="-10" type="curve" smooth="yes"/>
      <point x="554" y="-10"/>
      <point x="640" y="24"/>
      <point x="712" y="96" type="curve"/>
      <point x="712" y="34"/>
      <point x="712" y="0"/>
      <point x="796" y="0" type="curve" smooth="yes"/>
      <point x="948" y="0" type="line" smooth="yes"/>
      <point x="976" y="0"/>
      <point x="1032" y="0"/>
      <point x="1032" y="64" type="curve" smooth="yes"/>
      <point x="1032" y="130"/>
      <point x="978" y="130"/>
      <point x="948" y="130" type="curve" smooth="yes"/>
      <point x="860" y="130" type="line"/>
      <point x="860" y="1138" type="line" smooth="yes"/>
      <point x="860" y="1204"/>
      <point x="844" y="1222"/>
      <point x="776" y="1222" type="curve" smooth="yes"/>
      <point x="624" y="1222" type="line" smooth="yes"/>
      <point x="596" y="1222"/>
      <point x="540" y="1222"/>
      <point x="540" y="1158" type="curve" smooth="yes"/>
      <point x="540" y="1092"/>
      <point x="594" y="1092"/>
      <point x="624" y="1092" type="curve" smooth="yes"/>
      <point x="712" y="1092" type="line"/>
      <point x="712" y="788" type="line"/>
      <point x="668" y="826"/>
      <point x="588" y="872"/>
      <point x="482" y="872" type="curve" smooth="yes"/>
      <point x="260" y="872"/>
      <point x="68" y="680"/>
      <point x="68" y="430" type="curve" smooth="yes"/>
      <point x="68" y="184"/>
      <point x="248" y="-10"/>
    </contour>
    <contour>
      <point x="712" y="390" type="line" smooth="yes"/>
      <point x="712" y="282"/>
      <point x="622" y="120"/>
      <point x="472" y="120" type="curve" smooth="yes"/>
      <point x="334" y="120"/>
      <point x="216" y="256"/>
      <point x="216" y="430" type="curve" smooth="yes"/>
      <point x="216" y="608"/>
      <point x="346" y="742"/>
      <point x="492" y="742" type="curve" smooth="yes"/>
      <point x="612" y="742"/>
      <point x="712" y="638"/>
      <point x="712" y="530" type="curve" smooth="yes"/>
    </contour>
  </outline>
</glyph>
<glyph name="e" format="2">
	<unicode hex="0065"/>
	<advance width="525"/>
	<outline>
		<contour>
			<point x="422" y="189" type="line" smooth="yes"/>
			<point x="442" y="189"/>
			<point x="464" y="189"/>
			<point x="464" y="227" type="curve" smooth="yes"/>
			<point x="464" y="343"/>
			<point x="399" y="439"/>
			<point x="270" y="439" type="curve" smooth="yes"/>
			<point x="148" y="439"/>
			<point x="53" y="337"/>
			<point x="53" y="218" type="curve" smooth="yes"/>
			<point x="53" y="94"/>
			<point x="157" y="-5"/>
			<point x="285" y="-5" type="curve" smooth="yes"/>
			<point x="419" y="-5"/>
			<point x="464" y="85"/>
			<point x="464" y="109" type="curve" smooth="yes"/>
			<point x="464" y="130"/>
			<point x="449" y="139"/>
			<point x="427" y="139" type="curve" smooth="yes"/>
			<point x="413" y="139"/>
			<point x="400" y="139"/>
			<point x="391" y="117" type="curve" smooth="yes"/>
			<point x="367" y="60"/>
			<point x="303" y="60"/>
			<point x="292" y="60" type="curve" smooth="yes"/>
			<point x="234" y="60"/>
			<point x="150" y="94"/>
			<point x="130" y="189" type="curve"/>
		</contour>
		<contour>
			<point x="131" y="253" type="line"/>
			<point x="150" y="335"/>
			<point x="213" y="374"/>
			<point x="270" y="374" type="curve" smooth="yes"/>
			<point x="340" y="374"/>
			<point x="381" y="328"/>
			<point x="388" y="253" type="curve"/>
		</contour>
	</outline>
</glyph>
<glyph name="f" format="2">
  <advance width="1050"/>
  <unicode hex="0066"/>
  <outline>
    <contour>
      <point x="512" y="732" type="line"/>
      <point x="746" y="732" type="line" smooth="yes"/>
      <point x="774" y="732"/>
      <point x="830" y="732"/>
      <point x="830" y="796" type="curve" smooth="yes"/>
      <point x="830" y="862"/>
      <point x="776" y="862"/>
      <point x="746" y="862" type="curve" smooth="yes"/>
      <point x="512" y="862" type="line"/>
      <point x="512" y="954" type="line" smooth="yes"/>
      <point x="512" y="1100"/>
      <point x="634" y="1102"/>
      <point x="694" y="1102" type="curve"/>
      <point x="700" y="1048"/>
      <point x="742" y="1016"/>
      <point x="784" y="1016" type="curve" smooth="yes"/>
      <point x="822" y="1016"/>
      <point x="874" y="1044"/>
      <point x="874" y="1108" type="curve" smooth="yes"/>
      <point x="874" y="1232"/>
      <point x="710" y="1232"/>
      <point x="680" y="1232" type="curve" smooth="yes"/>
      <point x="526" y="1232"/>
      <point x="364" y="1146"/>
      <point x="364" y="962" type="curve" smooth="yes"/>
      <point x="364" y="862" type="line"/>
      <point x="172" y="862" type="line" smooth="yes"/>
      <point x="140" y="862"/>
      <point x="86" y="862"/>
      <point x="86" y="796" type="curve" smooth="yes"/>
      <point x="86" y="732"/>
      <point x="140" y="732"/>
      <point x="170" y="732" type="curve" smooth="yes"/>
      <point x="364" y="732" type="line"/>
      <point x="364" y="130" type="line"/>
      <point x="162" y="130" type="line" smooth="yes"/>
      <point x="134" y="130"/>
      <point x="76" y="130"/>
      <point x="76" y="66" type="curve" smooth="yes"/>
      <point x="76" y="0"/>
      <point x="132" y="0"/>
      <point x="162" y="0" type="curve" smooth="yes"/>
      <point x="714" y="0" type="line" smooth="yes"/>
      <point x="742" y="0"/>
      <point x="800" y="0"/>
      <point x="800" y="64" type="curve" smooth="yes"/>
      <point x="800" y="130"/>
      <point x="744" y="130"/>
      <point x="714" y="130" type="curve" smooth="yes"/>
      <point x="512" y="130" type="line"/>
    </contour>
  </outline>
</glyph>
<glyph name="g" format="2">
  <advance width="1050"/>
  <unicode hex="0067"/>
  <outline>
    <contour>
      <point x="58" y="-160" type="curve" smooth="yes"/>
      <point x="58" y="-336"/>
      <point x="270" y="-456"/>
      <point x="524" y="-456" type="curve" smooth="yes"/>
      <point x="776" y="-456"/>
      <point x="990" y="-336"/>
      <point x="990" y="-160" type="curve" smooth="yes"/>
      <point x="990" y="126"/>
      <point x="622" y="126"/>
      <point x="564" y="126" type="curve" smooth="yes"/>
      <point x="508" y="126"/>
      <point x="452" y="126"/>
      <point x="396" y="126" type="curve" smooth="yes"/>
      <point x="328" y="126"/>
      <point x="278" y="149"/>
      <point x="278" y="226" type="curve" smooth="yes"/>
      <point x="278" y="234"/>
      <point x="278" y="258"/>
      <point x="288" y="276" type="curve"/>
      <point x="342" y="246"/>
      <point x="404" y="228"/>
      <point x="466" y="228" type="curve" smooth="yes"/>
      <point x="654" y="228"/>
      <point x="802" y="374"/>
      <point x="802" y="550" type="curve" smooth="yes"/>
      <point x="802" y="614"/>
      <point x="784" y="670"/>
      <point x="750" y="722" type="curve"/>
      <point x="794" y="746"/>
      <point x="824" y="750"/>
      <point x="852" y="752" type="curve"/>
      <point x="864" y="700"/>
      <point x="906" y="684"/>
      <point x="934" y="684" type="curve" smooth="yes"/>
      <point x="980" y="684"/>
      <point x="1018" y="720"/>
      <point x="1018" y="768" type="curve" smooth="yes"/>
      <point x="1018" y="822"/>
      <point x="974" y="884"/>
      <point x="868" y="884" type="curve" smooth="yes"/>
      <point x="822" y="884"/>
      <point x="734" y="872"/>
      <point x="660" y="814" type="curve"/>
      <point x="604" y="850"/>
      <point x="536" y="872"/>
      <point x="466" y="872" type="curve" smooth="yes"/>
      <point x="278" y="872"/>
      <point x="130" y="726"/>
      <point x="130" y="550" type="curve" smooth="yes"/>
      <point x="130" y="476"/>
      <point x="156" y="412"/>
      <point x="192" y="364" type="curve"/>
      <point x="174" y="332"/>
      <point x="154" y="280"/>
      <point x="154" y="228" type="curve" smooth="yes"/>
      <point x="154" y="144"/>
      <point x="196" y="88"/>
      <point x="200" y="84" type="curve"/>
      <point x="64" y="0"/>
      <point x="58" y="-130"/>
    </contour>
    <contour>
      <point x="466" y="356" type="curve" smooth="yes"/>
      <point x="364" y="356"/>
      <point x="278" y="442"/>
      <point x="278" y="550" type="curve" smooth="yes"/>
      <point x="278" y="658"/>
      <point x="364" y="744"/>
      <point x="466" y="744" type="curve" smooth="yes"/>
      <point x="568" y="744"/>
      <point x="654" y="658"/>
      <point x="654" y="550" type="curve" smooth="yes"/>
      <point x="654" y="442"/>
      <point x="568" y="356"/>
    </contour>
    <contour>
      <point x="524" y="-328" type="curve" smooth="yes"/>
      <point x="328" y="-328"/>
      <point x="182" y="-246"/>
      <point x="182" y="-160" type="curve" smooth="yes"/>
      <point x="182" y="-86"/>
      <point x="246" y="-4"/>
      <point x="348" y="4" type="curve"/>
      <point x="388" y="4"/>
      <point x="428" y="4"/>
      <point x="468" y="4" type="curve" smooth="yes"/>
      <point x="648" y="4"/>
      <point x="866" y="4"/>
      <point x="866" y="-162" type="curve" smooth="yes"/>
      <point x="866" y="-242"/>
      <point x="726" y="-328"/>
    </contour>
  </outline>
</glyph>
<glyph name="h" format="2">
	<unicode hex="0068"/>
	<advance width="525"/>
	<outline>
		<contour>
			<point x="430" y="292" type="line" smooth="yes"/>
			<point x="430" y="391"/>
			<point x="381" y="436"/>
			<point x="299" y="436" type="curve" smooth="yes"/>
			<point x="252" y="436"/>
			<point x="206" y="419"/>
			<point x="168" y="386" type="curve"/>
			<point x="168" y="569" type="line" smooth="yes"/>
			<point x="168" y="602"/>
			<point x="160" y="611"/>
			<point x="126" y="611" type="curve" smooth="yes"/>
			<point x="50" y="611" type="line" smooth="yes"/>
			<point x="36" y="611"/>
			<point x="8" y="611"/>
			<point x="8" y="579" type="curve" smooth="yes"/>
			<point x="8" y="546"/>
			<point x="35" y="546"/>
			<point x="50" y="546" type="curve" smooth="yes"/>
			<point x="94" y="546" type="line"/>
			<point x="94" y="65" type="line"/>
			<point x="50" y="65" type="line" smooth="yes"/>
			<point x="36" y="65"/>
			<point x="8" y="65"/>
			<point x="8" y="33" type="curve" smooth="yes"/>
			<point x="8" y="0"/>
			<point x="35" y="0"/>
			<point x="50" y="0" type="curve" smooth="yes"/>
			<point x="212" y="0" type="line" smooth="yes"/>
			<point x="226" y="0"/>
			<point x="254" y="0"/>
			<point x="254" y="32" type="curve" smooth="yes"/>
			<point x="254" y="65"/>
			<point x="227" y="65"/>
			<point x="212" y="65" type="curve" smooth="yes"/>
			<point x="168" y="65" type="line"/>
			<point x="168" y="238" type="line" smooth="yes"/>
			<point x="168" y="336"/>
			<point x="244" y="371"/>
			<point x="293" y="371" type="curve" smooth="yes"/>
			<point x="342" y="371"/>
			<point x="356" y="347"/>
			<point x="356" y="288" type="curve" smooth="yes"/>
			<point x="356" y="65" type="line"/>
			<point x="324" y="65" type="line" smooth="yes"/>
			<point x="310" y="65"/>
			<point x="281" y="65"/>
			<point x="281" y="33" type="curve" smooth="yes"/>
			<point x="281" y="0"/>
			<point x="309" y="0"/>
			<point x="324" y="0" type="curve" smooth="yes"/>
			<point x="474" y="0" type="line" smooth="yes"/>
			<point x="488" y="0"/>
			<point x="516" y="0"/>
			<point x="516" y="32" type="curve" smooth="yes"/>
			<point x="516" y="65"/>
			<point x="489" y="65"/>
			<point x="474" y="65" type="curve" smooth="yes"/>
			<point x="430" y="65" type="line"/>
		</contour>
	</outline>
</glyph>
<glyph name="i" format="2">
	<unicode hex="0069"/>
	<advance width="525"/>
	<outline>
		<contour>
			<point x="312" y="561" type="curve" smooth="yes"/>
			<point x="312" y="589"/>
			<point x="289" y="612"/>
			<point x="261" y="612" type="curve" smooth="yes"/>
			<point x="233" y="612"/>
			<point x="210" y="589"/>
			<point x="210" y="561" type="curve" smooth="yes"/>
			<point x="210" y="533"/>
			<point x="233" y="510"/>
			<point x="261" y="510" type="curve" smooth="yes"/>
			<point x="289" y="510"/>
			<point x="312" y="533"/>
		</contour>
		<contour>
			<point x="238" y="366" type="line"/>
			<point x="238" y="65" type="line"/>
			<point x="116" y="65" type="line" smooth="yes"/>
			<point x="102" y="65"/>
			<point x="74" y="65"/>
			<point x="74" y="33" type="curve" smooth="yes"/>
			<point x="74" y="0"/>
			<point x="101" y="0"/>
			<point x="116" y="0" type="curve" smooth="yes"/>
			<point x="417" y="0" type="line" smooth="yes"/>
			<point x="431" y="0"/>
			<point x="460" y="0"/>
			<point x="460" y="32" type="curve" smooth="yes"/>
			<point x="460" y="65"/>
			<point x="432" y="65"/>
			<point x="417" y="65" type="curve" smooth="yes"/>
			<point x="312" y="65" type="line"/>
			<point x="312" y="389" type="line" smooth="yes"/>
			<point x="312" y="422"/>
			<point x="304" y="431"/>
			<point x="270" y="431" type="curve" smooth="yes"/>
			<point x="125" y="431" type="line" smooth="yes"/>
			<point x="110" y="431"/>
			<point x="82" y="431"/>
			<point x="82" y="399" type="curve" smooth="yes"/>
			<point x="82" y="366"/>
			<point x="109" y="366"/>
			<point x="125" y="366" type="curve" smooth="yes"/>
		</contour>
	</outline>
</glyph>
<glyph name="j" format="2">
  <advance width="525"/>
  <unicode hex="006A"/>
  <outline>
    <contour>
      <point x="371" y="561" type="curve" smooth="yes"/>
      <point x="371" y="589"/>
      <point x="348" y="612"/>
      <point x="320" y="612" type="curve" smooth="yes"/>
      <point x="292" y="612"/>
      <point x="269" y="589"/>
      <point x="269" y="561" type="curve" smooth="yes"/>
      <point x="269" y="533"/>
      <point x="292" y="510"/>
      <point x="320" y="510" type="curve" smooth="yes"/>
      <point x="348" y="510"/>
      <point x="371" y="533"/>
    </contour>
    <contour>
      <point x="167" y="431" type="line" smooth="yes"/>
      <point x="152" y="431"/>
      <point x="125" y="431"/>
      <point x="125" y="399" type="curve" smooth="yes"/>
      <point x="125" y="366"/>
      <point x="151" y="366"/>
      <point x="167" y="366" type="curve" smooth="yes"/>
      <point x="297" y="366" type="line"/>
      <point x="297" y="-38" type="line" smooth="yes"/>
      <point x="297" y="-54"/>
      <point x="297" y="-92"/>
      <point x="271" y="-128" type="curve" smooth="yes"/>
      <point x="245" y="-162"/>
      <point x="216" y="-162"/>
      <point x="193" y="-162" type="curve" smooth="yes"/>
      <point x="179" y="-162"/>
      <point x="173" y="-162"/>
      <point x="158" y="-161" type="curve"/>
      <point x="142" y="-159"/>
      <point x="141" y="-158"/>
      <point x="141" y="-150" type="curve" smooth="yes"/>
      <point x="140" y="-111"/>
      <point x="107" y="-102"/>
      <point x="95" y="-102" type="curve" smooth="yes"/>
      <point x="73" y="-102"/>
      <point x="48" y="-118"/>
      <point x="48" y="-150" type="curve" smooth="yes"/>
      <point x="48" y="-227"/>
      <point x="148" y="-227"/>
      <point x="188" y="-227" type="curve" smooth="yes"/>
      <point x="333" y="-227"/>
      <point x="371" y="-109"/>
      <point x="371" y="-41" type="curve" smooth="yes"/>
      <point x="371" y="389" type="line" smooth="yes"/>
      <point x="371" y="422"/>
      <point x="363" y="431"/>
      <point x="329" y="431" type="curve" smooth="yes"/>
    </contour>
  </outline>
</glyph>
<glyph name="k" format="2">
  <advance width="1050"/>
  <unicode hex="006B"/>
  <outline>
    <contour>
      <point x="578" y="508" type="line"/>
      <point x="816" y="732" type="line"/>
      <point x="886" y="732" type="line" smooth="yes"/>
      <point x="916" y="732"/>
      <point x="970" y="732"/>
      <point x="970" y="796" type="curve" smooth="yes"/>
      <point x="970" y="862"/>
      <point x="918" y="862"/>
      <point x="886" y="862" type="curve" smooth="yes"/>
      <point x="574" y="862" type="line" smooth="yes"/>
      <point x="544" y="862"/>
      <point x="488" y="862"/>
      <point x="488" y="798" type="curve" smooth="yes"/>
      <point x="488" y="732"/>
      <point x="542" y="732"/>
      <point x="574" y="732" type="curve" smooth="yes"/>
      <point x="640" y="732" type="line"/>
      <point x="336" y="446" type="line"/>
      <point x="336" y="1138" type="line" smooth="yes"/>
      <point x="336" y="1204"/>
      <point x="320" y="1222"/>
      <point x="252" y="1222" type="curve" smooth="yes"/>
      <point x="120" y="1222" type="line" smooth="yes"/>
      <point x="92" y="1222"/>
      <point x="34" y="1222"/>
      <point x="34" y="1158" type="curve" smooth="yes"/>
      <point x="34" y="1092"/>
      <point x="90" y="1092"/>
      <point x="120" y="1092" type="curve" smooth="yes"/>
      <point x="216" y="1092" type="line"/>
      <point x="216" y="130" type="line"/>
      <point x="120" y="130" type="line" smooth="yes"/>
      <point x="92" y="130"/>
      <point x="34" y="130"/>
      <point x="34" y="66" type="curve" smooth="yes"/>
      <point x="34" y="0"/>
      <point x="90" y="0"/>
      <point x="120" y="0" type="curve" smooth="yes"/>
      <point x="432" y="0" type="line" smooth="yes"/>
      <point x="460" y="0"/>
      <point x="518" y="0"/>
      <point x="518" y="64" type="curve" smooth="yes"/>
      <point x="518" y="130"/>
      <point x="462" y="130"/>
      <point x="432" y="130" type="curve" smooth="yes"/>
      <point x="336" y="130" type="line"/>
      <point x="336" y="280" type="line"/>
      <point x="490" y="426" type="line"/>
      <point x="716" y="130" type="line"/>
      <point x="652" y="130"/>
      <point x="604" y="130"/>
      <point x="604" y="64" type="curve" smooth="yes"/>
      <point x="604" y="0"/>
      <point x="662" y="0"/>
      <point x="690" y="0" type="curve" smooth="yes"/>
      <point x="930" y="0" type="line" smooth="yes"/>
      <point x="960" y="0"/>
      <point x="1014" y="0"/>
      <point x="1014" y="64" type="curve" smooth="yes"/>
      <point x="1014" y="130"/>
      <point x="962" y="130"/>
      <point x="930" y="130" type="curve" smooth="yes"/>
      <point x="868" y="130" type="line"/>
    </contour>
  </outline>
</glyph>
<glyph name="l" format="2">
  <advance width="1050"/>
  <unicode hex="006C"/>
  <outline>
    <contour>
      <point x="598" y="1138" type="line" smooth="yes"/>
      <point x="598" y="1204"/>
      <point x="582" y="1222"/>
      <point x="514" y="1222" type="curve" smooth="yes"/>
      <point x="190" y="1222" type="line" smooth="yes"/>
      <point x="160" y="1222"/>
      <point x="106" y="1222"/>
      <point x="106" y="1158" type="curve" smooth="yes"/>
      <point x="106" y="1092"/>
      <point x="158" y="1092"/>
      <point x="190" y="1092" type="curve" smooth="yes"/>
      <point x="450" y="1092" type="line"/>
      <point x="450" y="130" type="line"/>
      <point x="190" y="130" type="line" smooth="yes"/>
      <point x="160" y="130"/>
      <point x="106" y="130"/>
      <point x="106" y="66" type="curve" smooth="yes"/>
      <point x="106" y="0"/>
      <point x="158" y="0"/>
      <point x="190" y="0" type="curve" smooth="yes"/>
      <point x="858" y="0" type="line" smooth="yes"/>
      <point x="888" y="0"/>
      <point x="942" y="0"/>
      <point x="942" y="64" type="curve" smooth="yes"/>
      <point x="942" y="130"/>
      <point x="890" y="130"/>
      <point x="858" y="130" type="curve" smooth="yes"/>
      <point x="598" y="130" type="line"/>
    </contour>
  </outline>
</glyph>
<glyph name="m" format="2">
  <advance width="1050"/>
  <unicode hex="006D"/>
  <outline>
    <contour>
      <point x="918" y="604" type="line" smooth="yes"/>
      <point x="918" y="648"/>
      <point x="918" y="872"/>
      <point x="740" y="872" type="curve" smooth="yes"/>
      <point x="720" y="872"/>
      <point x="624" y="872"/>
      <point x="542" y="772" type="curve"/>
      <point x="538" y="780"/>
      <point x="500" y="872"/>
      <point x="392" y="872" type="curve" smooth="yes"/>
      <point x="346" y="872"/>
      <point x="280" y="856"/>
      <point x="222" y="804" type="curve"/>
      <point x="214" y="862"/>
      <point x="174" y="862"/>
      <point x="138" y="862" type="curve" smooth="yes"/>
      <point x="72" y="862" type="line" smooth="yes"/>
      <point x="42" y="862"/>
      <point x="-12" y="862"/>
      <point x="-12" y="798" type="curve" smooth="yes"/>
      <point x="-12" y="732"/>
      <point x="32" y="732"/>
      <point x="102" y="732" type="curve"/>
      <point x="102" y="130" type="line"/>
      <point x="32" y="130"/>
      <point x="-12" y="130"/>
      <point x="-12" y="64" type="curve" smooth="yes"/>
      <point x="-12" y="0"/>
      <point x="42" y="0"/>
      <point x="72" y="0" type="curve" smooth="yes"/>
      <point x="252" y="0" type="line" smooth="yes"/>
      <point x="282" y="0"/>
      <point x="336" y="0"/>
      <point x="336" y="64" type="curve" smooth="yes"/>
      <point x="336" y="130"/>
      <point x="292" y="130"/>
      <point x="222" y="130" type="curve"/>
      <point x="222" y="482" type="line" smooth="yes"/>
      <point x="222" y="650"/>
      <point x="304" y="742"/>
      <point x="384" y="742" type="curve" smooth="yes"/>
      <point x="424" y="742"/>
      <point x="450" y="714"/>
      <point x="450" y="590" type="curve" smooth="yes"/>
      <point x="450" y="130" type="line"/>
      <point x="432" y="130"/>
      <point x="374" y="130"/>
      <point x="374" y="66" type="curve" smooth="yes"/>
      <point x="374" y="0"/>
      <point x="428" y="0"/>
      <point x="458" y="0" type="curve" smooth="yes"/>
      <point x="600" y="0" type="line" smooth="yes"/>
      <point x="630" y="0"/>
      <point x="684" y="0"/>
      <point x="684" y="64" type="curve" smooth="yes"/>
      <point x="684" y="130"/>
      <point x="640" y="130"/>
      <point x="570" y="130" type="curve"/>
      <point x="570" y="482" type="line" smooth="yes"/>
      <point x="570" y="650"/>
      <point x="652" y="742"/>
      <point x="732" y="742" type="curve" smooth="yes"/>
      <point x="772" y="742"/>
      <point x="798" y="714"/>
      <point x="798" y="590" type="curve" smooth="yes"/>
      <point x="798" y="130" type="line"/>
      <point x="780" y="130"/>
      <point x="722" y="130"/>
      <point x="722" y="66" type="curve" smooth="yes"/>
      <point x="722" y="0"/>
      <point x="776" y="0"/>
      <point x="806" y="0" type="curve" smooth="yes"/>
      <point x="948" y="0" type="line" smooth="yes"/>
      <point x="978" y="0"/>
      <point x="1032" y="0"/>
      <point x="1032" y="64" type="curve" smooth="yes"/>
      <point x="1032" y="130"/>
      <point x="988" y="130"/>
      <point x="918" y="130" type="curve"/>
    </contour>
  </outline>
</glyph>
<glyph name="n" format="2">
  <advance width="1050"/>
  <unicode hex="006E"/>
  <outline>
    <contour>
      <point x="860" y="584" type="line" smooth="yes"/>
      <point x="860" y="782"/>
      <point x="762" y="872"/>
      <point x="598" y="872" type="curve" smooth="yes"/>
      <point x="504" y="872"/>
      <point x="412" y="838"/>
      <point x="336" y="772" type="curve"/>
      <point x="336" y="828"/>
      <point x="334" y="862"/>
      <point x="252" y="862" type="curve" smooth="yes"/>
      <point x="100" y="862" type="line" smooth="yes"/>
      <point x="72" y="862"/>
      <point x="16" y="862"/>
      <point x="16" y="798" type="curve" smooth="yes"/>
      <point x="16" y="732"/>
      <point x="70" y="732"/>
      <point x="100" y="732" type="curve" smooth="yes"/>
      <point x="188" y="732" type="line"/>
      <point x="188" y="130" type="line"/>
      <point x="100" y="130" type="line" smooth="yes"/>
      <point x="72" y="130"/>
      <point x="16" y="130"/>
      <point x="16" y="66" type="curve" smooth="yes"/>
      <point x="16" y="0"/>
      <point x="70" y="0"/>
      <point x="100" y="0" type="curve" smooth="yes"/>
      <point x="424" y="0" type="line" smooth="yes"/>
      <point x="452" y="0"/>
      <point x="508" y="0"/>
      <point x="508" y="64" type="curve" smooth="yes"/>
      <point x="508" y="130"/>
      <point x="454" y="130"/>
      <point x="424" y="130" type="curve" smooth="yes"/>
      <point x="336" y="130" type="line"/>
      <point x="336" y="476" type="line" smooth="yes"/>
      <point x="336" y="672"/>
      <point x="488" y="742"/>
      <point x="586" y="742" type="curve" smooth="yes"/>
      <point x="684" y="742"/>
      <point x="712" y="694"/>
      <point x="712" y="576" type="curve" smooth="yes"/>
      <point x="712" y="130" type="line"/>
      <point x="648" y="130" type="line" smooth="yes"/>
      <point x="620" y="130"/>
      <point x="562" y="130"/>
      <point x="562" y="66" type="curve" smooth="yes"/>
      <point x="562" y="0"/>
      <point x="618" y="0"/>
      <point x="648" y="0" type="curve" smooth="yes"/>
      <point x="948" y="0" type="line" smooth="yes"/>
      <point x="976" y="0"/>
      <point x="1032" y="0"/>
      <point x="1032" y="64" type="curve" smooth="yes"/>
      <point x="1032" y="130"/>
      <point x="978" y="130"/>
      <point x="948" y="130" type="curve" smooth="yes"/>
      <point x="860" y="130" type="line"/>
    </contour>
  </outline>
</glyph>
<glyph name="o" format="2">
  <advance width="1050"/>
  <unicode hex="006F"/>
  <outline>
    <contour>
      <point x="938" y="432" type="curve" smooth="yes"/>
      <point x="938" y="680"/>
      <point x="750" y="878"/>
      <point x="524" y="878" type="curve" smooth="yes"/>
      <point x="298" y="878"/>
      <point x="110" y="680"/>
      <point x="110" y="432" type="curve" smooth="yes"/>
      <point x="110" y="184"/>
      <point x="300" y="-10"/>
      <point x="524" y="-10" type="curve" smooth="yes"/>
      <point x="748" y="-10"/>
      <point x="938" y="184"/>
    </contour>
    <contour>
      <point x="524" y="120" type="curve" smooth="yes"/>
      <point x="378" y="120"/>
      <point x="258" y="266"/>
      <point x="258" y="446" type="curve" smooth="yes"/>
      <point x="258" y="624"/>
      <point x="386" y="748"/>
      <point x="524" y="748" type="curve" smooth="yes"/>
      <point x="664" y="748"/>
      <point x="790" y="624"/>
      <point x="790" y="446" type="curve" smooth="yes"/>
      <point x="790" y="266"/>
      <point x="670" y="120"/>
    </contour>
  </outline>
</glyph>
<glyph name="p" format="2">
  <advance width="1050"/>
  <unicode hex="0070"/>
  <outline>
    <contour>
      <point x="424" y="-444" type="line" smooth="yes"/>
      <point x="452" y="-444"/>
      <point x="508" y="-444"/>
      <point x="508" y="-380" type="curve" smooth="yes"/>
      <point x="508" y="-314"/>
      <point x="454" y="-314"/>
      <point x="424" y="-314" type="curve" smooth="yes"/>
      <point x="336" y="-314" type="line"/>
      <point x="336" y="86" type="line"/>
      <point x="398" y="26"/>
      <point x="476" y="-10"/>
      <point x="564" y="-10" type="curve" smooth="yes"/>
      <point x="786" y="-10"/>
      <point x="980" y="180"/>
      <point x="980" y="432" type="curve" smooth="yes"/>
      <point x="980" y="670"/>
      <point x="808" y="872"/>
      <point x="584" y="872" type="curve" smooth="yes"/>
      <point x="490" y="872"/>
      <point x="406" y="838"/>
      <point x="336" y="780" type="curve"/>
      <point x="336" y="852"/>
      <point x="310" y="862"/>
      <point x="252" y="862" type="curve" smooth="yes"/>
      <point x="100" y="862" type="line" smooth="yes"/>
      <point x="72" y="862"/>
      <point x="16" y="862"/>
      <point x="16" y="798" type="curve" smooth="yes"/>
      <point x="16" y="732"/>
      <point x="70" y="732"/>
      <point x="100" y="732" type="curve" smooth="yes"/>
      <point x="188" y="732" type="line"/>
      <point x="188" y="-314" type="line"/>
      <point x="100" y="-314" type="line" smooth="yes"/>
      <point x="72" y="-314"/>
      <point x="16" y="-314"/>
      <point x="16" y="-378" type="curve" smooth="yes"/>
      <point x="16" y="-444"/>
      <point x="70" y="-444"/>
      <point x="100" y="-444" type="curve" smooth="yes"/>
    </contour>
    <contour>
      <point x="336" y="526" type="line" smooth="yes"/>
      <point x="336" y="644"/>
      <point x="454" y="742"/>
      <point x="576" y="742" type="curve" smooth="yes"/>
      <point x="714" y="742"/>
      <point x="832" y="606"/>
      <point x="832" y="432" type="curve" smooth="yes"/>
      <point x="832" y="254"/>
      <point x="702" y="120"/>
      <point x="556" y="120" type="curve" smooth="yes"/>
      <point x="414" y="120"/>
      <point x="336" y="282"/>
      <point x="336" y="386" type="curve" smooth="yes"/>
    </contour>
  </outline>
</glyph>
<glyph name="q" format="2">
	<unicode hex="0071"/>
	<advance width="525"/>
	<outline>
		<contour>
			<point x="38" y="215" type="curve" smooth="yes"/>
			<point x="38" y="94"/>
			<point x="130" y="-5"/>
			<point x="244" y="-5" type="curve" smooth="yes"/>
			<point x="316" y="-5"/>
			<point x="363" y="37"/>
			<point x="377" y="51" type="curve"/>
			<point x="377" y="-157" type="line"/>
			<point x="329" y="-157" type="line" smooth="yes"/>
			<point x="315" y="-157"/>
			<point x="286" y="-157"/>
			<point x="286" y="-189" type="curve" smooth="yes"/>
			<point x="286" y="-222"/>
			<point x="314" y="-222"/>
			<point x="329" y="-222" type="curve" smooth="yes"/>
			<point x="499" y="-222" type="line" smooth="yes"/>
			<point x="513" y="-222"/>
			<point x="542" y="-222"/>
			<point x="542" y="-190" type="curve" smooth="yes"/>
			<point x="542" y="-157"/>
			<point x="514" y="-157"/>
			<point x="499" y="-157" type="curve" smooth="yes"/>
			<point x="451" y="-157" type="line"/>
			<point x="451" y="394" type="line" smooth="yes"/>
			<point x="451" y="413"/>
			<point x="451" y="436"/>
			<point x="414" y="436" type="curve" smooth="yes"/>
			<point x="377" y="436"/>
			<point x="377" y="416"/>
			<point x="377" y="385" type="curve"/>
			<point x="377" y="385" type="line"/>
			<point x="345" y="415"/>
			<point x="306" y="436"/>
			<point x="254" y="436" type="curve" smooth="yes"/>
			<point x="140" y="436"/>
			<point x="38" y="341"/>
		</contour>
		<contour>
			<point x="248" y="60" type="curve" smooth="yes"/>
			<point x="176" y="60"/>
			<point x="112" y="128"/>
			<point x="112" y="215" type="curve" smooth="yes"/>
			<point x="112" y="306"/>
			<point x="183" y="371"/>
			<point x="258" y="371" type="curve" smooth="yes"/>
			<point x="334" y="371"/>
			<point x="377" y="294"/>
			<point x="377" y="234" type="curve" smooth="yes"/>
			<point x="377" y="193" type="line" smooth="yes"/>
			<point x="377" y="138"/>
			<point x="328" y="60"/>
		</contour>
	</outline>
</glyph>
<glyph name="r" format="2">
  <advance width="1050"/>
  <unicode hex="0072"/>
  <outline>
    <contour>
      <point x="448" y="368" type="line" smooth="yes"/>
      <point x="448" y="570"/>
      <point x="582" y="742"/>
      <point x="798" y="742" type="curve"/>
      <point x="798" y="742"/>
      <point x="798" y="742"/>
      <point x="798" y="742" type="curve"/>
      <point x="804" y="668"/>
      <point x="860" y="654"/>
      <point x="886" y="654" type="curve" smooth="yes"/>
      <point x="932" y="654"/>
      <point x="974" y="688"/>
      <point x="974" y="744" type="curve" smooth="yes"/>
      <point x="974" y="782"/>
      <point x="950" y="872"/>
      <point x="784" y="872" type="curve" smooth="yes"/>
      <point x="670" y="872"/>
      <point x="544" y="824"/>
      <point x="448" y="716" type="curve"/>
      <point x="448" y="778" type="line" smooth="yes"/>
      <point x="448" y="844"/>
      <point x="432" y="862"/>
      <point x="364" y="862" type="curve" smooth="yes"/>
      <point x="140" y="862" type="line" smooth="yes"/>
      <point x="110" y="862"/>
      <point x="54" y="862"/>
      <point x="54" y="798" type="curve" smooth="yes"/>
      <point x="54" y="732"/>
      <point x="108" y="732"/>
      <point x="140" y="732" type="curve" smooth="yes"/>
      <point x="300" y="732" type="line"/>
      <point x="300" y="130" type="line"/>
      <point x="140" y="130" type="line" smooth="yes"/>
      <point x="110" y="130"/>
      <point x="54" y="130"/>
      <point x="54" y="66" type="curve" smooth="yes"/>
      <point x="54" y="0"/>
      <point x="108" y="0"/>
      <point x="140" y="0" type="curve" smooth="yes"/>
      <point x="670" y="0" type="line" smooth="yes"/>
      <point x="698" y="0"/>
      <point x="756" y="0"/>
      <point x="756" y="64" type="curve" smooth="yes"/>
      <point x="756" y="130"/>
      <point x="700" y="130"/>
      <point x="670" y="130" type="curve" smooth="yes"/>
      <point x="448" y="130" type="line"/>
    </contour>
  </outline>
</glyph>
<glyph name="s" format="2">
	<unicode hex="0073"/>
	<advance width="525"/>
	<outline>
		<contour>
			<point x="72" y="320" type="curve" smooth="yes"/>
			<point x="72" y="248"/>
			<point x="144" y="217"/>
			<point x="210" y="206" type="curve" smooth="yes"/>
			<point x="231" y="202"/>
			<point x="256" y="198"/>
			<point x="289" y="193" type="curve" smooth="yes"/>
			<point x="315" y="189"/>
			<point x="394" y="176"/>
			<point x="394" y="126" type="curve" smooth="yes"/>
			<point x="394" y="95"/>
			<point x="365" y="60"/>
			<point x="269" y="60" type="curve" smooth="yes"/>
			<point x="208" y="60"/>
			<point x="168" y="81"/>
			<point x="148" y="140" type="curve" smooth="yes"/>
			<point x="141" y="160"/>
			<point x="137" y="171"/>
			<point x="109" y="171" type="curve" smooth="yes"/>
			<point x="72" y="171"/>
			<point x="72" y="148"/>
			<point x="72" y="128" type="curve" smooth="yes"/>
			<point x="72" y="37" type="line" smooth="yes"/>
			<point x="72" y="22"/>
			<point x="72" y="-5"/>
			<point x="104" y="-5" type="curve" smooth="yes"/>
			<point x="119" y="-5"/>
			<point x="133" y="2"/>
			<point x="141" y="30" type="curve"/>
			<point x="191" y="-5"/>
			<point x="249" y="-5"/>
			<point x="269" y="-5" type="curve" smooth="yes"/>
			<point x="435" y="-5"/>
			<point x="459" y="87"/>
			<point x="459" y="126" type="curve" smooth="yes"/>
			<point x="459" y="200"/>
			<point x="393" y="241"/>
			<point x="308" y="255" type="curve" smooth="yes"/>
			<point x="291" y="258"/>
			<point x="270" y="262"/>
			<point x="245" y="266" type="curve" smooth="yes"/>
			<point x="203" y="272"/>
			<point x="137" y="283"/>
			<point x="137" y="320" type="curve" smooth="yes"/>
			<point x="137" y="346"/>
			<point x="169" y="374"/>
			<point x="260" y="374" type="curve" smooth="yes"/>
			<point x="351" y="374"/>
			<point x="354" y="340"/>
			<point x="355" y="318" type="curve" smooth="yes"/>
			<point x="357" y="290"/>
			<point x="384" y="290"/>
			<point x="392" y="290" type="curve" smooth="yes"/>
			<point x="429" y="290"/>
			<point x="429" y="313"/>
			<point x="429" y="332" type="curve" smooth="yes"/>
			<point x="429" y="397" type="line" smooth="yes"/>
			<point x="429" y="412"/>
			<point x="429" y="439"/>
			<point x="397" y="439" type="curve" smooth="yes"/>
			<point x="374" y="439"/>
			<point x="369" y="427"/>
			<point x="366" y="420" type="curve"/>
			<point x="328" y="439"/>
			<point x="279" y="439"/>
			<point x="262" y="439" type="curve" smooth="yes"/>
			<point x="87" y="439"/>
			<point x="72" y="348"/>
		</contour>
	</outline>
</glyph>
<glyph name="t" format="2">
  <advance width="1050"/>
  <unicode hex="0074"/>
  <outline>
    <contour>
      <point x="450" y="732" type="line"/>
      <point x="768" y="732" type="line" smooth="yes"/>
      <point x="796" y="732"/>
      <point x="852" y="732"/>
      <point x="852" y="796" type="curve" smooth="yes"/>
      <point x="852" y="862"/>
      <point x="798" y="862"/>
      <point x="768" y="862" type="curve" smooth="yes"/>
      <point x="450" y="862" type="line"/>
      <point x="450" y="1024" type="line" smooth="yes"/>
      <point x="450" y="1062"/>
      <point x="450" y="1108"/>
      <point x="376" y="1108" type="curve" smooth="yes"/>
      <point x="302" y="1108"/>
      <point x="302" y="1062"/>
      <point x="302" y="1022" type="curve" smooth="yes"/>
      <point x="302" y="862" type="line"/>
      <point x="136" y="862" type="line" smooth="yes"/>
      <point x="104" y="862"/>
      <point x="50" y="862"/>
      <point x="50" y="796" type="curve" smooth="yes"/>
      <point x="50" y="732"/>
      <point x="104" y="732"/>
      <point x="134" y="732" type="curve" smooth="yes"/>
      <point x="302" y="732" type="line"/>
      <point x="302" y="268" type="line" smooth="yes"/>
      <point x="302" y="60"/>
      <point x="446" y="-10"/>
      <point x="588" y="-10" type="curve" smooth="yes"/>
      <point x="760" y="-10"/>
      <point x="898" y="110"/>
      <point x="898" y="258" type="curve" smooth="yes"/>
      <point x="898" y="328"/>
      <point x="846" y="328"/>
      <point x="824" y="328" type="curve" smooth="yes"/>
      <point x="792" y="328"/>
      <point x="752" y="324"/>
      <point x="750" y="260" type="curve" smooth="yes"/>
      <point x="746" y="164"/>
      <point x="666" y="120"/>
      <point x="598" y="120" type="curve" smooth="yes"/>
      <point x="450" y="120"/>
      <point x="450" y="228"/>
      <point x="450" y="276" type="curve" smooth="yes"/>
    </contour>
  </outline>
</glyph>
<glyph name="u" format="2">
  <advance width="1050"/>
  <unicode hex="0075"/>
  <outline>
    <contour>
      <point x="712" y="60" type="curve"/>
      <point x="720" y="0"/>
      <point x="760" y="0"/>
      <point x="796" y="0" type="curve" smooth="yes"/>
      <point x="948" y="0" type="line" smooth="yes"/>
      <point x="976" y="0"/>
      <point x="1032" y="0"/>
      <point x="1032" y="64" type="curve" smooth="yes"/>
      <point x="1032" y="130"/>
      <point x="978" y="130"/>
      <point x="948" y="130" type="curve" smooth="yes"/>
      <point x="860" y="130" type="line"/>
      <point x="860" y="778" type="line" smooth="yes"/>
      <point x="860" y="844"/>
      <point x="844" y="862"/>
      <point x="776" y="862" type="curve" smooth="yes"/>
      <point x="624" y="862" type="line" smooth="yes"/>
      <point x="596" y="862"/>
      <point x="540" y="862"/>
      <point x="540" y="798" type="curve" smooth="yes"/>
      <point x="540" y="732"/>
      <point x="594" y="732"/>
      <point x="624" y="732" type="curve" smooth="yes"/>
      <point x="712" y="732" type="line"/>
      <point x="712" y="312" type="line" smooth="yes"/>
      <point x="712" y="144"/>
      <point x="558" y="120"/>
      <point x="490" y="120" type="curve" smooth="yes"/>
      <point x="336" y="120"/>
      <point x="336" y="178"/>
      <point x="336" y="240" type="curve" smooth="yes"/>
      <point x="336" y="778" type="line" smooth="yes"/>
      <point x="336" y="844"/>
      <point x="320" y="862"/>
      <point x="252" y="862" type="curve" smooth="yes"/>
      <point x="100" y="862" type="line" smooth="yes"/>
      <point x="72" y="862"/>
      <point x="16" y="862"/>
      <point x="16" y="798" type="curve" smooth="yes"/>
      <point x="16" y="732"/>
      <point x="70" y="732"/>
      <point x="100" y="732" type="curve" smooth="yes"/>
      <point x="188" y="732" type="line"/>
      <point x="188" y="230" type="line" smooth="yes"/>
      <point x="188" y="42"/>
      <point x="322" y="-10"/>
      <point x="476" y="-10" type="curve" smooth="yes"/>
      <point x="546" y="-10"/>
      <point x="626" y="0"/>
    </contour>
  </outline>
</glyph>
<glyph name="v" format="2">
  <advance width="1050"/>
  <unicode hex="0076"/>
  <outline>
    <contour>
      <point x="856" y="732" type="line"/>
      <point x="914" y="732" type="line" smooth="yes"/>
      <point x="944" y="732"/>
      <point x="1000" y="732"/>
      <point x="1000" y="796" type="curve" smooth="yes"/>
      <point x="1000" y="862"/>
      <point x="946" y="862"/>
      <point x="914" y="862" type="curve" smooth="yes"/>
      <point x="678" y="862" type="line" smooth="yes"/>
      <point x="650" y="862"/>
      <point x="592" y="862"/>
      <point x="592" y="798" type="curve" smooth="yes"/>
      <point x="592" y="732"/>
      <point x="648" y="732"/>
      <point x="678" y="732" type="curve" smooth="yes"/>
      <point x="730" y="732" type="line"/>
      <point x="524" y="108" type="line"/>
      <point x="318" y="732" type="line"/>
      <point x="370" y="732" type="line" smooth="yes"/>
      <point x="398" y="732"/>
      <point x="456" y="732"/>
      <point x="456" y="796" type="curve" smooth="yes"/>
      <point x="456" y="862"/>
      <point x="400" y="862"/>
      <point x="370" y="862" type="curve" smooth="yes"/>
      <point x="134" y="862" type="line" smooth="yes"/>
      <point x="104" y="862"/>
      <point x="48" y="862"/>
      <point x="48" y="798" type="curve" smooth="yes"/>
      <point x="48" y="732"/>
      <point x="102" y="732"/>
      <point x="134" y="732" type="curve" smooth="yes"/>
      <point x="192" y="732" type="line"/>
      <point x="412" y="64" type="line" smooth="yes"/>
      <point x="436" y="-10"/>
      <point x="482" y="-10"/>
      <point x="524" y="-10" type="curve" smooth="yes"/>
      <point x="562" y="-10"/>
      <point x="612" y="-10"/>
      <point x="636" y="62" type="curve" smooth="yes"/>
    </contour>
  </outline>
</glyph>
<glyph name="w" format="2">
  <advance width="1050"/>
  <unicode hex="0077"/>
  <outline>
    <contour>
      <point x="912" y="732" type="line"/>
      <point x="968" y="732"/>
      <point x="1016" y="732"/>
      <point x="1016" y="798" type="curve" smooth="yes"/>
      <point x="1016" y="862"/>
      <point x="962" y="862"/>
      <point x="932" y="862" type="curve" smooth="yes"/>
      <point x="690" y="862" type="line" smooth="yes"/>
      <point x="662" y="862"/>
      <point x="604" y="862"/>
      <point x="604" y="798" type="curve" smooth="yes"/>
      <point x="604" y="732"/>
      <point x="660" y="732"/>
      <point x="690" y="732" type="curve" smooth="yes"/>
      <point x="790" y="732" type="line"/>
      <point x="698" y="154" type="line"/>
      <point x="696" y="154" type="line"/>
      <point x="688" y="208"/>
      <point x="656" y="320"/>
      <point x="640" y="380" type="curve" smooth="yes"/>
      <point x="610" y="486"/>
      <point x="602" y="518"/>
      <point x="528" y="518" type="curve" smooth="yes"/>
      <point x="456" y="518"/>
      <point x="448" y="488"/>
      <point x="416" y="372" type="curve" smooth="yes"/>
      <point x="394" y="298"/>
      <point x="368" y="204"/>
      <point x="360" y="154" type="curve"/>
      <point x="358" y="154" type="line"/>
      <point x="258" y="732" type="line"/>
      <point x="358" y="732" type="line" smooth="yes"/>
      <point x="386" y="732"/>
      <point x="444" y="732"/>
      <point x="444" y="796" type="curve" smooth="yes"/>
      <point x="444" y="862"/>
      <point x="388" y="862"/>
      <point x="358" y="862" type="curve" smooth="yes"/>
      <point x="116" y="862" type="line" smooth="yes"/>
      <point x="86" y="862"/>
      <point x="32" y="862"/>
      <point x="32" y="798" type="curve" smooth="yes"/>
      <point x="32" y="732"/>
      <point x="80" y="732"/>
      <point x="136" y="732" type="curve"/>
      <point x="252" y="66" type="line" smooth="yes"/>
      <point x="266" y="-10"/>
      <point x="310" y="-10"/>
      <point x="350" y="-10" type="curve" smooth="yes"/>
      <point x="436" y="-10"/>
      <point x="442" y="10"/>
      <point x="476" y="130" type="curve" smooth="yes"/>
      <point x="522" y="292"/>
      <point x="524" y="332"/>
      <point x="526" y="360" type="curve"/>
      <point x="528" y="360" type="line"/>
      <point x="534" y="304"/>
      <point x="568" y="180"/>
      <point x="580" y="136" type="curve" smooth="yes"/>
      <point x="614" y="16"/>
      <point x="620" y="-10"/>
      <point x="702" y="-10" type="curve" smooth="yes"/>
      <point x="738" y="-10"/>
      <point x="782" y="-10"/>
      <point x="796" y="66" type="curve" smooth="yes"/>
    </contour>
  </outline>
</glyph>
<glyph name="x" format="2">
  <advance width="1050"/>
  <unicode hex="0078"/>
  <outline>
    <contour>
      <point x="578" y="444" type="line"/>
      <point x="796" y="732" type="line"/>
      <point x="876" y="732" type="line" smooth="yes"/>
      <point x="906" y="732"/>
      <point x="960" y="732"/>
      <point x="960" y="796" type="curve" smooth="yes"/>
      <point x="960" y="862"/>
      <point x="908" y="862"/>
      <point x="876" y="862" type="curve" smooth="yes"/>
      <point x="638" y="862" type="line" smooth="yes"/>
      <point x="608" y="862"/>
      <point x="554" y="862"/>
      <point x="554" y="798" type="curve" smooth="yes"/>
      <point x="554" y="732"/>
      <point x="602" y="732"/>
      <point x="652" y="732" type="curve"/>
      <point x="518" y="546" type="line"/>
      <point x="380" y="732" type="line"/>
      <point x="428" y="732"/>
      <point x="476" y="732"/>
      <point x="476" y="798" type="curve" smooth="yes"/>
      <point x="476" y="862"/>
      <point x="422" y="862"/>
      <point x="392" y="862" type="curve" smooth="yes"/>
      <point x="154" y="862" type="line" smooth="yes"/>
      <point x="124" y="862"/>
      <point x="70" y="862"/>
      <point x="70" y="798" type="curve" smooth="yes"/>
      <point x="70" y="732"/>
      <point x="122" y="732"/>
      <point x="154" y="732" type="curve" smooth="yes"/>
      <point x="234" y="732" type="line"/>
      <point x="460" y="444" type="line"/>
      <point x="222" y="130" type="line"/>
      <point x="142" y="130" type="line" smooth="yes"/>
      <point x="110" y="130"/>
      <point x="58" y="130"/>
      <point x="58" y="64" type="curve" smooth="yes"/>
      <point x="58" y="0"/>
      <point x="112" y="0"/>
      <point x="142" y="0" type="curve" smooth="yes"/>
      <point x="380" y="0" type="line" smooth="yes"/>
      <point x="410" y="0"/>
      <point x="464" y="0"/>
      <point x="464" y="64" type="curve" smooth="yes"/>
      <point x="464" y="130"/>
      <point x="418" y="130"/>
      <point x="360" y="130" type="curve"/>
      <point x="518" y="362" type="line"/>
      <point x="682" y="130" type="line"/>
      <point x="630" y="130"/>
      <point x="582" y="130"/>
      <point x="582" y="64" type="curve" smooth="yes"/>
      <point x="582" y="0"/>
      <point x="636" y="0"/>
      <point x="666" y="0" type="curve" smooth="yes"/>
      <point x="904" y="0" type="line" smooth="yes"/>
      <point x="934" y="0"/>
      <point x="988" y="0"/>
      <point x="988" y="64" type="curve" smooth="yes"/>
      <point x="988" y="130"/>
      <point x="936" y="130"/>
      <point x="904" y="130" type="curve" smooth="yes"/>
      <point x="824" y="130" type="line"/>
    </contour>
  </outline>
</glyph>
<glyph name="y" format="2">
  <advance width="1050"/>
  <unicode hex="0079"/>
  <outline>
    <contour>
      <point x="856" y="732" type="line"/>
      <point x="890" y="732"/>
      <point x="946" y="732"/>
      <point x="956" y="736" type="curve" smooth="yes"/>
      <point x="974" y="742"/>
      <point x="1000" y="754"/>
      <point x="1000" y="798" type="curve" smooth="yes"/>
      <point x="1000" y="862"/>
      <point x="944" y="862"/>
      <point x="910" y="862" type="curve" smooth="yes"/>
      <point x="682" y="862" type="line" smooth="yes"/>
      <point x="648" y="862"/>
      <point x="592" y="862"/>
      <point x="592" y="798" type="curve" smooth="yes"/>
      <point x="592" y="772"/>
      <point x="606" y="744"/>
      <point x="634" y="736" type="curve" smooth="yes"/>
      <point x="646" y="732"/>
      <point x="698" y="732"/>
      <point x="730" y="732" type="curve"/>
      <point x="697" y="632"/>
      <point x="665" y="532"/>
      <point x="632" y="432" type="curve" smooth="yes"/>
      <point x="576" y="260"/>
      <point x="554" y="192"/>
      <point x="544" y="152" type="curve"/>
      <point x="542" y="152" type="line"/>
      <point x="528" y="210"/>
      <point x="488" y="314"/>
      <point x="436" y="454" type="curve" smooth="yes"/>
      <point x="328" y="732" type="line"/>
      <point x="358" y="732"/>
      <point x="408" y="732"/>
      <point x="420" y="736" type="curve" smooth="yes"/>
      <point x="446" y="746"/>
      <point x="460" y="768"/>
      <point x="460" y="798" type="curve" smooth="yes"/>
      <point x="460" y="862"/>
      <point x="406" y="862"/>
      <point x="370" y="862" type="curve" smooth="yes"/>
      <point x="142" y="862" type="line" smooth="yes"/>
      <point x="110" y="862"/>
      <point x="52" y="862"/>
      <point x="52" y="798" type="curve" smooth="yes"/>
      <point x="52" y="760"/>
      <point x="78" y="742"/>
      <point x="94" y="736" type="curve" smooth="yes"/>
      <point x="106" y="732"/>
      <point x="162" y="732"/>
      <point x="198" y="732" type="curve"/>
      <point x="293" y="489"/>
      <point x="387" y="246"/>
      <point x="482" y="2" type="curve"/>
      <point x="480" y="-10"/>
      <point x="436" y="-160"/>
      <point x="406" y="-218" type="curve" smooth="yes"/>
      <point x="362" y="-298"/>
      <point x="304" y="-320"/>
      <point x="254" y="-324" type="curve"/>
      <point x="262" y="-314"/>
      <point x="268" y="-300"/>
      <point x="268" y="-286" type="curve" smooth="yes"/>
      <point x="268" y="-218"/>
      <point x="214" y="-196"/>
      <point x="178" y="-196" type="curve" smooth="yes"/>
      <point x="122" y="-196"/>
      <point x="86" y="-234"/>
      <point x="86" y="-288" type="curve" smooth="yes"/>
      <point x="86" y="-368"/>
      <point x="148" y="-454"/>
      <point x="252" y="-454" type="curve" smooth="yes"/>
      <point x="392" y="-454"/>
      <point x="500" y="-330"/>
      <point x="558" y="-158" type="curve" smooth="yes"/>
    </contour>
  </outline>
</glyph>
<glyph name="z" format="2">
  <advance width="1050"/>
  <unicode hex="007A"/>
  <outline>
    <contour>
      <point x="718" y="732" type="line"/>
      <point x="94" y="140" type="line" smooth="yes"/>
      <point x="66" y="114"/>
      <point x="66" y="96"/>
      <point x="66" y="74" type="curve" smooth="yes"/>
      <point x="66" y="0"/>
      <point x="112" y="0"/>
      <point x="152" y="0" type="curve" smooth="yes"/>
      <point x="866" y="0" type="line" smooth="yes"/>
      <point x="932" y="0"/>
      <point x="950" y="16"/>
      <point x="950" y="84" type="curve" smooth="yes"/>
      <point x="950" y="206" type="line" smooth="yes"/>
      <point x="950" y="244"/>
      <point x="950" y="290"/>
      <point x="876" y="290" type="curve" smooth="yes"/>
      <point x="802" y="290"/>
      <point x="802" y="244"/>
      <point x="802" y="206" type="curve" smooth="yes"/>
      <point x="802" y="130" type="line"/>
      <point x="290" y="130" type="line"/>
      <point x="914" y="722" type="line" smooth="yes"/>
      <point x="942" y="748"/>
      <point x="942" y="766"/>
      <point x="942" y="788" type="curve" smooth="yes"/>
      <point x="942" y="862"/>
      <point x="896" y="862"/>
      <point x="856" y="862" type="curve" smooth="yes"/>
      <point x="184" y="862" type="line" smooth="yes"/>
      <point x="116" y="862"/>
      <point x="98" y="846"/>
      <point x="98" y="776" type="curve" smooth="yes"/>
      <point x="98" y="680" type="line" smooth="yes"/>
      <point x="98" y="642"/>
      <point x="98" y="596"/>
      <point x="172" y="596" type="curve" smooth="yes"/>
      <point x="246" y="596"/>
      <point x="246" y="642"/>
      <point x="246" y="680" type="curve" smooth="yes"/>
      <point x="246" y="732" type="line"/>
    </contour>
  </outline>
</glyph>
<glyph name="braceleft" format="2">
  <advance width="1050"/>
  <unicode hex="007B"/>
  <outline>
    <contour>
      <point x="598" y="414" type="line" smooth="yes"/>
      <point x="598" y="452"/>
      <point x="598" y="550"/>
      <point x="486" y="610" type="curve"/>
      <point x="598" y="674"/>
      <point x="598" y="770"/>
      <point x="598" y="808" type="curve" smooth="yes"/>
      <point x="598" y="1128" type="line" smooth="yes"/>
      <point x="598" y="1178"/>
      <point x="598" y="1254"/>
      <point x="860" y="1258" type="curve" smooth="yes"/>
      <point x="884" y="1258"/>
      <point x="938" y="1258"/>
      <point x="938" y="1322" type="curve" smooth="yes"/>
      <point x="938" y="1388"/>
      <point x="886" y="1388"/>
      <point x="850" y="1388" type="curve" smooth="yes"/>
      <point x="800" y="1388"/>
      <point x="666" y="1384"/>
      <point x="566" y="1332" type="curve" smooth="yes"/>
      <point x="450" y="1272"/>
      <point x="450" y="1174"/>
      <point x="450" y="1136" type="curve" smooth="yes"/>
      <point x="450" y="816" type="line" smooth="yes"/>
      <point x="450" y="768"/>
      <point x="450" y="680"/>
      <point x="184" y="676" type="curve"/>
      <point x="164" y="676"/>
      <point x="110" y="674"/>
      <point x="110" y="612" type="curve" smooth="yes"/>
      <point x="110" y="548"/>
      <point x="164" y="546"/>
      <point x="182" y="546" type="curve" smooth="yes"/>
      <point x="450" y="540"/>
      <point x="450" y="456"/>
      <point x="450" y="406" type="curve" smooth="yes"/>
      <point x="450" y="86" type="line" smooth="yes"/>
      <point x="450" y="34"/>
      <point x="454" y="-58"/>
      <point x="580" y="-118" type="curve" smooth="yes"/>
      <point x="670" y="-162"/>
      <point x="802" y="-166"/>
      <point x="850" y="-166" type="curve" smooth="yes"/>
      <point x="886" y="-166"/>
      <point x="938" y="-166"/>
      <point x="938" y="-100" type="curve" smooth="yes"/>
      <point x="938" y="-38"/>
      <point x="882" y="-36"/>
      <point x="866" y="-36" type="curve" smooth="yes"/>
      <point x="598" y="-32"/>
      <point x="598" y="40"/>
      <point x="598" y="94" type="curve" smooth="yes"/>
    </contour>
  </outline>
</glyph>
<glyph name="bar" format="2">
  <advance width="525"/>
  <unicode hex="007C"/>
  <outline>
    <contour>
      <point x="300" y="645" type="line" smooth="yes"/>
      <point x="300" y="656"/>
      <point x="300" y="694"/>
      <point x="263" y="694" type="curve" smooth="yes"/>
      <point x="225" y="694"/>
      <point x="225" y="657"/>
      <point x="225" y="645" type="curve" smooth="yes"/>
      <point x="225" y="-34" type="line" smooth="yes"/>
      <point x="225" y="-45"/>
      <point x="225" y="-83"/>
      <point x="262" y="-83" type="curve" smooth="yes"/>
      <point x="300" y="-83"/>
      <point x="300" y="-46"/>
      <point x="300" y="-34" type="curve" smooth="yes"/>
    </contour>
  </outline>
</glyph>
<glyph name="braceright" format="2">
  <advance width="1050"/>
  <unicode hex="007D"/>
  <outline>
    <contour>
      <point x="598" y="406" type="line" smooth="yes"/>
      <point x="598" y="454"/>
      <point x="598" y="542"/>
      <point x="864" y="546" type="curve" smooth="yes"/>
      <point x="884" y="546"/>
      <point x="938" y="548"/>
      <point x="938" y="610" type="curve" smooth="yes"/>
      <point x="938" y="674"/>
      <point x="884" y="676"/>
      <point x="866" y="676" type="curve" smooth="yes"/>
      <point x="598" y="682"/>
      <point x="598" y="766"/>
      <point x="598" y="816" type="curve" smooth="yes"/>
      <point x="598" y="1136" type="line" smooth="yes"/>
      <point x="598" y="1188"/>
      <point x="594" y="1280"/>
      <point x="468" y="1340" type="curve" smooth="yes"/>
      <point x="378" y="1384"/>
      <point x="246" y="1388"/>
      <point x="198" y="1388" type="curve" smooth="yes"/>
      <point x="162" y="1388"/>
      <point x="110" y="1388"/>
      <point x="110" y="1322" type="curve" smooth="yes"/>
      <point x="110" y="1260"/>
      <point x="166" y="1258"/>
      <point x="182" y="1258" type="curve" smooth="yes"/>
      <point x="450" y="1254"/>
      <point x="450" y="1182"/>
      <point x="450" y="1128" type="curve" smooth="yes"/>
      <point x="450" y="808" type="line" smooth="yes"/>
      <point x="450" y="770"/>
      <point x="450" y="672"/>
      <point x="562" y="612" type="curve"/>
      <point x="450" y="548"/>
      <point x="450" y="452"/>
      <point x="450" y="414" type="curve" smooth="yes"/>
      <point x="450" y="94" type="line" smooth="yes"/>
      <point x="450" y="44"/>
      <point x="450" y="-32"/>
      <point x="188" y="-36" type="curve"/>
      <point x="164" y="-36"/>
      <point x="110" y="-36"/>
      <point x="110" y="-100" type="curve" smooth="yes"/>
      <point x="110" y="-166"/>
      <point x="162" y="-166"/>
      <point x="198" y="-166" type="curve" smooth="yes"/>
      <point x="248" y="-166"/>
      <point x="382" y="-162"/>
      <point x="482" y="-110" type="curve" smooth="yes"/>
      <point x="598" y="-50"/>
      <point x="598" y="48"/>
      <point x="598" y="86" type="curve" smooth="yes"/>
    </contour>
  </outline>
</glyph>
<glyph name="asciitilde" format="2">
  <advance width="1050"/>
  <unicode hex="007E"/>
  <outline>
    <contour>
      <point x="874" y="1154" type="curve" smooth="yes"/>
      <point x="874" y="1188"/>
      <point x="842" y="1222"/>
      <point x="808" y="1222" type="curve" smooth="yes"/>
      <point x="782" y="1222"/>
      <point x="768" y="1208"/>
      <point x="750" y="1190" type="curve" smooth="yes"/>
      <point x="720" y="1162"/>
      <point x="662" y="1114"/>
      <point x="624" y="1114" type="curve" smooth="yes"/>
      <point x="604" y="1114"/>
      <point x="596" y="1124"/>
      <point x="562" y="1156" type="curve" smooth="yes"/>
      <point x="538" y="1180"/>
      <point x="498" y="1222"/>
      <point x="430" y="1222" type="curve" smooth="yes"/>
      <point x="382" y="1222"/>
      <point x="328" y="1198"/>
      <point x="272" y="1156" type="curve" smooth="yes"/>
      <point x="178" y="1082"/>
      <point x="174" y="1062"/>
      <point x="174" y="1042" type="curve" smooth="yes"/>
      <point x="174" y="1008"/>
      <point x="206" y="974"/>
      <point x="240" y="974" type="curve" smooth="yes"/>
      <point x="266" y="974"/>
      <point x="280" y="988"/>
      <point x="298" y="1006" type="curve" smooth="yes"/>
      <point x="328" y="1034"/>
      <point x="386" y="1082"/>
      <point x="424" y="1082" type="curve" smooth="yes"/>
      <point x="444" y="1082"/>
      <point x="452" y="1072"/>
      <point x="486" y="1040" type="curve" smooth="yes"/>
      <point x="510" y="1016"/>
      <point x="550" y="974"/>
      <point x="618" y="974" type="curve" smooth="yes"/>
      <point x="666" y="974"/>
      <point x="720" y="998"/>
      <point x="776" y="1040" type="curve" smooth="yes"/>
      <point x="870" y="1114"/>
      <point x="874" y="1134"/>
    </contour>
  </outline>
</glyph>
<glyph name="exclamdown" format="2">
	<unicode hex="00A1"/>
	<advance width="525"/>
	<outline>
		<contour>
			<point x="313" y="338" type="curve" smooth="yes"/>
			<point x="313" y="366"/>
			<point x="290" y="389"/>
			<point x="262" y="389" type="curve" smooth="yes"/>
			<point x="234" y="389"/>
			<point x="211" y="366"/>
			<point x="211" y="338" type="curve" smooth="yes"/>
			<point x="211" y="310"/>
			<point x="234" y="287"/>
			<point x="262" y="287" type="curve" smooth="yes"/>
			<point x="290" y="287"/>
			<point x="313" y="310"/>
		</contour>
		<contour>
			<point x="313" y="-176" type="curve" smooth="yes"/>
			<point x="311" y="-71"/>
			<point x="307" y="45"/>
			<point x="304" y="156" type="curve" smooth="yes"/>
			<point x="303" y="186"/>
			<point x="302" y="204"/>
			<point x="262" y="204" type="curve" smooth="yes"/>
			<point x="222" y="204"/>
			<point x="221" y="187"/>
			<point x="220" y="153" type="curve" smooth="yes"/>
			<point x="217" y="45"/>
			<point x="215" y="-69"/>
			<point x="211" y="-176" type="curve" smooth="yes"/>
			<point x="209" y="-229"/>
			<point x="254" y="-233"/>
			<point x="262" y="-233" type="curve" smooth="yes"/>
			<point x="271" y="-233"/>
			<point x="314" y="-229"/>
		</contour>
	</outline>
</glyph>
<glyph name="dieresis" format="2">
  <advance width="1050"/>
  <unicode hex="00A8"/>
  <outline>
    <contour>
      <point x="422" y="1122" type="curve" smooth="yes"/>
      <point x="422" y="1188"/>
      <point x="368" y="1224"/>
      <point x="320" y="1224" type="curve" smooth="yes"/>
      <point x="258" y="1224"/>
      <point x="218" y="1168"/>
      <point x="218" y="1122" type="curve" smooth="yes"/>
      <point x="218" y="1074"/>
      <point x="258" y="1020"/>
      <point x="320" y="1020" type="curve" smooth="yes"/>
      <point x="366" y="1020"/>
      <point x="422" y="1054"/>
    </contour>
    <contour>
      <point x="830" y="1122" type="curve" smooth="yes"/>
      <point x="830" y="1170"/>
      <point x="790" y="1224"/>
      <point x="728" y="1224" type="curve" smooth="yes"/>
      <point x="682" y="1224"/>
      <point x="626" y="1190"/>
      <point x="626" y="1122" type="curve" smooth="yes"/>
      <point x="626" y="1056"/>
      <point x="680" y="1020"/>
      <point x="728" y="1020" type="curve" smooth="yes"/>
      <point x="790" y="1020"/>
      <point x="830" y="1076"/>
    </contour>
  </outline>
</glyph>
<glyph name="macron" format="2">
  <advance width="1050"/>
  <unicode hex="00AF"/>
  <outline>
    <contour>
      <point x="818" y="1026" type="line" smooth="yes"/>
      <point x="848" y="1026"/>
      <point x="902" y="1026"/>
      <point x="902" y="1092" type="curve" smooth="yes"/>
      <point x="902" y="1160"/>
      <point x="850" y="1160"/>
      <point x="818" y="1160" type="curve" smooth="yes"/>
      <point x="230" y="1160" type="line" smooth="yes"/>
      <point x="200" y="1160"/>
      <point x="146" y="1160"/>
      <point x="146" y="1094" type="curve" smooth="yes"/>
      <point x="146" y="1026"/>
      <point x="198" y="1026"/>
      <point x="232" y="1026" type="curve" smooth="yes"/>
    </contour>
  </outline>
</glyph>
<glyph name="acute" format="2">
  <advance width="1050"/>
  <unicode hex="00B4"/>
  <outline>
    <contour>
      <point x="750" y="1072" type="line" smooth="yes"/>
      <point x="776" y="1082"/>
      <point x="814" y="1098"/>
      <point x="814" y="1148" type="curve" smooth="yes"/>
      <point x="814" y="1184"/>
      <point x="786" y="1222"/>
      <point x="740" y="1222" type="curve" smooth="yes"/>
      <point x="726" y="1222"/>
      <point x="718" y="1218"/>
      <point x="702" y="1212" type="curve" smooth="yes"/>
      <point x="440" y="1106" type="line" smooth="yes"/>
      <point x="414" y="1096"/>
      <point x="386" y="1084"/>
      <point x="386" y="1044" type="curve" smooth="yes"/>
      <point x="386" y="1004"/>
      <point x="416" y="960"/>
      <point x="458" y="960" type="curve" smooth="yes"/>
      <point x="470" y="960"/>
      <point x="486" y="964"/>
      <point x="498" y="970" type="curve"/>
    </contour>
  </outline>
</glyph>
<glyph name="cedilla" format="2">
  <advance width="1050"/>
  <unicode hex="00B8"/>
  <outline>
    <contour>
      <point x="712" y="-208" type="curve" smooth="yes"/>
      <point x="712" y="-276"/>
      <point x="560" y="-284"/>
      <point x="474" y="-284" type="curve" smooth="yes"/>
      <point x="442" y="-284" type="line" smooth="yes"/>
      <point x="370" y="-284"/>
      <point x="318" y="-284"/>
      <point x="318" y="-350" type="curve" smooth="yes"/>
      <point x="318" y="-392"/>
      <point x="346" y="-416"/>
      <point x="386" y="-416" type="curve" smooth="yes"/>
      <point x="580" y="-416"/>
      <point x="860" y="-416"/>
      <point x="860" y="-208" type="curve" smooth="yes"/>
      <point x="860" y="-132"/>
      <point x="812" y="-42"/>
      <point x="664" y="-12" type="curve"/>
      <point x="664" y="58"/>
      <point x="664" y="98"/>
      <point x="590" y="98" type="curve" smooth="yes"/>
      <point x="516" y="98"/>
      <point x="516" y="52"/>
      <point x="516" y="14" type="curve" smooth="yes"/>
      <point x="516" y="-48" type="line" smooth="yes"/>
      <point x="516" y="-84"/>
      <point x="516" y="-128"/>
      <point x="582" y="-132" type="curve" smooth="yes"/>
      <point x="658" y="-136"/>
      <point x="712" y="-164"/>
    </contour>
  </outline>
</glyph>
<glyph name="questiondown" format="2">
	<unicode hex="00BF"/>
	<advance width="525"/>
	<outline>
		<contour>
			<point x="298" y="338" type="curve" smooth="yes"/>
			<point x="298" y="366"/>
			<point x="275" y="389"/>
			<point x="247" y="389" type="curve" smooth="yes"/>
			<point x="219" y="389"/>
			<point x="196" y="366"/>
			<point x="196" y="338" type="curve" smooth="yes"/>
			<point x="196" y="310"/>
			<point x="219" y="287"/>
			<point x="247" y="287" type="curve" smooth="yes"/>
			<point x="275" y="287"/>
			<point x="298" y="310"/>
		</contour>
		<contour>
			<point x="206" y="144" type="line" smooth="yes"/>
			<point x="206" y="78"/>
			<point x="177" y="32"/>
			<point x="116" y="-8" type="curve" smooth="yes"/>
			<point x="76" y="-34"/>
			<point x="62" y="-71"/>
			<point x="62" y="-102" type="curve" smooth="yes"/>
			<point x="62" y="-167"/>
			<point x="115" y="-227"/>
			<point x="243" y="-227" type="curve" smooth="yes"/>
			<point x="281" y="-227"/>
			<point x="462" y="-227"/>
			<point x="462" y="-105" type="curve" smooth="yes"/>
			<point x="462" y="-71"/>
			<point x="438" y="-56"/>
			<point x="415" y="-56" type="curve" smooth="yes"/>
			<point x="390" y="-56"/>
			<point x="369" y="-76"/>
			<point x="369" y="-102" type="curve" smooth="yes"/>
			<point x="369" y="-120"/>
			<point x="377" y="-130"/>
			<point x="377" y="-131" type="curve"/>
			<point x="343" y="-162"/>
			<point x="262" y="-162"/>
			<point x="249" y="-162" type="curve" smooth="yes"/>
			<point x="228" y="-162"/>
			<point x="136" y="-162"/>
			<point x="136" y="-102" type="curve" smooth="yes"/>
			<point x="136" y="-77"/>
			<point x="153" y="-66"/>
			<point x="168" y="-55" type="curve" smooth="yes"/>
			<point x="288" y="26"/>
			<point x="288" y="113"/>
			<point x="288" y="150" type="curve" smooth="yes"/>
			<point x="288" y="186"/>
			<point x="288" y="204"/>
			<point x="247" y="204" type="curve" smooth="yes"/>
			<point x="206" y="204"/>
			<point x="206" y="183"/>
			<point x="206" y="161" type="curve" smooth="yes"/>
		</contour>
	</outline>
</glyph>
<glyph name="AE" format="2">
  <advance width="1050"/>
  <unicode hex="00C6"/>
  <outline>
    <contour>
      <point x="314" y="358" type="line"/>
      <point x="528" y="358" type="line"/>
      <point x="528" y="130" type="line"/>
      <point x="502" y="130"/>
      <point x="448" y="130"/>
      <point x="448" y="66" type="curve" smooth="yes"/>
      <point x="448" y="0"/>
      <point x="500" y="0"/>
      <point x="532" y="0" type="curve" smooth="yes"/>
      <point x="914" y="0" type="line" smooth="yes"/>
      <point x="980" y="0"/>
      <point x="998" y="16"/>
      <point x="998" y="84" type="curve" smooth="yes"/>
      <point x="998" y="270" type="line" smooth="yes"/>
      <point x="998" y="296"/>
      <point x="998" y="354"/>
      <point x="938" y="354" type="curve" smooth="yes"/>
      <point x="878" y="354"/>
      <point x="878" y="296"/>
      <point x="878" y="270" type="curve" smooth="yes"/>
      <point x="878" y="130" type="line"/>
      <point x="648" y="130" type="line"/>
      <point x="648" y="568" type="line"/>
      <point x="866" y="568" type="line" smooth="yes"/>
      <point x="894" y="568"/>
      <point x="950" y="568"/>
      <point x="950" y="632" type="curve" smooth="yes"/>
      <point x="950" y="698"/>
      <point x="896" y="698"/>
      <point x="866" y="698" type="curve" smooth="yes"/>
      <point x="648" y="698" type="line"/>
      <point x="648" y="1092" type="line"/>
      <point x="862" y="1092" type="line"/>
      <point x="862" y="984" type="line" smooth="yes"/>
      <point x="862" y="958"/>
      <point x="862" y="900"/>
      <point x="922" y="900" type="curve" smooth="yes"/>
      <point x="982" y="900"/>
      <point x="982" y="958"/>
      <point x="982" y="984" type="curve" smooth="yes"/>
      <point x="982" y="1138" type="line" smooth="yes"/>
      <point x="982" y="1204"/>
      <point x="966" y="1222"/>
      <point x="898" y="1222" type="curve" smooth="yes"/>
      <point x="342" y="1222" type="line" smooth="yes"/>
      <point x="312" y="1222"/>
      <point x="258" y="1222"/>
      <point x="258" y="1156" type="curve" smooth="yes"/>
      <point x="258" y="1092"/>
      <point x="314" y="1092"/>
      <point x="338" y="1092" type="curve"/>
      <point x="146" y="130" type="line"/>
      <point x="96" y="130"/>
      <point x="46" y="130"/>
      <point x="46" y="64" type="curve" smooth="yes"/>
      <point x="46" y="0"/>
      <point x="102" y="0"/>
      <point x="132" y="0" type="curve" smooth="yes"/>
      <point x="274" y="0" type="line" smooth="yes"/>
      <point x="304" y="0"/>
      <point x="360" y="0"/>
      <point x="360" y="64" type="curve" smooth="yes"/>
      <point x="360" y="130"/>
      <point x="308" y="130"/>
      <point x="268" y="130" type="curve"/>
    </contour>
    <contour>
      <point x="460" y="1092" type="line"/>
      <point x="528" y="1092" type="line"/>
      <point x="528" y="488" type="line"/>
      <point x="340" y="488" type="line"/>
    </contour>
  </outline>
</glyph>
<glyph name="ae" format="2">
  <advance width="1050"/>
  <unicode hex="00E6"/>
  <outline>
    <contour>
      <point x="464" y="500" type="line"/>
      <point x="258" y="498"/>
      <point x="62" y="416"/>
      <point x="62" y="244" type="curve" smooth="yes"/>
      <point x="62" y="132"/>
      <point x="140" y="-10"/>
      <point x="296" y="-10" type="curve" smooth="yes"/>
      <point x="380" y="-10"/>
      <point x="496" y="30"/>
      <point x="552" y="122" type="curve"/>
      <point x="570" y="96"/>
      <point x="650" y="-10"/>
      <point x="776" y="-10" type="curve" smooth="yes"/>
      <point x="944" y="-10"/>
      <point x="1008" y="174"/>
      <point x="1008" y="218" type="curve" smooth="yes"/>
      <point x="1008" y="252"/>
      <point x="982" y="278"/>
      <point x="948" y="278" type="curve" smooth="yes"/>
      <point x="902" y="278"/>
      <point x="892" y="240"/>
      <point x="888" y="220" type="curve"/>
      <point x="872" y="168"/>
      <point x="838" y="120"/>
      <point x="786" y="120" type="curve" smooth="yes"/>
      <point x="698" y="120"/>
      <point x="604" y="224"/>
      <point x="588" y="378" type="curve"/>
      <point x="924" y="378" type="line" smooth="yes"/>
      <point x="990" y="378"/>
      <point x="1008" y="394"/>
      <point x="1008" y="462" type="curve" smooth="yes"/>
      <point x="1008" y="744"/>
      <point x="892" y="878"/>
      <point x="756" y="878" type="curve" smooth="yes"/>
      <point x="704" y="878"/>
      <point x="622" y="860"/>
      <point x="544" y="740" type="curve"/>
      <point x="498" y="818"/>
      <point x="426" y="878"/>
      <point x="314" y="878" type="curve" smooth="yes"/>
      <point x="200" y="878"/>
      <point x="80" y="842"/>
      <point x="80" y="728" type="curve" smooth="yes"/>
      <point x="80" y="674"/>
      <point x="120" y="634"/>
      <point x="174" y="634" type="curve" smooth="yes"/>
      <point x="212" y="634"/>
      <point x="238" y="658"/>
      <point x="246" y="666" type="curve"/>
      <point x="264" y="692"/>
      <point x="264" y="702"/>
      <point x="264" y="746" type="curve"/>
      <point x="278" y="748"/>
      <point x="296" y="748"/>
      <point x="310" y="748" type="curve" smooth="yes"/>
      <point x="400" y="748"/>
      <point x="464" y="686"/>
      <point x="464" y="562" type="curve" smooth="yes"/>
    </contour>
    <contour>
      <point x="588" y="506" type="line"/>
      <point x="606" y="636"/>
      <point x="678" y="748"/>
      <point x="756" y="748" type="curve" smooth="yes"/>
      <point x="812" y="748"/>
      <point x="874" y="688"/>
      <point x="886" y="506" type="curve"/>
    </contour>
    <contour>
      <point x="464" y="374" type="curve"/>
      <point x="462" y="350"/>
      <point x="462" y="320"/>
      <point x="462" y="282" type="curve" smooth="yes"/>
      <point x="462" y="220"/>
      <point x="462" y="198"/>
      <point x="422" y="162" type="curve" smooth="yes"/>
      <point x="390" y="132"/>
      <point x="340" y="120"/>
      <point x="306" y="120" type="curve" smooth="yes"/>
      <point x="224" y="120"/>
      <point x="182" y="192"/>
      <point x="182" y="244" type="curve" smooth="yes"/>
      <point x="182" y="350"/>
      <point x="394" y="372"/>
    </contour>
  </outline>
</glyph>
<glyph name="oslash" format="2">
	<unicode hex="00F8"/>
	<advance width="525"/>
	<outline>
		<contour>
			<point x="466" y="503" type="line" smooth="yes"/>
			<point x="483" y="531"/>
			<point x="483" y="533"/>
			<point x="483" y="541" type="curve" smooth="yes"/>
			<point x="483" y="563"/>
			<point x="461" y="573"/>
			<point x="449" y="573" type="curve" smooth="yes"/>
			<point x="432" y="573"/>
			<point x="427" y="564"/>
			<point x="418" y="551" type="curve"/>
			<point x="413" y="542"/>
			<point x="368" y="462"/>
			<point x="344" y="423" type="curve"/>
			<point x="312" y="436"/>
			<point x="283" y="439"/>
			<point x="262" y="439" type="curve" smooth="yes"/>
			<point x="141" y="439"/>
			<point x="43" y="338"/>
			<point x="43" y="216" type="curve" smooth="yes"/>
			<point x="43" y="138"/>
			<point x="83" y="76"/>
			<point x="125" y="44" type="curve"/>
			<point x="56" y="-76" type="line" smooth="yes"/>
			<point x="41" y="-101"/>
			<point x="41" y="-103"/>
			<point x="41" y="-110" type="curve" smooth="yes"/>
			<point x="41" y="-132"/>
			<point x="63" y="-142"/>
			<point x="75" y="-142" type="curve" smooth="yes"/>
			<point x="92" y="-142"/>
			<point x="98" y="-132"/>
			<point x="106" y="-120" type="curve"/>
			<point x="130.975" y="-76.71"/>
			<point x="155.95" y="-33.42"/>
			<point x="181" y="10" type="curve"/>
			<point x="183" y="9"/>
			<point x="219" y="-5"/>
			<point x="262" y="-5" type="curve" smooth="yes"/>
			<point x="382" y="-5"/>
			<point x="481" y="93"/>
			<point x="481" y="216" type="curve" smooth="yes"/>
			<point x="481" y="289"/>
			<point x="445" y="352"/>
			<point x="400" y="389" type="curve"/>
		</contour>
		<contour>
			<point x="156" y="99" type="line"/>
			<point x="123" y="129"/>
			<point x="103" y="171"/>
			<point x="103" y="216" type="curve" smooth="yes"/>
			<point x="103" y="302"/>
			<point x="174" y="374"/>
			<point x="262" y="374" type="curve" smooth="yes"/>
			<point x="269" y="374"/>
			<point x="289" y="374"/>
			<point x="311" y="366" type="curve"/>
		</contour>
		<contour>
			<point x="367" y="333" type="line"/>
			<point x="421" y="289"/>
			<point x="421" y="226"/>
			<point x="421" y="216" type="curve" smooth="yes"/>
			<point x="421" y="129"/>
			<point x="349" y="60"/>
			<point x="262" y="60" type="curve" smooth="yes"/>
			<point x="245" y="60"/>
			<point x="226" y="63"/>
			<point x="214" y="67" type="curve"/>
		</contour>
	</outline>
</glyph>
